<?xml version="1.0" encoding="utf-8"?>
<!-- Generator: Adobe Illustrator 25.2.1, SVG Export Plug-In . SVG Version: 6.00 Build 0)  -->
<svg version="1.1" id="Layer_1" xmlns="http://www.w3.org/2000/svg" xmlns:xlink="http://www.w3.org/1999/xlink" x="0px" y="0px"
	 viewBox="0 0 200 200" style="enable-background:new 0 0 200 200;" xml:space="preserve">
<style type="text/css">
	.st0{display:none;}
	.st1{display:inline;fill:#FFFFFF;}
	.st2{display:inline;}
	.st3{fill:#FF0000;}
	.st4{fill:#F28022;}
	.st5{display:none;fill:#4D4D4D;}
	.st6{fill:#191818;}
	.st7{fill:#FFFB61;}
	.st8{fill:#0774B5;}
	.st9{display:inline;fill:#969696;stroke:#000000;stroke-width:4;stroke-miterlimit:10;}
	.st10{fill:#4D4D4D;}
	.st11{display:inline;fill:none;stroke:#0774B5;stroke-width:2;stroke-linecap:round;stroke-linejoin:round;stroke-miterlimit:10;}
	.st12{display:inline;fill:#0774B5;}
	.st13{fill:url(#SVGID_1_);}
	.st14{display:none;fill:url(#SVGID_2_);}
	.st15{fill:#CCCCCC;}
	.st16{fill:#808080;}
	.st17{display:none;fill:#29ABE2;}
	.st18{display:none;fill:#CCCCCC;}
	.st19{fill:#212121;}
	.st20{fill:#ED3137;}
	.st21{display:none;opacity:0.7;}
	.st22{fill:#FFFFFF;}
</style>
<g id="PROTO_1" class="st0">
	<path class="st1" d="M190,200H22.2C9.9,200,0,190.1,0,177.8V22.2C0,9.9,9.9,0,22.2,0h155.7C190.1,0,200,9.9,200,22.2V190
		C200,195.5,195.5,200,190,200z"/>
	<g id="cusco_logo" class="st2">
		<g id="logo">
			<path class="st3" d="M123.5,181.6c0,0.2-0.1,0.4-0.1,0.7h6.8c0-0.2,0-0.4,0.1-0.7H123.5z"/>
			<path class="st3" d="M130.4,182.8h-6.9c0,0.2,0,0.4,0.1,0.6h7.2C130.6,183.2,130.5,183,130.4,182.8"/>
			<path class="st3" d="M136.4,186.2h-11.3c0.2,0.2,0.5,0.4,0.8,0.7H136L136.4,186.2z"/>
			<path class="st3" d="M141.4,176.3l0.4-0.7h-10c0,0-0.9,0-1.7,0.3c-0.4,0.1-0.7,0.2-1.1,0.4H141.4z"/>
			<path class="st3" d="M124.2,185.1c0.1,0.2,0.3,0.4,0.4,0.6h11.9l0.3-0.6H124.2z"/>
			<path class="st3" d="M123.9,184.4c0,0,0,0.1,0.1,0.2h13.2l0.4-0.7h-13.9C123.7,184,123.8,184.2,123.9,184.4"/>
			<path class="st3" d="M126.9,187.4c0.4,0.2,1.1,0.5,1.8,0.6c0.7,0.1,0.9,0.1,1.7,0.1h5.1l0.3-0.7H126.9z"/>
			<path class="st3" d="M127.7,176.9C127.7,176.9,127.7,176.9,127.7,176.9c0,0-0.5,0.2-1,0.6h14l0.3-0.6H127.7z"/>
			<path class="st3" d="M125.9,178.1c-0.2,0.2-0.5,0.4-0.7,0.6h14.9l0.3-0.6H125.9z"/>
			<path class="st3" d="M124.7,179.2c-0.1,0.2-0.3,0.4-0.5,0.7h15.2l0.4-0.7H124.7z"/>
			<path class="st3" d="M124,180.4c-0.1,0.2-0.2,0.4-0.3,0.7h7c0.1-0.1,0.5-0.4,1-0.7H124z"/>
			<polygon class="st3" points="142.6,173.5 142.9,173.5 134.7,189.9 134.5,189.9 			"/>
		</g>
		<g id="cusco">
			<path d="M153.2,178.2l0.3-1.7h0.8c0.5,0,0.6,0.2,0.6,0.6c-0.1,0.4-0.3,0.6-0.8,0.6h-0.3l-0.1,0.5H153.2z M154.1,177.3
				c0.1,0,0.2-0.1,0.2-0.2c0-0.2-0.1-0.2-0.2-0.2h-0.1l-0.1,0.4H154.1z"/>
			<path d="M155.4,177.6l-0.1,0.6h-0.5l0.3-1.7h0.8c0.5,0,0.7,0.2,0.6,0.5c0,0.2-0.1,0.4-0.3,0.4c0.2,0.1,0.3,0.1,0.2,0.5
				c0,0.2-0.1,0.3,0,0.3l0,0.1h-0.5c0,0,0-0.1,0-0.3c0-0.2,0-0.3-0.2-0.3H155.4z M155.5,177.3h0.2c0.2,0,0.3,0,0.3-0.2
				c0-0.1-0.1-0.2-0.2-0.2h-0.2L155.5,177.3z"/>
			<path d="M158.2,177.4c-0.1,0.6-0.5,0.9-1,0.9c-0.5,0-0.8-0.3-0.7-0.9c0.1-0.5,0.5-0.9,1-0.9C158.1,176.5,158.3,176.9,158.2,177.4
				 M157.1,177.4c0,0.2,0,0.5,0.2,0.5c0.2,0,0.3-0.2,0.4-0.5c0-0.2,0-0.5-0.2-0.5C157.2,176.9,157.1,177.2,157.1,177.4"/>
			<path d="M159.9,178.2h-0.3l0-0.2c-0.1,0.1-0.3,0.2-0.5,0.2c-0.4,0-0.7-0.3-0.6-0.9c0.1-0.5,0.5-0.9,1-0.9c0.4,0,0.7,0.2,0.7,0.6
				h-0.5c0-0.1-0.1-0.2-0.2-0.2c-0.2,0-0.3,0.2-0.4,0.5c0,0.2,0,0.5,0.3,0.5c0.1,0,0.3-0.1,0.3-0.2h-0.2l0.1-0.4h0.7L159.9,178.2z"
				/>
			<path d="M160.8,177.6l-0.1,0.6h-0.5l0.3-1.7h0.8c0.5,0,0.7,0.2,0.6,0.5c0,0.2-0.1,0.4-0.3,0.4c0.2,0.1,0.3,0.1,0.2,0.5
				c0,0.2-0.1,0.3,0,0.3l0,0.1h-0.5c0,0,0-0.1,0-0.3c0-0.2,0-0.3-0.2-0.3H160.8z M160.8,177.3h0.2c0.2,0,0.3,0,0.3-0.2
				c0-0.1-0.1-0.2-0.2-0.2h-0.2L160.8,177.3z"/>
			<polygon points="161.9,178.2 162.2,176.5 163.5,176.5 163.4,176.9 162.6,176.9 162.6,177.2 163.2,177.2 163.2,177.6 162.5,177.6 
				162.5,177.8 163.3,177.8 163.2,178.2 			"/>
			<path d="M164.5,177c0-0.1,0-0.1-0.1-0.1c0,0-0.1,0-0.1,0c-0.1,0-0.2,0-0.2,0.1c0,0.3,0.9,0.1,0.8,0.7c-0.1,0.4-0.4,0.6-0.8,0.6
				c-0.4,0-0.7-0.3-0.6-0.6h0.5c0,0.1,0,0.1,0.1,0.1c0,0,0.1,0,0.1,0c0.1,0,0.2,0,0.2-0.1c0-0.3-0.9-0.1-0.8-0.7
				c0.1-0.4,0.4-0.5,0.8-0.5c0.4,0,0.6,0.2,0.6,0.5H164.5z"/>
			<path d="M166.1,177c0-0.1,0-0.1-0.1-0.1c0,0-0.1,0-0.1,0c-0.1,0-0.2,0-0.2,0.1c0,0.3,0.9,0.1,0.8,0.7c-0.1,0.4-0.4,0.6-0.8,0.6
				c-0.4,0-0.7-0.3-0.6-0.6h0.5c0,0.1,0,0.1,0.1,0.1c0,0,0.1,0,0.1,0c0.1,0,0.2,0,0.2-0.1c0-0.3-0.9-0.1-0.8-0.7
				c0.1-0.4,0.4-0.5,0.8-0.5c0.4,0,0.6,0.2,0.6,0.5H166.1z"/>
			<polygon points="166.6,178.2 166.9,176.5 167.4,176.5 167.1,178.2 			"/>
			<polygon points="167.6,176.5 168.2,176.5 168.2,177.7 168.7,176.5 169.3,176.5 168.4,178.2 167.9,178.2 			"/>
			<polygon points="169.2,178.2 169.5,176.5 170.8,176.5 170.7,176.9 169.9,176.9 169.9,177.2 170.5,177.2 170.5,177.6 169.8,177.6 
				169.8,177.8 170.6,177.8 170.5,178.2 			"/>
			<polygon points="171.7,178.2 172,176.5 173.3,176.5 173.2,176.9 172.5,176.9 172.4,177.2 173.1,177.2 173,177.6 172.3,177.6 
				172.3,177.8 173.1,177.8 173,178.2 			"/>
			<path d="M174.6,178.4l-0.2-0.2c-0.1,0-0.2,0.1-0.4,0.1c-0.5,0-0.8-0.3-0.7-0.9c0.1-0.5,0.5-0.9,1-0.9c0.5,0,0.8,0.4,0.7,0.9
				c0,0.2-0.1,0.4-0.3,0.6l0.1,0.2L174.6,178.4z M174.3,177.4l0.1,0.2c0-0.1,0-0.1,0.1-0.2c0-0.3,0-0.5-0.2-0.5
				c-0.2,0-0.4,0.3-0.4,0.5c0,0.2,0,0.5,0.2,0.5c0,0,0.1,0,0.1,0l-0.1-0.2L174.3,177.4z"/>
			<path d="M175.4,176.5h0.5l-0.2,1c0,0.2,0,0.3,0.2,0.3c0.2,0,0.3-0.1,0.3-0.3l0.2-1h0.5l-0.2,1c-0.1,0.5-0.4,0.8-0.9,0.8
				c-0.5,0-0.7-0.2-0.6-0.8L175.4,176.5z"/>
			<polygon points="177,178.2 177.2,176.5 177.8,176.5 177.5,178.2 			"/>
			<path d="M177.7,178.2l0.3-1.7h0.8c0.5,0,0.6,0.2,0.6,0.6c-0.1,0.4-0.3,0.6-0.8,0.6h-0.3l-0.1,0.5H177.7z M178.6,177.3
				c0.1,0,0.2-0.1,0.2-0.2c0-0.2-0.1-0.2-0.2-0.2h-0.1l-0.1,0.4H178.6z"/>
			<polygon points="179.3,178.2 179.6,176.5 180.3,176.5 180.4,177.6 180.8,176.5 181.5,176.5 181.2,178.2 180.7,178.2 180.8,177.7 
				180.8,177.5 180.9,177.1 180.9,177.1 180.4,178.2 180.1,178.2 180,177.1 180,177.1 179.9,177.4 179.9,177.7 179.8,178.2 			"/>
			<polygon points="181.4,178.2 181.7,176.5 183,176.5 183,176.9 182.2,176.9 182.1,177.2 182.8,177.2 182.7,177.6 182.1,177.6 
				182,177.8 182.8,177.8 182.8,178.2 			"/>
			<polygon points="184.2,177.5 184.2,177.1 184.3,176.5 184.8,176.5 184.6,178.2 184.1,178.2 183.7,177.3 183.6,177.7 183.5,178.2 
				183,178.2 183.3,176.5 183.8,176.5 			"/>
			<polygon points="185,176.5 186.5,176.5 186.4,177 186,177 185.8,178.2 185.2,178.2 185.4,177 185,177 			"/>
			<path d="M188.2,176h0.6c0.1,0,0.2,0,0.2,0c0.1,0.1,0.2,0.2,0.2,0.3c0,0.1,0,0.2-0.1,0.3c-0.1,0.1-0.2,0.1-0.3,0.1h-0.6V176z
				 M188.2,177.9V177h0.6c0.1,0,0.2,0,0.2,0c0.1,0,0.1,0.1,0.1,0.3l0,0.3c0,0.1,0,0.1,0,0.2c0,0,0,0.1,0,0.1h0.3v0
				c0,0-0.1-0.1-0.1-0.1c0,0,0-0.1,0-0.2l0-0.3c0-0.1,0-0.2-0.1-0.3c0-0.1-0.1-0.1-0.2-0.1c0.1,0,0.2-0.1,0.2-0.2
				c0-0.1,0.1-0.2,0.1-0.3c0-0.2-0.1-0.4-0.3-0.5c-0.1,0-0.2-0.1-0.4-0.1h-0.9v2.1H188.2z"/>
			<path d="M188.6,175.2c-0.8,0-1.5,0.7-1.5,1.6c0,0.9,0.7,1.6,1.5,1.6c0.8,0,1.5-0.7,1.5-1.6C190.2,176,189.5,175.2,188.6,175.2
				 M188.6,178.3c-0.7,0-1.4-0.7-1.4-1.5c0-0.8,0.6-1.5,1.4-1.5c0.7,0,1.4,0.7,1.4,1.5C190,177.7,189.4,178.3,188.6,178.3"/>
			<path d="M176.5,180.7H172c0,0-2.2,0-3.5,1.3c0,0-2.6,2.1-0.5,5c0,0,1.4,1.7,4.6,1.7h3l1-2h-3.5c0,0-1.4,0.1-2.2-0.7
				c0,0-1.2-1.1,0-2.4c0,0,0.7-0.8,2.1-0.8h3.5V180.7z"/>
			<path d="M149.2,180.7v5.9c0,0-0.1,2.1,1.9,2.1H166c0,0,0.7,0.1,1.2-0.5c0,0,0.5-0.6,0.4-1.3c0,0-0.1-0.7-0.6-1l-4.8-2.8
				c0,0-0.5-0.3-0.1-0.3h4.8l0.9-2h-7.5c0,0-1.2-0.1-1.6,0.7c0,0-0.8,1.1,0.5,2.2l4.6,2.7c0,0,0.7,0.4-0.1,0.4h-4.5l-1.1,2.1v-8
				h-2.3v5.9h-3.2c-0.8,0-0.8-1-0.8-1v-5h-7.3c0,0-2.2,0-3.5,1.3c0,0-2.6,2.1-0.5,5c0,0,1.4,1.8,4.6,1.7h3l1-2h-3.5
				c0,0-1.4,0.1-2.2-0.7c0,0-1.2-1.1,0-2.4c0,0,0.7-0.8,2.1-0.8h3.7"/>
			<path d="M181.2,180.7c-2.8,0-5.1,1.8-5.1,4c0,2.2,2.3,4,5.1,4c2.8,0,5.1-1.8,5.1-4C186.3,182.5,184,180.7,181.2,180.7
				 M181.2,186.7c-1.3,0-2.4-0.9-2.4-2c0-1.1,1.1-2,2.4-2c1.3,0,2.4,0.9,2.4,2C183.6,185.8,182.5,186.7,181.2,186.7"/>
		</g>
	</g>
	<g id="supra" class="st2">
		<path class="st4" d="M17.9,70.5c2,0.2,10,1.1,12,1.3c0.3,0,0.4,0.2,0.5,0.3c0.1,0,0.2,0.2,0.2,0.4c0,0,0,0.1,0,0.1
			c-2-0.2-10.9-1.1-13-1.3C17.8,71.2,17.9,70.7,17.9,70.5z"/>
		<path class="st4" d="M182.3,70.5c-2,0.2-10.2,1.1-12.2,1.3c-0.3,0-0.4,0.2-0.5,0.3c-0.1,0-0.2,0.2-0.2,0.4c0,0,0,0.1,0,0.1
			c2-0.2,11.1-1.1,13.1-1.3C182.4,71,182.3,70.6,182.3,70.5z"/>
		<path class="st5" d="M24.1,73.2c-3.7-0.7-7.4-1.3-11-2c-1.7-0.3-3.5-0.5-5.2-0.9c-2.1-0.4-2.7-1.7-2.1-3.8c1.3-4.5,4.4-6.9,9-7.5
			c2.3-0.3,4.7-0.6,7-0.7c2.1-0.1,2.6,0.6,2.3,2.7c-0.3,2-0.6,3.9-0.9,5.9c-0.2,1,0.2,1.4,1.2,1.5c0.8,0.1,1.7,0.1,2.5,0.2
			c1.4,0.3,2.1-0.2,2.7-1.5c3-6,6.1-11.9,9.3-17.8c1-2,2.3-3.8,3.4-5.8c1.9-3.3,5-4.9,8.6-5.6c8.4-1.7,16.9-2.9,25.5-2.9
			c3.6,0,7.2,0.9,10.8,1.3c10.3,1.1,20.5,1.1,30.7-0.6c8.7-1.5,17.2,0,25.7,1.1c2.6,0.3,5.2,0.9,7.8,1.6c3.1,0.8,5.5,2.5,7.1,5.4
			c4.3,7.9,8.6,15.8,12.8,23.7c0.5,0.9,1,1.3,2.1,1.2c4.8-0.5,4.3,0.1,3.6-4.4c-0.2-1.2-0.4-2.4-0.6-3.7c-0.3-1.6,0.3-2.6,1.9-2.4
			c3.8,0.5,7.7,0.8,11.4,2c3.4,1,4.7,4.3,5.3,7.5c0.3,1.7-1.3,2.3-2.8,2.6c-2.7,0.5-5.4,0.9-8.2,1.4c-2.6,0.5-5.1,0.9-7.7,1.4
			c-0.1,0.2-0.2,0.4-0.2,0.6c1,0.8,1.9,1.8,3,2.3c7.4,3.7,12.9,9.2,16.3,16.8c0.6,1.2,0.8,2.7,0.8,4.1c0.2,9.1,0.3,18.1,0.5,27.2
			c0.1,7,0.2,14,0.3,21.1c0,3.9-0.2,7.9-0.4,11.8c0,0.8-0.1,1.5-0.3,2.3c-0.9,3.3-2.5,4.6-5.9,4.6c-9.4,0.1-20.6,0.2-20.6,0.2
			s-1,0.1-1.9-0.5c-0.9-0.6-0.6-2.1-0.9-4.1c-0.3-2-0.2-3.8-1.8-4.2c-1.6-0.4-22.6,0.8-23.4,0.5c-1.4-0.6-1-1.4-2-2.1
			c-1-0.7-2.8-0.7-4-0.7c-3.1,0-71.8,0.1-71.8,0.1s-1.5,0-2.4,0.6c-0.9,0.6-1.4,1.2-2.5,2.1c-1.1,0.8-4.1,0.6-4.1,0.6
			s-20.4-1.3-21.5-0.9c-1.1,0.5-1.1,2.7-1.6,4.9c-0.5,2.1-0.6,3-0.9,3.4c-0.3,0.4-0.9,0.4-1,0.4c-6.5,0-12.2-0.2-18.6-0.4
			c-5.1-0.1-6.8-1.9-7.2-7.1c-0.2-3.2-0.3-20-0.1-33.3c0.1-12.9,0.3-20.5,0.3-23.9C4,94.6,5.5,90.2,8.8,86.3
			c3.7-4.2,7.5-8.2,12.9-10.3c1-0.4,1.7-1.5,2.6-2.2C24.2,73.6,24.2,73.4,24.1,73.2z"/>
		<path class="st6" d="M38.5,78.2c-3-0.5-6-1.1-9-1.6c-1.4-0.2-2.8-0.4-4.2-0.7c-1.7-0.4-2.2-1.4-1.7-3.1c1.1-3.7,3.6-5.6,7.3-6.1
			c1.9-0.3,3.8-0.5,5.7-0.6c1.7-0.1,2.1,0.5,1.8,2.2c-0.3,1.6-0.5,3.2-0.8,4.8c-0.1,0.8,0.2,1.2,0.9,1.2c0.7,0,1.3,0.1,2,0.2
			c1.1,0.2,1.7-0.2,2.2-1.2c2.5-4.8,5-9.6,7.5-14.4c0.8-1.6,1.8-3.1,2.8-4.7c1.6-2.6,4-4,7-4.6c6.8-1.4,13.7-2.3,20.7-2.3
			c2.9,0,5.8,0.7,8.8,1.1c8.3,0.9,16.7,0.9,24.9-0.5c7.1-1.2,13.9,0,20.9,0.9c2.1,0.3,4.2,0.7,6.3,1.3c2.5,0.6,4.5,2,5.7,4.4
			c3.5,6.4,7,12.8,10.4,19.2c0.4,0.7,0.8,1.1,1.7,1c3.9-0.4,3.5,0.1,2.9-3.5c-0.2-1-0.3-2-0.5-3c-0.2-1.3,0.3-2.1,1.5-1.9
			c3.1,0.4,6.3,0.7,9.2,1.6c2.7,0.8,3.8,3.5,4.3,6.1c0.3,1.3-1.1,1.9-2.2,2.1c-2.2,0.4-4.4,0.7-6.6,1.1c-2.1,0.4-4.2,0.8-6.3,1.1
			c-0.1,0.2-0.1,0.3-0.2,0.5c0.8,0.6,1.6,1.4,2.5,1.9c6,3,10.5,7.5,13.2,13.6c0.4,1,0.6,2.2,0.6,3.3c0.1,7.3,0.3,14.7,0.4,22
			c0.1,5.7,0.2,11.4,0.2,17.1c0,3.2-0.2,6.4-0.3,9.6c0,0.6-0.1,1.2-0.3,1.8c-0.7,2.7-2,3.7-4.8,3.8c-7.7,0.1-16.7,0.2-16.7,0.2
			s-0.8,0.1-1.6-0.4s-0.5-1.7-0.7-3.3c-0.3-1.6-0.2-3.1-1.5-3.4s-18.3,0.7-19,0.4c-1.1-0.5-0.8-1.2-1.6-1.7
			c-0.8-0.5-2.2-0.5-3.2-0.5c-2.5,0-58.3,0.1-58.3,0.1s-1.2,0-1.9,0.5c-0.7,0.5-1.1,1-2,1.7c-0.9,0.7-3.3,0.5-3.3,0.5
			s-16.5-1.1-17.4-0.7c-0.9,0.4-0.9,2.2-1.3,4c-0.4,1.7-0.5,2.4-0.7,2.7c-0.2,0.3-0.7,0.4-0.8,0.4c-5.2,0-9.9-0.2-15.1-0.3
			c-4.1-0.1-5.5-1.6-5.8-5.7c-0.2-2.6-0.2-16.3-0.1-27c0.1-10.5,0.3-16.6,0.3-19.4c-0.1-4.2,1.1-7.7,3.9-10.9
			c3-3.4,6.1-6.7,10.5-8.4c0.8-0.3,1.4-1.2,2.1-1.8C38.6,78.5,38.5,78.3,38.5,78.2z"/>
		<path class="st7" d="M120,113.9c4.7-0.5,11-1.2,15.7-1.8c12.2-1.7,24.4-3.4,36.6-5.1c4.1-0.6,5.5-1.8,6.5-5.8
			c0.3-1.3,0.8-2.5,0.9-3.8c0.1-0.7,0.5-1.8-0.4-2.1c-0.9-0.3-1.1,1-1.3,1.6c-0.6,1.7-0.9,3.5-1.4,5.3c-0.5,2-1.8,3.1-3.9,3.3
			c-12.7,1.6-26.9,3.9-39.6,5.6c-4,0.5-4.6,0.6-8.6,1.4c-0.5,0.1-1.9,0.6-2.2,0.7C121.9,113.3,119.9,113.6,120,113.9z"/>
		<path class="st7" d="M80.3,113.9c-4.7-0.5-11.1-1.2-15.8-1.9c-12.3-1.7-24.6-3.4-36.9-5.2c-4.2-0.6-5.5-1.8-6.6-5.9
			c-0.3-1.3-0.8-2.5-1-3.8c-0.1-0.7-0.5-1.8,0.4-2.1c0.9-0.3,1.2,1,1.4,1.6c0.6,1.7,0.9,3.6,1.4,5.3c0.5,2,1.8,3.1,3.9,3.4
			c12.8,1.6,27.2,3.9,40,5.6c4,0.5,4.7,0.6,8.6,1.4c0.5,0.1,1.9,0.6,2.3,0.7C78.4,113.3,80.5,113.6,80.3,113.9z"/>
	</g>
	<g>
		<g class="st2">
			<path class="st8" d="M100.2,79.6H71.6l-19,4.3c0,0-0.6-2.5-1.8-2.3c-0.2,0-0.7,1-0.7,1l-12.6,1.3v1.9c0,0,4.5,0.8,5.6,3.5
				c1.1,2.8,0.9,3.5,0.5,6c3-3.3,4.2-5.4,4.2-5.4s1.6,1.2,2,1.1c1.3-0.2,2.4-0.9,2.5-1c0.3-0.2,0.2-2.2,0.2-2.2l0.5,0.6l18.6-3.5
				h28.7V79.6z"/>
			<path class="st8" d="M24,137.1c0.2,0.1,0.4,0.1,0.6,0.2c0.3,0,0.6,0,0.6,0c0.1,0,0.2-0.1,0.2-0.1c0,0-0.1-0.1-0.1-0.1
				s-0.6-0.1-0.9-0.3c-0.4-0.1-0.9-0.5-0.9-0.5l-0.1,0c0,0,0,0.1,0,0.2C23.5,136.5,23.5,136.9,24,137.1 M39.1,115.1c0,0,0.1,0,0.2,0
				c0.1,0,0.2-0.1,0.2-0.1s-0.1-0.1-0.2-0.1c-0.1,0-0.2-0.1-0.2-0.1l0,0L39.1,115.1z M38.7,112.1c0,0,0.4,0,0.6,0
				c0.2,0,0.5-0.1,0.5-0.1s-0.2-0.1-0.5-0.2c-0.2-0.1-0.6-0.2-0.6-0.2L38.7,112.1z M39,108.8c0,0,0.3,0,0.4-0.1
				c0.2,0,0.4-0.1,0.4-0.1s-0.2-0.1-0.4-0.1c-0.2-0.1-0.4-0.1-0.4-0.1L39,108.8z M36.1,98L36.1,98c0.1,0,0.3,0,0.5,0.1
				c0.2,0,0.3,0,0.4,0.1c0.1,0,0.3,0.1,0.3,0.2c0,0-0.1,0.1-0.1,0.1l0.1,0l-0.1,1l0.6,0.1l0,0l0-0.1l0.1,0l-0.1-0.1l0.1,0l-0.1-0.1
				l0.1,0l-0.1-0.1l0.1-0.1L37.9,99l0.1-0.1l0-0.1l0.1-0.1c0,0,0.1-0.1,0.2-0.1c0,0,0.9,0.1,1,0.1c0,0,0.2,0.1,0.2,0.1l0.1,0.1
				l0,0.1l0,0l-0.1,0.1l0.1,0.1l-0.1,0.1l0,0.1l-0.1,0l0.1,0.1l-0.1,0l0,0.1l-0.1,0.1l0,0.1l0,0.1l0,0.1l-0.1,0l0,0.1l0,0.1l0,0.1
				l-0.1,0.1l0.1,0.1l-0.1,0.1l0,0.1l-0.1,0.1l0,0.1l0,0l0,0.1l0,0l0,0.1l0,0l0.1,0.1l-0.1,0l0,0.1l0,0.1c0,0,0.6,0.1,0.9,0.1
				c0.4,0,0.9,0.1,0.9,0.1l0.1-0.1l0.1,0l0,0l0,0l0-0.1l0.1-0.1l-0.1-0.1l0.1-0.1l-0.1-0.1l0.1-0.1l0-0.1l0.1,0l-0.1-0.1l0.1-0.1
				l0-0.1l0.1-0.1l0-0.1l0.1-0.1l-0.1,0l0.1-0.1l-0.1-0.1l0.1-0.1l-0.1,0l0.1-0.1l-0.1-0.1l0.1-0.1l0-0.1l0.1-0.1l0-0.1l0.1-0.1
				l-0.1-0.1l0.1-0.1l0,0l0.1-0.1l-0.1-0.1l0.1,0l0,0l0.1-0.1l0.1,0c0,0,0.2,0,0.5,0c0.3,0,0.5,0.1,0.5,0.1l0.1,0.1l0,0.1l0.1,0.1
				l-0.1,0l0.1,0.1l-0.1,0l0.1,0.1l-0.1,0l0.1,0.1l-0.1,0l0,0.1l-0.1,0l0,0.1l-0.1,0l0.1,0.1l-0.1,0.1l0,0.1l-0.1,0l0.1,0.1l-0.1,0
				l0,0.1l0,0l0,0.1l0,0l0,0.1l-0.1,0.1l0.1,0l-0.1,0l0.1,0.1l-0.1,0l0.1,0.1l-0.1,0l0.1,0.1l0,0.1l0,0.1l0,0.1l0.1,0.1l0,0.1
				c0,0,0.8,0.1,1.3,0.2c0.6,0.1,1.8,0.3,1.9,0.3c0.1,0,0.3,0.1,0.3,0.2c0,0.1-0.1,0.4-0.1,0.4l-0.1,0.1l0,0.4c0,0-0.1,0-0.2,0
				c-0.1,0-1.1,0-1.6-0.1c-0.5,0-1.4-0.1-1.4-0.1l0,0.4c0,0,0,0.1-0.2,0.1c-0.2,0-1.9-0.1-2.4-0.1c-0.5,0-2.2-0.2-2.2-0.2
				s0.6,0.2,0.9,0.3c0.2,0.1,0.9,0.3,0.9,0.3s0.6,0.1,0.7,0.2c0.1,0,1.1,0.4,1.4,0.5c0.3,0.1,1.1,0.4,1.1,0.4c0,0,0.1,0.1,0,0.1
				c0,0-0.1,0.1-0.1,0.1l0,0.1c0,0,0,0.1,0,0.1c0,0.1-0.1,0.1-0.1,0.2c0,0.1-0.1,0.2-0.1,0.2c0,0-0.1,0-0.1,0c0,0,0.2,0.2,0.2,0.4
				c0,0.2-0.3,0.5-0.9,0.7c-0.6,0.2-1.3,0.2-1.7,0.2c-0.4,0-0.8,0.1-0.8,0.1l0,0.3c0,0,1.1,0.3,1.4,0.4c0.4,0.1,1.7,0.6,1.7,1.3
				c-0.1,0.6-1.2,0.9-1.4,1c-0.5,0.1-1.9,0.2-1.9,0.2l0,0.2c0,0,1.2,0.3,1.8,0.6c0.6,0.3,1.3,0.7,1.3,1.3c-0.1,0.6-1.2,0.9-1.7,1
				c-0.5,0.1-1.4,0.2-1.4,0.2s0.9,0.3,1.4,0.5c0.5,0.2,1.5,0.7,1.4,1.4c-0.1,0.9-2.6,1.2-2.6,1.2s1,0.4,1.4,0.6
				c0.4,0.2,0.9,0.6,0.8,1.1c0,0.4-0.6,0.7-0.6,0.7s0.3,0.3,0.3,0.4c0,0.1-0.1,0.2-0.2,0.3c-0.1,0.1-0.6,0.2-0.6,0.2l0,0.1
				c0,0-0.1,0.1-0.3,0.1c-0.2,0-0.5,0-0.5,0l0,0l0.1,0l0,0c0,0,0,0.1,0,0.1c0,0,0,0.2,0,0.2c0,0-0.1,0.1-0.1,0.1
				c0,0-0.2,0.1-0.4,0.1c-0.2,0-0.5,0.1-0.5,0.1l0.1,0l0,0.1l0,0.1l-0.1,0.1l0,0c0,0,0.1,0,0.1,0c0,0-0.1,0.1-0.1,0.1l0,0.1
				c0,0,0.1,0,0.1,0c0,0,0,0.1,0,0.1l0,0.1c0,0,0,0,0,0c0,0-0.1,0.1-0.1,0.1l0,0.1c0,0,0,0,0,0c0,0,0,0.1,0,0.1l0,0c0,0,0,0,0,0
				c0,0-0.1,0.1-0.1,0.1l0,0.1l0,0l0,0.1l0,0c0,0,0,0,0,0.1c0,0-0.1,0.1-0.1,0.1l0,0.1c0,0,0,0,0,0c0,0-0.1,0.1-0.1,0.1l0,0
				c0,0,0,0,0,0.1c0,0.1,0,0.1,0,0.1l0,0c0,0,0,0,0,0.1c0,0,0,0.1,0,0.1l0,0.1c0,0,0.1,0,0.1,0.1c0,0-0.1,0.1-0.1,0.1l0,0.1
				c0,0,0,0,0,0.1c0,0,0,0.1,0,0.1l0,0c0,0,0,0,0,0.1c0,0,0,0,0,0l0,0.1c0,0,0,0,0,0.1c0,0-0.1,0.1-0.1,0.1l0,0c0,0,0.1,0,0.1,0.1
				c0,0-0.1,0.1-0.1,0.1l0,0c0,0,0,0,0,0.1c0,0,0,0.1,0,0.1l0,0c0,0,0,0,0,0c0,0-0.1,0.1-0.1,0.1l0,0.1c0,0,0.1,0,0.1,0.1
				c0,0,0,0.1,0,0.1l0,0.1c0,0,0,0,0,0.1c0,0,0,0.1,0,0.1l0,0.1c0,0,0,0,0,0.1c0,0,0,0.1,0,0.1l0,0c0,0,0,0,0,0.1c0,0,0,0.1,0,0.1
				l0,0c0,0,0,0,0,0c0,0,0,0.1,0,0.1l0,0.1c0,0,0,0,0,0.1c0,0,0,0.1,0,0.1l0,0c0,0,0,0.1,0,0.1c0,0,0,0.1,0,0.1l0,0l0,0.1
				c0,0,0.3,0.1,0.3,0.4c0,0.2-0.1,0.6-0.1,0.6s0.3,0.1,0.5,0.2c0.2,0.1,0.4,0.3,0.4,0.4c0,0.1,0,0.4,0,0.4l0,0.1l0.1,0.1
				c0,0,0,0.1-0.1,0.1c-0.1,0-0.2,0.2-0.4,0.2c-0.2,0.1-0.5,0.2-0.5,0.2s-0.7,6.8-0.8,7.4c-0.1,0.5-0.5,4.2-0.5,4.2
				c0,0,0,0.2-0.1,0.3c-0.1,0.1-1.2,0.8-4.1,0.5c-1-0.1-1.1-0.1-1.3-0.2c-0.2,0-0.7-0.1-0.7-0.1c-0.1,0-0.3-0.1-0.3-0.1
				c-0.1,0-0.3-0.1-0.4-0.1c-0.1,0-0.1,0-0.2,0c-0.1,0-0.2,0-0.2,0c-0.1,0-2-0.4-2.3-0.5c-0.3-0.1-2.6-0.6-2.7-0.6
				c0,0-0.1-0.1-0.1-0.1c0,0,0-0.2,0-0.2s0-0.1-0.1-0.1c-0.1,0-0.2-0.2-0.3-0.2c0,0,0,0-0.1,0c0,0-0.1,0-0.2,0
				c-0.1,0-0.6-0.2-1.3-0.7c-0.6-0.5-0.6-1-0.5-1.2c0.1-0.7,1.5-0.9,1.7-2.7c0.2-1.8-1.1-2.1-1-3.1c0.1-0.8,1.1-1.1,1.1-1.1
				s0.1-0.4,0.6-0.7c0.4-0.2,1.4-0.7,1.4-0.7s0.6-0.5,0.6-0.6c0.1-0.1,0.2-0.1,0.4,0c0.1,0,2.1,0.1,2.1,0.1l0-0.4
				c0,0-0.3-0.1-0.5-0.3c-0.2-0.1-0.4-0.3-0.4-0.4l0-0.2c0-0.1,0.1-0.1,0.1-0.1s0-0.2,0.1-0.2c0-0.1,0.1-0.2,0.1-0.2
				c0.1-0.1,0.2-0.1,0.2-0.1c0.1,0,0.3,0,0.3,0s0,0,0-0.1c0-0.1,0.1-0.1,0.1-0.1c0.1,0,0.2,0,0.2,0s0-0.3,0-0.5
				c0-0.4,0.4-0.4,0.4-0.4l0-0.1l0-0.1c0,0,0-0.1,0-0.1c0,0,0.1-0.1,0.1-0.1s-0.1-0.1,0-0.1c0,0,0.1-0.1,0.1-0.1s0,0,0-0.1
				c0-0.1,0-0.1,0-0.1s0-0.1,0-0.1c0,0,0-0.1,0-0.1s0-0.1,0-0.1c0,0,0-0.1,0-0.1s0,0,0-0.1c0,0,0-0.1,0-0.1s0,0,0-0.1
				c0,0,0-0.1,0-0.1s0,0,0-0.1c0,0,0-0.1,0-0.1s0,0,0-0.1c0,0,0.1,0,0.1,0s-0.1-0.1-0.1-0.1c0,0,0.1-0.1,0.1-0.1s0,0,0-0.1
				c0,0,0-0.1,0-0.1s-0.1,0,0-0.1c0,0,0-0.1,0-0.1s0-0.1,0-0.1c0,0,0-0.1,0-0.1s0-0.1,0-0.1c0,0,0-0.1,0-0.1s0-0.1,0-0.1
				s0-0.1,0-0.1s0,0,0-0.1c0,0,0.1-0.1,0.1-0.1s0-0.1,0-0.1c0,0,0.1,0,0.1,0s0-0.1,0-0.1c0,0,0-0.1,0-0.1s-0.1,0,0-0.1
				c0,0,0.1-0.1,0.1-0.1s0-0.1,0-0.1c0,0,0-0.1,0-0.1s0-0.1,0-0.1c0,0,0-0.1,0-0.1s0,0,0-0.1c0,0,0-0.1,0-0.1s0,0,0-0.1
				c0-0.1,0.1-0.1,0.1-0.1s0-0.1,0-0.1c0,0,0-0.1,0-0.1s0,0,0-0.1c0,0,0-0.1,0-0.1l0-0.1c0,0-0.4-0.1-0.6-0.2
				c-0.2-0.1-0.3-0.3-0.3-0.3s0-0.3,0-0.4c0-0.1,0.1-0.1,0.1-0.1l0,0c0,0-0.2,0-0.4-0.1c-0.2-0.1-0.3-0.1-0.3-0.1l0-0.1
				c0,0-0.3-0.1-0.4-0.2c-0.1-0.1-0.2-0.2-0.2-0.2s0-0.1,0-0.2c0,0,0-0.1,0-0.1s-0.1-0.1-0.1-0.3c0-0.4,0.6-0.7,1.2-0.7
				c0.6-0.1,1.3-0.1,1.3-0.1l0-0.1l0-0.1c0,0-0.1-0.1-0.1-0.1c0,0,0.1,0,0.1,0l0-0.1c0,0-0.8-0.1-1.2-0.2c-0.4-0.1-1.3-0.3-1.2-0.9
				c0.1-0.5,0.9-0.5,1.5-0.5c0.6,0,1,0.1,1,0.1s0-0.7,0.1-0.9c0-0.2,0.2-0.2,0.5-0.3c0.2,0,0.3,0,0.3,0l0-0.3c0,0-1.2-0.1-1.6-0.2
				c-0.4-0.1-1.6-0.2-1.5-0.9c0.1-0.6,1.1-0.5,1.4-0.5c0.3,0,1.9,0.2,1.9,0.2l0.1-1.8c0,0-0.5-0.1-0.8-0.1c-0.3,0-1-0.1-1.3-0.1
				c-0.3,0-1.1-0.2-1.1-0.7c0.1-0.5,0.8-0.5,1-0.5c0.2,0,1,0.1,1.3,0.1c0.3,0,1,0,1,0l0.1-1.8c0,0-1.5-0.2-1.8-0.3
				c-0.3-0.1-1.5-0.2-1.5-0.8c0-0.5,1-0.6,1.3-0.5c0.3,0,2.1,0.1,2.1,0.1l0-0.2c0,0-0.9-0.1-1.7-0.2c-0.8-0.1-1.2-0.2-1.5-0.6
				c-0.1-0.1-0.1-0.4-0.1-0.4c0-0.1,0.2-0.2,0.2-0.2s-0.1-0.2-0.1-0.3c0-0.2,0-0.3,0-0.3l0.1-0.1l0,0l0-0.1c0,0,0.9-0.1,1.3-0.2
				c0.4-0.1,1.2-0.1,1.4-0.2c0.2,0,0.6,0,0.6,0s0.5,0,0.9-0.1c0.3,0,1-0.1,1-0.1s-1.1-0.2-1.5-0.2c-0.4-0.1-2-0.3-2-0.3l0.1-0.5
				c0,0-1.4-0.2-2.1-0.3c-0.7-0.1-2.1-0.3-2.3-0.4s-0.2-0.1-0.2-0.1c0-0.1,0-0.3,0-0.3l0-0.1l0,0c0,0,0-0.4,0-0.5
				c0-0.1,0.1-0.2,0.3-0.1c0.2,0,0.7,0,0.7,0l0.1,0l0.1,0l0-0.1l0,0l0,0l0-0.1l0.1-0.1l-0.1-0.1l0.1-0.1l-0.1-0.1l0.1-0.1l-0.1-0.1
				l0.1,0L27.3,99l0-0.1l-0.1-0.1l0.1-0.1l-0.1-0.1l0.1-0.1l0-0.1l0.1-0.1l-0.1-0.1l0.1-0.1l-0.1-0.1l0.1-0.1l-0.1,0l0.1-0.1
				l-0.1-0.1l0.1-0.1l-0.1-0.1l0.1-0.1l-0.1-0.1l0.1-0.1l-0.1-0.1l0.1-0.1l0,0c0,0,0.1-0.1,0.1-0.1c0.1,0,0.2,0,0.2,0s0.2,0,0.4,0
				c0.2,0,0.4,0,0.4,0l0.1,0.1l0,0.1l0,0L28.8,98l0.1,0.1l-0.1,0l0.1,0.1l-0.1,0.1l0.1,0.1l-0.1,0l0.1,0.1l-0.1,0.1l0.1,0.1
				l-0.1,0.1l0.1,0.1l-0.1,0.1l0,0.1l-0.1,0l0.1,0.1l-0.1,0l0.1,0.1l-0.1,0l0.1,0.1l-0.1,0l0.1,0.1l-0.1,0l0.1,0.1l-0.1,0l0.1,0.1
				l-0.1,0.1l0.1,0.1l-0.1,0l0,0.1l0,0.1l0,0.1c0,0,0.1,0.1,0.2,0.1c0.1,0,1.4,0.1,2.4,0.2c1,0.1,1.8,0.2,1.8,0.2s0,0,0-0.1
				c0,0,0-0.1,0.3-0.1c0.2,0,1.1,0.1,1.1,0.1l0-0.1l-0.1-0.1l0-0.8c0,0,0.2,0,0.4,0c0.2,0,0.5,0,0.5,0l0.1-0.9l0.1,0l0,0
				c0,0,0-0.1,0-0.1c0,0,0-0.1,0.1-0.1c0.1,0,0.2-0.1,0.2-0.1L36.1,98z"/>
			<g>
				<path class="st8" d="M37.5,87.7c2.3,0,4.2,0.9,4.7,2.4c0.6,1.9-1.3,4.9-5.2,6.3c-1.1,0.4-2.1,0.5-3.2,0.5
					c-2.3,0-4.2-0.9-4.7-2.4c-0.6-1.9,1.3-4.9,5.2-6.3C35.4,87.9,36.5,87.7,37.5,87.7 M37.5,84.4c-1.4,0-2.8,0.2-4.2,0.7
					c-5.3,1.8-8.6,6.5-7.2,10.4c1,2.9,4.1,4.6,7.9,4.6c1.4,0,2.8-0.2,4.2-0.7c5.3-1.8,8.6-6.5,7.2-10.4
					C44.4,86.1,41.3,84.4,37.5,84.4L37.5,84.4z"/>
			</g>
		</g>
	</g>
	<g>
		<g class="st2">
			<path class="st8" d="M99.8,79.6h28.6l19,4.3c0,0,0.6-2.5,1.8-2.3c0.2,0,0.7,1,0.7,1l12.6,1.3v1.9c0,0-4.5,0.8-5.6,3.5
				c-1.1,2.8-0.9,3.5-0.5,6c-3-3.3-4.2-5.4-4.2-5.4s-1.6,1.2-2,1.1c-1.3-0.2-2.4-0.9-2.5-1c-0.3-0.2-0.2-2.2-0.2-2.2l-0.5,0.6
				l-18.6-3.5H99.8V79.6z"/>
			<path class="st8" d="M176.1,137.1c0.4-0.2,0.5-0.6,0.5-0.6s0-0.2,0-0.2l-0.1,0c0,0-0.5,0.4-0.9,0.5c-0.4,0.1-0.9,0.3-0.9,0.3
				s-0.1,0-0.1,0.1c0,0,0.1,0.1,0.2,0.1c0.1,0,0.3,0.1,0.6,0C175.6,137.3,175.8,137.2,176.1,137.1 M160.9,114.8L160.9,114.8
				c0,0-0.2,0-0.2,0.1c-0.1,0-0.2,0.1-0.2,0.1s0.2,0.1,0.2,0.1c0.1,0,0.2,0,0.2,0L160.9,114.8z M161.3,111.5c0,0-0.3,0.1-0.6,0.2
				c-0.2,0.1-0.5,0.2-0.5,0.2s0.4,0.1,0.5,0.1c0.2,0,0.6,0,0.6,0L161.3,111.5z M161,108.5c0,0-0.3,0-0.4,0.1
				c-0.2,0.1-0.4,0.1-0.4,0.1s0.3,0,0.4,0.1c0.2,0,0.4,0.1,0.4,0.1L161,108.5z M164.3,98c0,0,0.1,0,0.2,0.1c0.1,0,0.1,0.1,0.1,0.1
				c0,0,0,0.1,0,0.1l0,0l0.1,0l0.1,0.9c0,0,0.2,0,0.5,0c0.2,0,0.4,0,0.4,0l0,0.8l-0.1,0.1l0,0.1c0,0,0.9-0.1,1.1-0.1
				c0.2,0,0.3,0.1,0.3,0.1c0,0,0,0.1,0,0.1s0.8-0.1,1.8-0.2c1-0.1,2.3-0.2,2.4-0.2c0.1,0,0.2-0.1,0.2-0.1l0-0.1l0-0.1l0-0.1l-0.1,0
				l0.1-0.1l-0.1-0.1l0.1-0.1l-0.1,0l0.1-0.1l-0.1,0l0.1-0.1l-0.1,0l0.1-0.1l-0.1,0l0.1-0.1l-0.1,0l0.1-0.1l-0.1,0l0-0.1l-0.1-0.1
				l0.1-0.1l-0.1-0.1l0.1-0.1l-0.1-0.1l0.1-0.1l-0.1,0l0.1-0.1l-0.1-0.1l0.1-0.1l-0.1,0l0.1-0.1l-0.1-0.1l0,0l0-0.1l0.1-0.1
				c0,0,0.2,0,0.4,0c0.2,0,0.4,0,0.4,0s0.1,0,0.2,0c0.1,0,0.1,0.1,0.1,0.1l0,0l0.1,0.1l-0.1,0.1l0.1,0.1l-0.1,0.1l0.1,0.1l-0.1,0.1
				l0.1,0.1l-0.1,0.1l0.1,0.1l-0.1,0l0.1,0.1l-0.1,0.1l0.1,0.1l-0.1,0.1l0.1,0.1l0,0.1l0.1,0.1l-0.1,0.1l0.1,0.1l-0.1,0.1l0,0.1
				l-0.1,0.1l0.1,0l-0.1,0.1l0.1,0.1l-0.1,0.1l0.1,0.1l-0.1,0.1l0.1,0.1l0,0.1l0,0l0,0l0,0.1l0.1,0l0.1,0c0,0,0.5,0,0.7,0
				c0.2,0,0.3,0.1,0.3,0.1c0,0.1,0,0.5,0,0.5l0,0l0,0.1c0,0,0,0.2,0,0.3c0,0.1-0.1,0.1-0.2,0.1s-1.6,0.3-2.3,0.4
				c-0.7,0.1-2.1,0.3-2.1,0.3l0.1,0.5c0,0-1.5,0.2-2,0.3c-0.4,0.1-1.5,0.2-1.5,0.2s0.6,0.1,1,0.1c0.3,0,0.9,0.1,0.9,0.1s0.4,0,0.6,0
				c0.2,0,1,0.1,1.4,0.2c0.4,0.1,1.3,0.2,1.3,0.2l0,0.1l0,0l0.1,0.1c0,0,0,0.1,0,0.3c0,0.2-0.1,0.3-0.1,0.3s0.1,0.1,0.2,0.2
				c0,0.1,0,0.3-0.1,0.4c-0.3,0.4-0.7,0.4-1.5,0.6c-0.8,0.1-1.7,0.2-1.7,0.2l0,0.2c0,0,1.9-0.1,2.1-0.1c0.3,0,1.3,0,1.3,0.5
				c0,0.7-1.2,0.8-1.5,0.8c-0.3,0.1-1.8,0.3-1.8,0.3l0.1,1.8c0,0,0.7,0,1,0c0.3,0,1.1-0.1,1.3-0.1c0.2,0,1,0,1,0.5
				c0.1,0.5-0.8,0.7-1.1,0.7c-0.3,0-1,0.1-1.3,0.1c-0.3,0-0.8,0.1-0.8,0.1l0.1,1.8c0,0,1.6-0.1,1.9-0.2c0.3,0,1.3-0.1,1.4,0.5
				c0.1,0.6-1.1,0.8-1.5,0.9c-0.4,0.1-1.6,0.2-1.6,0.2l0,0.3c0,0,0.1,0,0.3,0c0.2,0,0.4,0.1,0.5,0.3c0,0.2,0.1,0.9,0.1,0.9
				s0.4,0,1-0.1c0.6,0,1.4,0,1.5,0.5c0.1,0.5-0.9,0.8-1.2,0.9c-0.3,0.1-1.2,0.2-1.2,0.2l0,0.1c0,0,0.1,0,0.1,0c0,0-0.1,0.1-0.1,0.1
				l0,0.1l0,0.1c0,0,0.7,0,1.3,0.1c0.6,0.1,1.1,0.3,1.2,0.7c0,0.2-0.1,0.3-0.1,0.3s0,0,0,0.1s0,0.2,0,0.2s-0.1,0.1-0.2,0.2
				c-0.1,0.1-0.4,0.2-0.4,0.2l0,0.1c0,0-0.1,0.1-0.3,0.1c-0.2,0.1-0.4,0.1-0.4,0.1l0,0c0,0,0.1,0,0.1,0.1c0,0.1,0,0.4,0,0.4
				s-0.1,0.2-0.3,0.3c-0.2,0.1-0.6,0.2-0.6,0.2l0,0.1c0,0,0,0,0,0.1c0,0,0,0.1,0,0.1s0,0.1,0,0.1c0,0,0,0.1,0,0.1s0.1,0.1,0.1,0.1
				c0,0.1,0,0.1,0,0.1s0,0.1,0,0.1c0,0,0,0.1,0,0.1s0,0,0,0.1c0,0,0,0.1,0,0.1s0,0,0,0.1c0,0,0,0.1,0,0.1s0.1,0,0.1,0.1
				c0,0,0,0.1,0,0.1s0,0,0,0.1c0,0,0,0.1,0,0.1s0,0,0.1,0c0,0,0,0.1,0,0.1s0.1,0,0.1,0.1c0,0,0,0.1,0,0.1s0,0,0,0.1s0,0.1,0,0.1
				s0,0,0,0.1c0,0,0,0.1,0,0.1s0,0.1,0,0.1c0,0,0,0.1,0,0.1s0,0,0,0.1c0,0,0,0.1,0,0.1s0,0,0,0.1c0,0,0,0.1,0,0.1s0.1,0,0.1,0.1
				c0,0-0.1,0.1-0.1,0.1s0,0,0.1,0c0,0,0,0.1,0,0.1s0,0,0,0.1c0,0,0,0.1,0,0.1s0,0,0,0.1c0,0,0,0.1,0,0.1s0,0,0,0.1c0,0,0,0.1,0,0.1
				s0,0,0,0.1c0,0,0,0.1,0,0.1s0,0.1,0,0.1c0,0,0,0.1,0,0.1s0,0,0,0.1c0,0.1,0,0.1,0,0.1s0.1,0,0.1,0.1c0,0,0,0.1,0,0.1
				s0.1,0,0.1,0.1c0,0,0,0.1,0,0.1l0,0.1l0,0.1c0,0,0.3,0,0.4,0.4c0,0.2,0,0.5,0,0.5s0.1,0,0.2,0c0.1,0,0.1,0,0.1,0.1
				c0,0.1,0,0.1,0,0.1s0.2,0,0.3,0c0.1,0,0.1,0,0.2,0.1c0.1,0.1,0.1,0.2,0.1,0.2c0,0.1,0.1,0.2,0.1,0.2s0.1,0,0.1,0.1l0,0.2
				c0,0.1-0.2,0.3-0.4,0.4c-0.2,0.1-0.5,0.3-0.5,0.3l0,0.4c0,0,2-0.1,2.1-0.1c0.1,0,0.3,0,0.4,0c0.1,0.1,0.6,0.6,0.6,0.6
				s1,0.4,1.4,0.7c0.6,0.3,0.6,0.7,0.6,0.7s1.1,0.4,1.1,1.1c0.1,1-1.2,1.3-1,3.1c0.2,1.7,1.6,2,1.7,2.7c0,0.2,0.1,0.6-0.5,1.2
				c-0.6,0.5-1.2,0.7-1.3,0.7c-0.1,0-0.2,0-0.2,0s0,0-0.1,0c0,0-0.2,0.2-0.3,0.2c-0.1,0-0.1,0.1-0.1,0.1s0,0.2,0,0.2
				c0,0-0.1,0.1-0.1,0.1c0,0-2.3,0.5-2.7,0.6c-0.3,0.1-2.2,0.5-2.3,0.5c-0.1,0-0.1,0-0.2,0c-0.1,0-0.1,0-0.2,0
				c-0.1,0-0.4,0.1-0.4,0.1c-0.1,0-0.3,0.1-0.3,0.1c-0.1,0-0.6,0.1-0.7,0.1c-0.2,0-0.3,0.1-1.3,0.2c-2.9,0.3-3.9-0.4-4.1-0.5
				c-0.1-0.1-0.1-0.2-0.1-0.3c0,0-0.5-3.7-0.5-4.2c-0.1-0.5-0.8-7.4-0.8-7.4s-0.3-0.1-0.5-0.2c-0.2-0.1-0.3-0.2-0.4-0.2
				c-0.1,0-0.1-0.1-0.1-0.1l0.1-0.1l0-0.1c0,0,0-0.3,0-0.4c0-0.1,0.2-0.3,0.4-0.4c0.2-0.1,0.5-0.2,0.5-0.2s-0.1-0.4-0.1-0.6
				c0-0.2,0.3-0.4,0.3-0.4l0-0.1l0,0c0,0,0,0,0-0.1c0,0,0-0.1,0-0.1l0,0c0,0,0,0,0-0.1c0,0,0-0.1,0-0.1l0-0.1c0,0,0,0,0-0.1
				c0,0,0,0,0,0l0,0c0,0,0,0,0-0.1c0,0,0-0.1,0-0.1l0,0c0,0,0,0,0-0.1c0,0,0-0.1,0-0.1l0-0.1c0,0,0,0,0-0.1c0,0,0-0.1,0-0.1l0-0.1
				c0,0,0,0,0-0.1c0,0,0.1-0.1,0.1-0.1l0-0.1c0,0-0.1,0-0.1-0.1c0,0,0,0,0,0l0,0c0,0,0-0.1,0-0.1c0,0,0-0.1,0-0.1l0,0
				c0,0-0.1,0-0.1-0.1c0,0,0.1-0.1,0.1-0.1l0,0c0,0-0.1,0-0.1-0.1c0,0,0-0.1,0-0.1l0-0.1c0,0,0,0,0,0c0,0,0-0.1,0-0.1l0,0
				c0,0,0,0,0-0.1c0,0,0-0.1,0-0.1l0-0.1c0,0-0.1,0-0.1-0.1c0,0,0.1-0.1,0.1-0.1l0-0.1c0,0,0,0,0-0.1c0,0,0-0.1,0-0.1l0,0
				c0,0,0,0,0-0.1c0-0.1,0-0.1,0-0.1l0,0c0,0-0.1-0.1-0.1-0.1c0,0,0,0,0,0l0-0.1c0,0-0.1-0.1-0.1-0.1s0-0.1,0-0.1l0,0l0-0.1l0,0
				l0-0.1c0,0-0.1,0-0.1-0.1c0,0,0,0,0,0l0,0c0,0,0,0,0-0.1c0,0,0,0,0,0l0-0.1c0,0-0.1,0-0.1-0.1c0,0,0,0,0,0l0-0.1c0,0,0-0.1,0-0.1
				c0,0,0.1,0,0.1,0l0-0.1c0,0-0.1-0.1-0.1-0.1c0,0,0.1,0,0.1,0l0,0l-0.1-0.1l0-0.1l0-0.1l0.1,0c0,0-0.3,0-0.5-0.1
				c-0.2,0-0.4-0.1-0.4-0.1c0,0-0.1-0.1-0.1-0.1c0,0,0-0.2,0-0.2c0,0,0-0.1,0-0.1l0,0l0.1,0l0,0c0,0-0.2,0-0.5,0
				c-0.2,0-0.3-0.1-0.3-0.1l0-0.1c0,0-0.5-0.1-0.6-0.2c-0.1-0.1-0.2-0.2-0.2-0.3c0-0.1,0.3-0.4,0.3-0.4s-0.5-0.3-0.6-0.7
				c-0.1-0.6,0.5-0.9,0.8-1.1c0.4-0.2,1.4-0.6,1.4-0.6s-2.5-0.3-2.6-1.2c-0.1-0.7,0.9-1.2,1.4-1.4c0.5-0.2,1.4-0.5,1.4-0.5
				s-1-0.1-1.4-0.2c-0.5-0.1-1.6-0.4-1.7-1c-0.1-0.6,0.7-1,1.3-1.3c0.6-0.3,1.8-0.6,1.8-0.6l0-0.2c0,0-1.4-0.1-1.9-0.2
				c-0.2-0.1-1.4-0.3-1.4-1c-0.1-0.7,1.3-1.2,1.7-1.3c0.4-0.1,1.4-0.4,1.4-0.4l0-0.3c0,0-0.5,0-0.8-0.1c-0.4,0-1.1-0.1-1.7-0.2
				c-0.6-0.2-0.8-0.5-0.9-0.7c0-0.2,0.2-0.4,0.2-0.4c0,0-0.1,0-0.1,0c0,0-0.1-0.1-0.1-0.2c0-0.1-0.1-0.2-0.1-0.2c0-0.1,0-0.1,0-0.1
				l0-0.1c0,0-0.1-0.1-0.1-0.1c0,0,0-0.1,0-0.1c0,0,0.8-0.3,1.1-0.4c0.3-0.1,1.2-0.4,1.4-0.5c0.1,0,0.7-0.2,0.7-0.2s0.6-0.2,0.9-0.3
				c0.2-0.1,0.9-0.3,0.9-0.3s-1.7,0.2-2.2,0.2c-0.5,0-2.2,0.1-2.4,0.1c-0.2,0-0.2-0.1-0.2-0.1l0-0.4c0,0-0.9,0.1-1.4,0.1
				c-0.5,0-1.5,0.1-1.6,0.1c-0.1,0-0.2,0-0.2,0l0-0.4l-0.1-0.1c0,0,0-0.3-0.1-0.4c0-0.1,0.2-0.1,0.3-0.2c0.1,0,1.3-0.2,1.9-0.3
				c0.6-0.1,1.3-0.2,1.3-0.2l0-0.1l0.1-0.1l0-0.1l0-0.1l0-0.1l0.1-0.1l-0.1,0l0.1-0.1l-0.1,0l0.1-0.1l-0.1,0l0.1,0l-0.1-0.1l0-0.1
				l0,0l0-0.1l0,0l0-0.1l-0.1,0l0.1-0.1l-0.1,0l0-0.1l-0.1-0.1l0.1-0.1l-0.1,0l0-0.1l-0.1,0l0-0.1l-0.1,0l0.1-0.1l-0.1,0l0.1-0.1
				l-0.1,0l0.1-0.1l-0.1,0l0.1-0.1l0-0.1l0.1-0.1c0,0,0.2,0,0.5-0.1c0.3,0,0.5,0,0.5,0l0.1,0l0.1,0.1l0,0l0.1,0l-0.1,0.1l0.1,0.1
				l0,0l0.1,0.1l-0.1,0.1l0.1,0.1l0,0.1l0.1,0.1l0,0.1l0.1,0.1l-0.1,0.1l0.1,0.1l-0.1,0l0.1,0.1l-0.1,0.1l0.1,0.1l-0.1,0l0.1,0.1
				l0,0.1l0.1,0.1l0,0.1l0.1,0.1l-0.1,0.1l0.1,0l0,0.1l0.1,0.1l-0.1,0.1l0.1,0.1l-0.1,0.1l0.1,0.1l0,0.1l0,0l0,0l0.1,0l0.1,0.1
				c0,0,0.5,0,0.9-0.1c0.4,0,0.9-0.1,0.9-0.1l0-0.1l0-0.1l-0.1,0l0.1-0.1l0,0l0-0.1l0,0l0-0.1l0,0l0-0.1l-0.1-0.1l0-0.1l-0.1-0.1
				l0.1-0.1l-0.1-0.1l0-0.1l0-0.1l0-0.1l-0.1,0l0-0.1l0-0.1l0-0.1l-0.1-0.1l0-0.1l-0.1,0l0.1-0.1l-0.1,0l0-0.1l-0.1-0.1l0.1-0.1
				l-0.1-0.1l0,0l0-0.1l0.1-0.1c0,0,0.1-0.1,0.2-0.1c0,0,0.9-0.1,1-0.1c0,0,0.2,0.1,0.2,0.1l0.1,0.1l0,0.1l0.1,0.1l-0.1,0.1l0.1,0.1
				l-0.1,0.1l0.1,0l-0.1,0.1l0.1,0l-0.1,0.1l0.1,0l0,0.1l0,0l0.6-0.1l-0.1-1l0.1,0c0,0-0.1-0.1-0.1-0.1c0-0.1,0.2-0.2,0.3-0.2
				c0.1,0,0.2,0,0.4-0.1c0.2,0,0.4,0,0.4,0l0.1,0L164.3,98z"/>
			<g>
				<path class="st8" d="M162.5,87.7L162.5,87.7c1,0,2.1,0.2,3.2,0.5c1.9,0.6,3.5,1.8,4.5,3.2c0.4,0.6,1.1,1.9,0.7,3.1
					c-0.5,1.4-2.4,2.4-4.7,2.4c-1,0-2.1-0.2-3.2-0.5c-3.9-1.3-5.8-4.3-5.2-6.3C158.2,88.6,160.1,87.7,162.5,87.7 M162.5,84.4
					c-3.7,0-6.9,1.7-7.9,4.6c-1.3,4,1.9,8.6,7.2,10.4c1.4,0.5,2.9,0.7,4.2,0.7c3.7,0,6.9-1.7,7.9-4.6c1.3-4-1.9-8.6-7.2-10.4
					C165.3,84.6,163.9,84.4,162.5,84.4L162.5,84.4z"/>
			</g>
		</g>
	</g>
</g>
<g id="PROTO_2" class="st0">
	<path class="st9" d="M182.1,200H17.9C8,200,0,192,0,182.1V17.9C0,8,8,0,17.9,0h164.2C192,0,200,8,200,17.9v164.2
		C200,192,192,200,182.1,200z"/>
	<g id="cusco_logo_2_">
		<g id="logo_2_" class="st2">
			<path class="st3" d="M161.8,188.7c0,0.1,0,0.2,0,0.3h3.4c0-0.1,0-0.2,0-0.3H161.8z"/>
			<path class="st3" d="M165.2,189.3h-3.5c0,0.1,0,0.2,0,0.3h3.7C165.4,189.5,165.3,189.4,165.2,189.3"/>
			<path class="st3" d="M168.3,191h-5.7c0.1,0.1,0.2,0.2,0.4,0.3h5.1L168.3,191z"/>
			<path class="st3" d="M170.8,186.1l0.2-0.3h-5c0,0-0.5,0-0.9,0.1c-0.2,0.1-0.3,0.1-0.6,0.2H170.8z"/>
			<path class="st3" d="M162.2,190.5c0.1,0.1,0.1,0.2,0.2,0.3h6l0.2-0.3H162.2z"/>
			<path class="st3" d="M162,190.1C162,190.1,162,190.2,162,190.1l6.7,0.1l0.2-0.4h-7C161.9,189.9,161.9,190,162,190.1"/>
			<path class="st3" d="M163.5,191.6c0.2,0.1,0.6,0.3,0.9,0.3c0.4,0,0.5,0,0.9,0h2.6l0.2-0.3H163.5z"/>
			<path class="st3" d="M163.9,186.3C163.9,186.3,163.9,186.4,163.9,186.3c0,0-0.2,0.1-0.5,0.3h7.1l0.2-0.3H163.9z"/>
			<path class="st3" d="M163,186.9c-0.1,0.1-0.2,0.2-0.4,0.3h7.5l0.2-0.3H163z"/>
			<path class="st3" d="M162.4,187.5c-0.1,0.1-0.2,0.2-0.2,0.3h7.7l0.2-0.3H162.4z"/>
			<path class="st3" d="M162,188.1c-0.1,0.1-0.1,0.2-0.2,0.3h3.5c0.1-0.1,0.2-0.2,0.5-0.3H162z"/>
			<polygon class="st3" points="171.4,184.6 171.5,184.6 167.4,192.9 167.3,192.9 			"/>
		</g>
		<g id="cusco_2_" class="st2">
			<path d="M176.7,187l0.1-0.9h0.4c0.2,0,0.3,0.1,0.3,0.3c0,0.2-0.2,0.3-0.4,0.3h-0.1l0,0.3H176.7z M177.2,186.6
				c0.1,0,0.1,0,0.1-0.1c0-0.1-0.1-0.1-0.1-0.1h-0.1l0,0.2H177.2z"/>
			<path d="M177.9,186.7l0,0.3h-0.3l0.1-0.9h0.4c0.3,0,0.3,0.1,0.3,0.2c0,0.1-0.1,0.2-0.2,0.2c0.1,0,0.1,0.1,0.1,0.2
				c0,0.1,0,0.2,0,0.2l0,0H178c0,0,0-0.1,0-0.2C178.1,186.8,178.1,186.7,177.9,186.7L177.9,186.7z M177.9,186.5h0.1
				c0.1,0,0.1,0,0.1-0.1c0-0.1,0-0.1-0.1-0.1h-0.1L177.9,186.5z"/>
			<path d="M179.3,186.6c0,0.3-0.3,0.5-0.5,0.5c-0.3,0-0.4-0.2-0.3-0.5c0-0.3,0.2-0.4,0.5-0.4C179.2,186.1,179.3,186.4,179.3,186.6
				 M178.7,186.6c0,0.1,0,0.2,0.1,0.2c0.1,0,0.2-0.1,0.2-0.2c0-0.1,0-0.2-0.1-0.2C178.8,186.3,178.7,186.5,178.7,186.6"/>
			<path d="M180.1,187h-0.2l0-0.1c-0.1,0.1-0.1,0.1-0.3,0.1c-0.2,0-0.4-0.1-0.3-0.4c0-0.3,0.2-0.5,0.5-0.5c0.2,0,0.3,0.1,0.3,0.3
				h-0.3c0-0.1,0-0.1-0.1-0.1c-0.1,0-0.2,0.1-0.2,0.3c0,0.1,0,0.2,0.1,0.2c0.1,0,0.1,0,0.2-0.1h-0.1l0-0.2h0.4L180.1,187z"/>
			<path d="M180.6,186.7l0,0.3h-0.3l0.1-0.9h0.4c0.3,0,0.3,0.1,0.3,0.2c0,0.1-0.1,0.2-0.2,0.2c0.1,0,0.1,0.1,0.1,0.2
				c0,0.1,0,0.2,0,0.2l0,0h-0.3c0,0,0-0.1,0-0.2C180.8,186.8,180.8,186.7,180.6,186.7L180.6,186.7z M180.6,186.5h0.1
				c0.1,0,0.1,0,0.1-0.1c0-0.1,0-0.1-0.1-0.1h-0.1L180.6,186.5z"/>
			<polygon points="181.1,187 181.3,186.2 181.9,186.2 181.9,186.4 181.5,186.4 181.5,186.5 181.8,186.5 181.8,186.7 181.4,186.7 
				181.4,186.8 181.8,186.8 181.8,187 			"/>
			<path d="M182.4,186.4C182.4,186.4,182.4,186.4,182.4,186.4C182.4,186.3,182.4,186.3,182.4,186.4c-0.2-0.1-0.2-0.1-0.2,0
				c0,0.1,0.5,0,0.4,0.4c0,0.2-0.2,0.3-0.4,0.3c-0.2,0-0.3-0.1-0.3-0.3h0.3c0,0,0,0.1,0,0.1c0,0,0,0,0.1,0c0.1,0,0.1,0,0.1-0.1
				c0-0.1-0.5,0-0.4-0.4c0-0.2,0.2-0.3,0.4-0.3c0.2,0,0.3,0.1,0.3,0.3H182.4z"/>
			<path d="M183.2,186.4C183.2,186.4,183.2,186.4,183.2,186.4C183.2,186.3,183.2,186.3,183.2,186.4c-0.2-0.1-0.2-0.1-0.2,0
				c0,0.1,0.5,0,0.4,0.4c0,0.2-0.2,0.3-0.4,0.3c-0.2,0-0.3-0.1-0.3-0.3h0.3c0,0,0,0.1,0,0.1c0,0,0,0,0.1,0c0.1,0,0.1,0,0.1-0.1
				c0-0.1-0.5,0-0.4-0.4c0-0.2,0.2-0.3,0.4-0.3c0.2,0,0.3,0.1,0.3,0.3H183.2z"/>
			<polygon points="183.5,187 183.7,186.2 183.9,186.2 183.8,187 			"/>
			<polygon points="184,186.2 184.3,186.2 184.3,186.7 184.6,186.2 184.8,186.2 184.4,187 184.2,187 			"/>
			<polygon points="184.8,187 184.9,186.2 185.6,186.2 185.6,186.4 185.2,186.4 185.2,186.5 185.5,186.5 185.5,186.7 185.1,186.7 
				185.1,186.8 185.5,186.8 185.5,187 			"/>
			<polygon points="186.1,187 186.2,186.2 186.9,186.2 186.8,186.4 186.5,186.4 186.4,186.5 186.8,186.5 186.7,186.7 186.4,186.7 
				186.4,186.8 186.8,186.8 186.8,187 			"/>
			<path d="M187.6,187.1l-0.1-0.1c0,0-0.1,0-0.2,0c-0.3,0-0.4-0.2-0.3-0.5c0-0.3,0.2-0.4,0.5-0.4c0.3,0,0.4,0.2,0.3,0.4
				c0,0.1-0.1,0.2-0.1,0.3l0.1,0.1L187.6,187.1z M187.4,186.6L187.4,186.6c0.1,0.1,0.1,0,0.1,0c0-0.1,0-0.2-0.1-0.2
				c-0.1,0-0.2,0.1-0.2,0.2c0,0.1,0,0.2,0.1,0.2c0,0,0,0,0,0l-0.1-0.1L187.4,186.6z"/>
			<path d="M187.9,186.2h0.3l-0.1,0.5c0,0.1,0,0.2,0.1,0.2c0.1,0,0.1-0.1,0.1-0.2l0.1-0.5h0.3l-0.1,0.5c0,0.3-0.2,0.4-0.5,0.4
				c-0.2,0-0.4-0.1-0.3-0.4L187.9,186.2z"/>
			<polygon points="188.7,187 188.9,186.2 189.1,186.2 189,187 			"/>
			<path d="M189.1,187l0.1-0.9h0.4c0.2,0,0.3,0.1,0.3,0.3c0,0.2-0.2,0.3-0.4,0.3h-0.1l0,0.3H189.1z M189.6,186.6
				c0.1,0,0.1,0,0.1-0.1c0-0.1-0.1-0.1-0.1-0.1h-0.1l0,0.2H189.6z"/>
			<polygon points="189.9,187 190.1,186.2 190.4,186.2 190.4,186.7 190.7,186.2 191,186.2 190.8,187 190.6,187 190.7,186.8 
				190.7,186.6 190.7,186.5 190.7,186.5 190.5,187 190.3,187 190.2,186.5 190.2,186.5 190.2,186.6 190.2,186.7 190.2,187 			"/>
			<polygon points="191,187 191.1,186.2 191.8,186.2 191.8,186.4 191.4,186.4 191.3,186.5 191.7,186.5 191.6,186.7 191.3,186.7 
				191.3,186.8 191.7,186.8 191.7,187 			"/>
			<polygon points="192.4,186.6 192.4,186.4 192.4,186.2 192.7,186.2 192.6,187 192.3,187 192.1,186.6 192.1,186.8 192,187 
				191.8,187 191.9,186.2 192.2,186.2 			"/>
			<polygon points="192.8,186.2 193.5,186.2 193.5,186.4 193.3,186.4 193.2,187 192.9,187 193,186.4 192.8,186.4 			"/>
			<path d="M194.4,185.9h0.3c0,0,0.1,0,0.1,0c0.1,0,0.1,0.1,0.1,0.2c0,0.1,0,0.1-0.1,0.1c0,0-0.1,0-0.1,0h-0.3V185.9z M194.4,186.8
				v-0.4h0.3c0.1,0,0.1,0,0.1,0c0,0,0.1,0.1,0.1,0.1l0,0.2c0,0,0,0.1,0,0.1c0,0,0,0,0,0h0.2v0c0,0,0,0,0-0.1c0,0,0,0,0-0.1l0-0.1
				c0-0.1,0-0.1,0-0.1c0,0,0,0-0.1-0.1c0,0,0.1-0.1,0.1-0.1c0,0,0-0.1,0-0.2c0-0.1,0-0.2-0.1-0.2c0,0-0.1,0-0.2,0h-0.5v1H194.4z"/>
			<path d="M194.6,185.5c-0.4,0-0.8,0.4-0.8,0.8c0,0.5,0.3,0.8,0.8,0.8c0.4,0,0.8-0.4,0.8-0.8C195.4,185.9,195,185.5,194.6,185.5
				 M194.6,187.1c-0.4,0-0.7-0.3-0.7-0.7c0-0.4,0.3-0.7,0.7-0.7c0.4,0,0.7,0.3,0.7,0.7C195.3,186.7,195,187.1,194.6,187.1"/>
			<path d="M188.5,188.3h-2.3c0,0-1.1,0-1.8,0.6c0,0-1.3,1-0.3,2.5c0,0,0.7,0.9,2.3,0.9h1.5l0.5-1h-1.7c0,0-0.7,0-1.1-0.4
				c0,0-0.6-0.6,0-1.2c0,0,0.4-0.4,1-0.4h1.8V188.3z"/>
			<path d="M174.7,188.3v3c0,0-0.1,1,1,1h7.5c0,0,0.4,0,0.6-0.3c0,0,0.2-0.3,0.2-0.7c0,0,0-0.3-0.3-0.5l-2.4-1.4c0,0-0.2-0.1,0-0.1
				h2.4l0.5-1h-3.8c0,0-0.6,0-0.8,0.4c0,0-0.4,0.6,0.3,1.1l2.3,1.4c0,0,0.4,0.2,0,0.2h-2.3l-0.5,1v-4h-1.2v3h-1.6
				c-0.4,0-0.4-0.5-0.4-0.5v-2.5h-3.7c0,0-1.1,0-1.8,0.6c0,0-1.3,1-0.3,2.5c0,0,0.7,0.9,2.3,0.9h1.5l0.5-1h-1.7c0,0-0.7,0-1.1-0.4
				c0,0-0.6-0.6,0-1.2c0,0,0.4-0.4,1-0.4h1.9"/>
			<path d="M190.9,188.3c-1.4,0-2.6,0.9-2.6,2c0,1.1,1.2,2,2.6,2c1.4,0,2.6-0.9,2.6-2C193.4,189.2,192.3,188.3,190.9,188.3
				 M190.9,191.3c-0.7,0-1.2-0.4-1.2-1c0-0.5,0.5-1,1.2-1c0.7,0,1.2,0.4,1.2,1C192.1,190.8,191.5,191.3,190.9,191.3"/>
		</g>
	</g>
	<g>
		
			<image style="display:inline;overflow:visible;opacity:0.7;" width="941" height="723" xlink:href="B91769DC660AAD84.png"  transform="matrix(0.24 0 0 0.24 -19.68 15.12)">
		</image>
		<g class="st2">
			<path class="st10" d="M189.7,124.2c-0.1-7.3-0.3-14.6-0.4-21.9c0-1.1-0.2-2.3-0.6-3.3c-2.7-6.1-7.1-10.6-13.1-13.5
				c-0.9-0.4-1.6-1.2-2.4-1.9c0.1-0.2,0.1-0.3,0.2-0.5c2.1-0.4,4.1-0.8,6.2-1.1c2.2-0.4,4.4-0.7,6.6-1.1c1.2-0.2,2.5-0.7,2.2-2.1
				c-0.5-2.6-1.6-5.2-4.3-6.1c-2.9-0.9-6.1-1.2-9.2-1.6c-1.3-0.2-1.7,0.6-1.5,1.9c0.2,1,0.3,2,0.5,2.9c0.6,3.6,1,3.1-2.9,3.5
				c-0.8,0.1-1.3-0.2-1.7-1c-3.4-6.4-6.9-12.7-10.3-19.1c-1.2-2.3-3.2-3.7-5.7-4.3c-2.1-0.5-4.1-1-6.2-1.3
				c-4.9-0.6-9.8-1.4-14.8-1.4c-1.1-2.2-2.3-4.4-3.4-6.6c-1.1-2-2.7-3.3-4.8-3.8c-1.7-0.5-3.5-0.9-5.3-1.1
				c-5.8-0.8-11.6-1.8-17.5-0.8c-0.1,0-0.2,0-0.4,0.1c-0.8-1.4-1.5-2.8-2.3-4.2c-0.9-1.6-2.2-2.6-3.9-3c-1.4-0.4-2.9-0.7-4.3-0.9
				c-4.7-0.6-9.5-1.4-14.3-0.6c-5.7,1-11.4,0.9-17.1,0.3c-2-0.2-4-0.7-6-0.7c-4.8,0-9.5,0.6-14.2,1.6c-2,0.4-3.7,1.3-4.8,3.1
				c-0.6,1.1-1.3,2.1-1.9,3.2c-1.7,3.3-3.5,6.6-5.2,9.9c-0.4,0.7-0.7,1-1.5,0.8c-0.4-0.1-0.9-0.1-1.4-0.1c-0.5,0-0.7-0.3-0.6-0.8
				c0.2-1.1,0.3-2.2,0.5-3.3c0.2-1.1-0.1-1.6-1.3-1.5c-1.3,0.1-2.6,0.2-3.9,0.4c-2.5,0.3-4.3,1.6-5,4.2c-0.3,1.1,0,1.9,1.2,2.1
				c1,0.2,1.9,0.3,2.9,0.5c2,0.4,4.1,0.7,6.1,1.1c0,0.1,0.1,0.2,0.1,0.3c-0.5,0.4-0.9,1-1.4,1.2c-3,1.2-5.1,3.4-7.2,5.8
				c-1.9,2.1-2.7,4.6-2.7,7.5c0,1.9-0.1,6.1-0.2,13.3c-0.1,7.4,0,16.8,0.1,18.5c0.2,2.9,1.2,3.9,4,3.9c2.4,0.1,4.6,0.1,6.8,0.2
				c-0.1,9.4-0.1,21.4,0.1,23.6c0.3,3.7,1.4,5,4.9,5c2.1,0,4.1,0.1,6.1,0.2c0,8.5,0,16.8,0.2,18.8c0.3,4.1,1.7,5.6,5.8,5.7
				c5.2,0.1,9.8,0.3,15,0.3c0.1,0,0.6,0,0.8-0.4s0.3-1,0.7-2.7c0.4-1.8,0.4-3.6,1.3-4c0.9-0.4,17.3,0.7,17.3,0.7s2.4,0.2,3.3-0.5
				s1.3-1.1,2-1.7c0.7-0.5,1.9-0.5,1.9-0.5s55.3-0.1,57.8-0.1c1,0,2.4,0,3.2,0.5s0.5,1.2,1.6,1.7c0.6,0.3,17.6-0.7,18.8-0.4
				s1.2,1.7,1.5,3.4c0.3,1.6,0,2.8,0.7,3.3c0.7,0.5,1.6,0.4,1.6,0.4s9-0.1,16.6-0.2c2.8,0,4-1.1,4.8-3.7c0.2-0.6,0.2-1.2,0.3-1.8
				c0.1-3.2,0.4-6.3,0.3-9.5C189.9,135.5,189.8,129.9,189.7,124.2z"/>
		</g>
	</g>
	<g>
		<g class="st2">
			<path class="st8" d="M100,91.1H72.5l-18.3,3.5c0,0-0.6-2-1.8-1.8c-0.2,0-0.7,0.8-0.7,0.8L35.6,96l4.3,0.6c0,0,4.6-0.5,5.6,1.7
				c1.1,2.3,2.7,2,1.5,4.2c1.6-1.3,2.5-3.1,2.5-3.1s1.6,1,1.9,0.9c1.3-0.2,2.3-0.8,2.4-0.8c0.3-0.1,0.2-1.7,0.2-1.7l0.5,0.5
				l17.9-2.8H100V91.1z"/>
			<g>
				<path class="st8" d="M38.9,99.1c2.9,0,4.8,0.6,5.8,1c-0.9,0.6-2.8,1.3-5.6,1.6c-0.7,0.1-1.4,0.1-2.1,0.1c-2.9,0-4.8-0.6-5.8-1
					c0.9-0.6,2.8-1.3,5.6-1.6C37.4,99.1,38.2,99.1,38.9,99.1 M38.9,95.8c-0.8,0-1.6,0-2.5,0.1c-5.8,0.6-9.9,3.1-9,5.6
					c0.7,2.1,4.8,3.6,9.6,3.6c0.8,0,1.6,0,2.5-0.1c5.8-0.6,9.9-3.1,9-5.6C47.7,97.3,43.7,95.8,38.9,95.8L38.9,95.8z"/>
			</g>
			<path class="st8" d="M28.5,142.2c-0.4-0.1-0.4-0.5-0.4-0.5c0-0.1,0-0.2,0-0.2l0.1,0c0,0,0.4,0.3,0.7,0.4c0.3,0.1,0.8,0.1,0.8,0.1
				s0.1,0,0,0c0,0-0.1,0.1-0.1,0.1c0,0-0.2,0.1-0.5,0.1C28.9,142.3,28.7,142.3,28.5,142.2 M39.9,120.2L39.9,120.2c0,0,0.1,0,0.2,0.1
				c0.1,0,0.2,0.1,0.2,0.1s-0.1,0.1-0.2,0.1c-0.1,0-0.2,0.1-0.2,0.1L39.9,120.2z M39.4,117.2c0,0,0.3,0.1,0.5,0.1
				c0.2,0,0.4,0.1,0.4,0.1s-0.3,0.1-0.4,0.2c-0.1,0-0.4,0.1-0.4,0.1L39.4,117.2z M39.5,114.4c0,0,0.2,0,0.4,0.1
				c0.2,0,0.3,0.1,0.3,0.1s-0.2,0.1-0.4,0.1c-0.1,0-0.3,0.1-0.3,0.1L39.5,114.4z M36.4,105.1c0,0-0.1,0-0.1,0.1c0,0-0.1,0.1-0.1,0.1
				c0,0,0,0.1,0,0.1l0,0l-0.1,0l0,0.9c0,0-0.2,0-0.4,0c-0.2,0-0.3,0.1-0.3,0.1l0,0.7l0.1,0.1l0,0.1c0,0-0.7,0-0.9,0
				c-0.2,0-0.2,0.1-0.2,0.1c0,0,0,0.1,0,0.1s-0.6,0-1.5,0c-0.8,0-1.9,0-2,0c-0.1,0-0.2,0-0.2,0l0-0.1l0-0.1l0-0.1l0.1,0l-0.1-0.1
				l0.1-0.1l-0.1-0.1l0.1,0l-0.1-0.1l0.1-0.1l-0.1-0.1l0,0l-0.1-0.1l0.1-0.1l-0.1,0l0.1,0l-0.1-0.1l0,0l0-0.1l0.1-0.1l-0.1,0
				l0.1-0.1l-0.1-0.1l0.1-0.1l-0.1,0l0.1,0l-0.1-0.1l0.1-0.1l-0.1-0.1l0.1,0l-0.1-0.1l0.1-0.1l0,0l0-0.1l-0.1-0.1c0,0-0.2,0-0.3,0
				s-0.4,0.1-0.4,0.1s-0.1,0-0.2,0c-0.1,0-0.1,0.1-0.1,0.1l0,0l-0.1,0.1l0.1,0l-0.1,0.1l0.1,0.1l-0.1,0.1l0.1,0l-0.1,0.1l0.1,0.1
				l-0.1,0.1l0.1,0l-0.1,0.1l0.1,0l-0.1,0.1l0.1,0l0,0.1l0,0l-0.1,0.1l0.1,0l0,0.1l0,0l0,0.1l0.1,0.1l-0.1,0l0.1,0l-0.1,0.1l0.1,0.1
				l-0.1,0.1l0.1,0.1l-0.1,0.1l0,0.1l0,0l0,0l0,0.1l-0.1,0l-0.1,0c0,0-0.4,0-0.6,0c-0.2,0-0.3,0.1-0.3,0.2c0,0.1,0,0.4,0,0.4l0,0
				l0,0.1c0,0,0,0.2,0,0.3c0,0.1,0,0.1,0.2,0.1s1.3,0.1,1.9,0.1c0.5,0,1.7,0,1.7,0l0,0.5c0,0,1.3,0.1,1.6,0.1c0.3,0,1.2,0,1.2,0
				s-0.5,0.1-0.8,0.2s-0.7,0.1-0.7,0.1s-0.3,0-0.5,0.1c-0.2,0-0.8,0.2-1.1,0.3c-0.3,0.1-1,0.3-1,0.3l0,0.1l0,0l0,0.1
				c0,0,0,0.1,0,0.2c0,0.1,0.1,0.3,0.1,0.3s-0.1,0.1-0.1,0.2c0,0.1,0,0.3,0.1,0.4c0.3,0.3,0.6,0.3,1.2,0.4c0.6,0.1,1.3,0,1.3,0
				l0,0.1c0,0-1.5,0.1-1.7,0.1c-0.2,0-1,0.1-1,0.6c0,0.6,1,0.6,1.2,0.6c0.3,0,1.5,0.1,1.5,0.1l0,1.6c0,0-0.6,0.1-0.8,0.1
				c-0.2,0-0.9,0-1.1,0c-0.2,0-0.8,0.1-0.8,0.6c0,0.5,0.7,0.6,0.9,0.6c0.2,0,0.8,0,1.1,0c0.3,0,0.6,0,0.6,0l0,1.7c0,0-1.3,0-1.5,0
				c-0.2,0-1.1,0.1-1.1,0.6c0,0.6,0.9,0.6,1.3,0.6c0.4,0,1.3,0,1.3,0l0,0.3c0,0-0.1,0-0.3,0.1c-0.2,0-0.3,0.1-0.4,0.3
				c0,0.2,0,0.8,0,0.8s-0.3,0-0.8,0c-0.5,0-1.1,0.1-1.2,0.6c0,0.5,0.7,0.6,1,0.7c0.3,0,0.9,0.1,0.9,0.1l0,0.1c0,0,0,0,0,0
				c0,0,0.1,0.1,0.1,0.1l0,0.1l0,0.1c0,0-0.6,0.1-1,0.2c-0.4,0.1-0.9,0.4-0.9,0.8c0,0.2,0.1,0.3,0.1,0.3s0,0,0,0.1c0,0,0,0.1,0,0.1
				s0.1,0.1,0.2,0.2c0.1,0.1,0.4,0.2,0.4,0.2l0,0.1c0,0,0.1,0.1,0.3,0.1c0.2,0,0.3,0.1,0.3,0.1l0,0c0,0-0.1,0-0.1,0.1
				c0,0.1,0,0.3,0,0.3s0.1,0.1,0.3,0.2c0.2,0.1,0.5,0.2,0.5,0.2l0,0.1c0,0,0,0,0,0.1c0,0,0,0.1,0,0.1s0,0,0,0.1c0,0,0,0.1,0,0.1
				s-0.1,0.1-0.1,0.1c0,0,0,0.1,0,0.1s0,0.1,0,0.1c0,0,0,0.1,0,0.1s0,0,0,0.1c0,0,0,0.1,0,0.1s0,0,0,0.1c0,0,0,0.1,0,0.1
				s0,0-0.1,0.1c0,0,0,0.1,0,0.1s0,0,0,0.1c0,0,0,0.1,0,0.1s0,0,0,0c0,0,0,0.1,0,0.1s0,0,0,0.1c0,0,0,0.1,0,0.1s0,0,0,0.1
				s0,0.1,0,0.1s0,0,0,0.1c0,0,0,0.1,0,0.1s0,0.1,0,0.1c0,0,0,0.1,0,0.1s0,0,0,0.1c0,0,0,0.1,0,0.1s0,0,0,0.1c0,0,0,0.1,0,0.1
				s0,0,0,0.1c0,0,0.1,0.1,0.1,0.1s0,0,0,0c0,0,0,0.1,0,0.1s0,0,0,0.1c0,0,0,0.1,0,0.1s0,0,0,0.1c0,0,0,0.1,0,0.1s0,0,0,0.1
				c0,0,0,0.1,0,0.1s0,0,0,0.1c0,0,0,0.1,0,0.1s0,0,0,0.1c0,0,0,0.1,0,0.1s0,0,0,0.1c0,0,0,0.1,0,0.1s0,0,0,0.1c0,0,0,0.1,0,0.1
				s0,0,0,0.1c0,0,0,0.1,0,0.1l0,0.1l0,0.1c0,0-0.3,0.1-0.3,0.4c0,0.2,0,0.5,0,0.5s-0.1,0-0.1,0.1C32,131,32,131,32,131
				c0,0.1,0,0.1,0,0.1s-0.2,0-0.2,0c-0.1,0-0.1,0-0.2,0.1c-0.1,0.1-0.1,0.2-0.1,0.2c0,0.1,0,0.2,0,0.2s0,0-0.1,0.1l0,0.2
				c0,0.1,0.2,0.2,0.3,0.3c0.2,0.1,0.4,0.2,0.4,0.2l0,0.3c0,0-1.6,0.1-1.7,0.1c-0.1,0-0.2,0-0.3,0.1c0,0.1-0.5,0.6-0.5,0.6
				s-0.8,0.5-1.1,0.8c-0.4,0.4-0.5,0.7-0.5,0.7s-0.9,0.4-0.9,1.1c0,0.9,1,1.1,0.9,2.7c-0.1,1.6-1.2,2-1.2,2.6c0,0.2,0,0.6,0.5,1
				c0.5,0.4,1,0.5,1.1,0.5c0.1,0,0.1,0,0.2,0c0,0,0,0,0.1,0c0,0,0.2,0.1,0.2,0.1c0,0,0.1,0.1,0.1,0.1s0,0.1,0,0.2
				c0,0,0.1,0.1,0.1,0.1c0,0,1.9,0.3,2.2,0.3c0.3,0,1.8,0.2,1.9,0.2c0,0,0.1,0,0.2,0c0.1,0,0.1,0,0.1,0c0.1,0,0.3,0,0.4,0
				c0.1,0,0.2,0.1,0.3,0.1c0.1,0,0.5,0,0.6,0c0.1,0,0.2,0,1,0c2.3,0,3.1-0.7,3.3-0.9c0.1-0.1,0.1-0.2,0.1-0.2c0,0,0.2-3.4,0.2-3.9
				c0-0.5,0.3-6.8,0.3-6.8s0.3-0.1,0.4-0.2c0.1-0.1,0.3-0.2,0.3-0.2c0.1,0,0.1-0.1,0.1-0.1l-0.1-0.1l0-0.1c0,0,0-0.3,0-0.4
				c0-0.1-0.2-0.3-0.3-0.4c-0.1-0.1-0.4-0.2-0.4-0.2s0-0.3,0-0.6c0-0.2-0.2-0.3-0.2-0.3l0-0.1l0,0c0,0,0,0,0-0.1c0,0,0-0.1,0-0.1
				l0,0c0,0,0,0,0-0.1c0,0,0,0,0,0l0,0c0,0,0,0,0-0.1c0,0,0,0,0,0l0,0c0,0,0,0,0-0.1c0,0,0-0.1,0-0.1l0,0c0,0,0,0,0-0.1c0,0,0,0,0,0
				l0,0c0,0,0,0,0-0.1c0,0,0-0.1,0-0.1l0-0.1c0,0,0,0,0-0.1s0,0,0,0l0,0c0,0,0,0,0-0.1c0,0,0,0,0,0l0,0c0,0,0-0.1,0-0.1c0,0,0,0,0,0
				l0,0c0,0,0,0,0-0.1c0,0,0,0,0,0l0,0c0,0,0,0,0-0.1c0,0,0-0.1,0-0.1l0-0.1c0,0,0,0,0,0c0,0,0-0.1,0-0.1l0,0c0,0,0,0,0-0.1
				c0,0,0-0.1,0-0.1l0-0.1c0,0,0.1,0,0.1-0.1c0,0,0,0,0,0l0-0.1c0,0,0,0,0-0.1c0,0,0-0.1,0-0.1l0,0c0,0,0,0,0-0.1c0-0.1,0-0.1,0-0.1
				l0,0c0,0,0-0.1,0.1-0.1c0,0,0,0,0,0l0,0c0,0,0-0.1,0-0.1s0,0,0,0l0,0l0-0.1l0,0l0-0.1c0,0,0,0,0-0.1c0,0,0,0,0,0l0,0
				c0,0,0,0,0-0.1s0,0,0,0l0,0c0,0,0,0,0-0.1c0,0,0,0,0,0l0-0.1c0,0,0-0.1,0-0.1c0,0-0.1,0-0.1,0l0,0c0,0,0.1-0.1,0.1-0.1
				c0,0-0.1,0-0.1,0l0,0l0.1-0.1l0,0l0-0.1l0,0c0,0,0.3-0.1,0.4-0.1c0.2-0.1,0.3-0.1,0.3-0.2c0,0,0.1-0.1,0.1-0.1c0,0,0-0.2,0-0.2
				c0,0,0-0.1,0-0.1l0,0l0,0l0,0c0,0,0.2,0,0.4-0.1c0.2,0,0.2-0.1,0.2-0.1l0-0.1c0,0,0.4-0.2,0.5-0.2c0.1-0.1,0.1-0.2,0.1-0.3
				c0-0.1-0.3-0.3-0.3-0.3s0.4-0.3,0.4-0.7c0-0.5-0.4-0.8-0.7-1c-0.3-0.2-1.2-0.4-1.2-0.4s2-0.5,2-1.4c0-0.7-0.8-1-1.2-1.1
				c-0.4-0.1-1.1-0.3-1.1-0.3s0.8-0.2,1.1-0.3c0.4-0.1,1.3-0.5,1.3-1.1c0-0.6-0.6-0.9-1.1-1c-0.5-0.2-1.4-0.4-1.4-0.4l0-0.2
				c0,0,1.1-0.2,1.6-0.4c0.2-0.1,1.1-0.4,1.1-1c0-0.7-1.1-0.9-1.4-1c-0.3-0.1-1.2-0.2-1.2-0.2l0-0.3c0,0,0.4-0.1,0.7-0.1
				c0.3-0.1,0.9-0.2,1.3-0.4c0.5-0.2,0.7-0.5,0.7-0.7c0-0.2-0.2-0.4-0.2-0.4c0,0,0.1,0,0.1-0.1c0,0,0.1-0.1,0.1-0.2
				c0-0.1,0.1-0.2,0.1-0.2c0-0.1,0-0.1,0-0.1l0-0.1c0,0,0.1-0.1,0.1-0.1c0,0,0-0.1,0-0.1c0,0-0.7-0.2-0.9-0.3
				c-0.2-0.1-1-0.3-1.1-0.3c-0.1,0-0.6-0.1-0.6-0.1s-0.5-0.1-0.7-0.2c-0.2-0.1-0.7-0.2-0.7-0.2s1.4,0,1.8,0c0.4,0,1.8-0.1,1.9-0.1
				c0.1,0,0.1-0.1,0.1-0.1l0-0.4c0,0,0.7,0,1.1,0c0.4,0,1.2-0.1,1.3-0.1c0.1,0,0.1-0.1,0.1-0.1l0-0.4l0.1-0.1c0,0,0-0.3,0-0.4
				c0-0.1-0.1-0.1-0.2-0.1c-0.1,0-1.1-0.1-1.6-0.1c-0.5,0-1.1,0-1.1,0l0-0.1l-0.1-0.1l0-0.1l0-0.1l0-0.1l0,0l0.1,0l-0.1-0.1l0,0
				l0-0.1l0.1,0l-0.1,0l0.1-0.1l0-0.1l0,0l0-0.1l0,0l0-0.1l0,0l-0.1-0.1l0,0l0-0.1l0-0.1l0-0.1l0,0l0-0.1l0,0l0-0.1l0,0l0-0.1l0.1,0
				l-0.1-0.1l0,0l-0.1-0.1l0.1,0l-0.1-0.1l0,0l-0.1-0.1c0,0-0.2,0-0.4,0c-0.2,0-0.4,0-0.4,0l0,0l-0.1,0.1l0,0l-0.1,0l0.1,0l-0.1,0.1
				l0,0l0,0.1l0.1,0.1l0,0.1l0,0l0,0.1l0,0l0,0.1l0.1,0l0,0.1l0,0l-0.1,0.1l0.1,0.1l0,0.1l0.1,0l-0.1,0.1l0,0l0,0.1l0,0.1l0,0.1
				L41,107l0,0l0,0.1l-0.1,0.1l0.1,0l-0.1,0.1l0.1,0l0,0.1l0,0l0,0l0,0l-0.1,0l0,0.1c0,0-0.4,0-0.7,0c-0.3,0-0.8,0-0.8,0l0,0l0,0
				l0.1,0l-0.1-0.1l0,0l0-0.1l0,0l0-0.1l0,0l0-0.1l0-0.1l0-0.1l0-0.1l0,0l0.1-0.1l0-0.1l0-0.1l0-0.1l0.1,0l0-0.1l0,0l0-0.1l0-0.1
				l0-0.1l0,0l-0.1-0.1l0,0l0-0.1l0-0.1l-0.1-0.1l0-0.1l0,0l0-0.1l-0.1,0c0,0-0.1-0.1-0.1-0.1c0,0-0.7,0-0.8,0c0,0-0.2,0.1-0.2,0.1
				l0,0.1l0,0l-0.1,0.1l0.1,0.1l-0.1,0.1l0,0.1l-0.1,0l0.1,0.1l-0.1,0l0.1,0.1l-0.1,0l0,0.1l0,0l-0.5,0l0-0.9l-0.1,0
				c0,0,0-0.1,0-0.1c0-0.1-0.2-0.2-0.2-0.2c-0.1,0-0.2,0-0.4,0c-0.2,0-0.3,0-0.3,0l-0.1,0L36.4,105.1z"/>
		</g>
	</g>
	<g>
		<g class="st2">
			<path class="st8" d="M100,91h27.6l18.3,3.5c0,0,0.6-2,1.8-1.8c0.2,0,0.7,0.8,0.7,0.8l16.1,2.5l-4.3,0.6c0,0-4.6-0.5-5.6,1.7
				c-1.1,2.3-2.7,2-1.5,4.2c-1.6-1.3-2.5-3.1-2.5-3.1s-1.6,1-1.9,0.9c-1.3-0.2-2.3-0.8-2.4-0.8c-0.3-0.1-0.2-1.7-0.2-1.7l-0.5,0.5
				l-17.9-2.8H100V91z"/>
			<g>
				<path class="st8" d="M161.2,99.1L161.2,99.1c0.7,0,1.4,0,2.1,0.1c2.8,0.3,4.6,1,5.6,1.6c-1,0.5-2.9,1-5.8,1
					c-0.7,0-1.4,0-2.1-0.1c-2.8-0.3-4.6-1-5.6-1.6C156.4,99.7,158.3,99.1,161.2,99.1 M161.2,95.8c-4.8,0-8.9,1.4-9.6,3.6
					c-0.8,2.5,3.2,5,9,5.6c0.8,0.1,1.7,0.1,2.5,0.1c4.8,0,8.9-1.4,9.6-3.6c0.8-2.5-3.2-5-9-5.6C162.8,95.8,162,95.8,161.2,95.8
					L161.2,95.8z"/>
			</g>
			<path class="st8" d="M171.5,142.2c-0.2,0.1-0.4,0.1-0.5,0.1c-0.3,0-0.5-0.1-0.5-0.1c-0.1,0-0.1-0.1-0.1-0.1c0,0,0,0,0,0
				s0.5-0.1,0.8-0.1c0.3-0.1,0.7-0.4,0.7-0.4l0.1,0c0,0,0,0.1,0,0.2C172,141.7,171.9,142,171.5,142.2 M160.2,120.5
				c0,0-0.1,0-0.2-0.1c-0.1,0-0.2-0.1-0.2-0.1s0.1,0,0.2-0.1c0.1,0,0.2-0.1,0.2-0.1l0,0L160.2,120.5z M160.7,117.7
				c0,0-0.3,0-0.4-0.1c-0.1,0-0.4-0.2-0.4-0.2s0.2-0.1,0.4-0.1c0.2,0,0.5-0.1,0.5-0.1L160.7,117.7z M160.5,114.7
				c0,0-0.2-0.1-0.3-0.1c-0.1,0-0.4-0.1-0.4-0.1s0.2-0.1,0.3-0.1s0.4-0.1,0.4-0.1L160.5,114.7z M163.4,105.1L163.4,105.1
				c-0.1,0-0.2,0-0.4,0c-0.2,0-0.3,0-0.4,0c-0.1,0-0.3,0.1-0.2,0.2c0,0,0,0.1,0,0.1l-0.1,0l0,0.9l-0.5,0l0,0l0-0.1l-0.1,0l0.1-0.1
				l-0.1,0l0.1-0.1l-0.1,0l0-0.1l-0.1-0.1l0.1-0.1l-0.1-0.1l0,0l0-0.1c0,0-0.1-0.1-0.2-0.1c0,0-0.7,0-0.8,0c0,0-0.1,0.1-0.1,0.1
				l-0.1,0l0,0.1l0,0l0,0.1l-0.1,0.1l0,0.1l0,0.1l0,0l-0.1,0.1l0,0l0,0.1l0,0.1l0,0.1l0,0l0,0.1l0.1,0l0,0.1l0,0.1l0,0.1l0.1,0.1
				l0,0l0,0.1l0,0.1l0,0.1l0,0.1l0,0l0,0.1l0,0l0,0.1l0,0l-0.1,0.1l0.1,0l0,0l0,0c0,0-0.5,0-0.8,0c-0.3,0-0.7,0-0.7,0l0-0.1l-0.1,0
				l0,0l0,0l0,0l0-0.1l0.1,0l-0.1-0.1l0.1,0l-0.1-0.1l0-0.1l0,0l0.1-0.1l0-0.1l0-0.1l0-0.1l0,0l-0.1-0.1l0.1,0l0-0.1l0.1-0.1
				l-0.1-0.1l0,0l0-0.1l0.1,0l0-0.1l0,0l0-0.1l0,0l0-0.1l0.1-0.1l0-0.1l0,0l-0.1-0.1l0.1,0l-0.1,0l0,0l-0.1-0.1l0,0c0,0-0.1,0-0.4,0
				c-0.2,0-0.4,0-0.4,0l-0.1,0.1l0,0l-0.1,0.1l0.1,0l-0.1,0.1l0,0l-0.1,0.1l0.1,0l0,0.1l0,0l0,0.1l0,0l0,0.1l0,0l0,0.1l0,0.1l0,0.1
				l0,0l-0.1,0.1l0,0l0,0.1l0,0l0,0.1l0,0l0,0.1l0.1,0.1l-0.1,0l0.1,0l0,0.1l0,0l-0.1,0.1l0.1,0l0,0l0,0.1l0,0.1l0,0.1l-0.1,0.1
				l0,0.1c0,0-0.6,0-1.1,0c-0.5,0-1.5,0.1-1.6,0.1c-0.1,0-0.2,0.1-0.2,0.1c0,0.1,0,0.4,0,0.4l0.1,0.1l0,0.4c0,0,0,0,0.1,0.1
				c0.1,0,0.9,0.1,1.3,0.1c0.4,0,1.1,0,1.1,0l0,0.4c0,0,0,0.1,0.1,0.1c0.1,0,1.5,0.1,1.9,0.1c0.4,0,1.8,0,1.8,0s-0.5,0.1-0.7,0.2
				c-0.2,0.1-0.7,0.2-0.7,0.2s-0.5,0-0.6,0.1c-0.1,0-0.9,0.2-1.1,0.3c-0.2,0.1-0.9,0.2-0.9,0.3c0,0-0.1,0.1,0,0.1
				c0,0,0.1,0.1,0.1,0.1l0,0.1c0,0,0,0.1,0,0.1c0,0.1,0.1,0.1,0.1,0.2c0,0.1,0.1,0.2,0.1,0.2c0,0,0.1,0.1,0.1,0.1
				c0,0-0.2,0.2-0.2,0.4c0,0.2,0.2,0.5,0.7,0.7c0.5,0.2,1.1,0.3,1.3,0.4c0.3,0.1,0.7,0.1,0.7,0.1l0,0.3c0,0-0.9,0.1-1.2,0.2
				c-0.3,0.1-1.4,0.4-1.4,1c0,0.6,0.9,0.9,1.1,1c0.4,0.2,1.6,0.4,1.6,0.4l0,0.2c0,0-1,0.2-1.4,0.4c-0.5,0.2-1.1,0.5-1.1,1
				c0,0.6,0.9,1,1.3,1.1c0.4,0.1,1.1,0.3,1.1,0.3s-0.7,0.2-1.1,0.3c-0.4,0.1-1.2,0.5-1.2,1.1c0,0.8,2,1.4,2,1.4s-0.9,0.3-1.2,0.4
				c-0.3,0.2-0.7,0.4-0.7,1c0,0.4,0.4,0.7,0.4,0.7s-0.3,0.2-0.3,0.3c0,0.1,0,0.2,0.1,0.3c0.1,0.1,0.5,0.2,0.5,0.2l0,0.1
				c0,0,0.1,0.1,0.2,0.1c0.2,0,0.4,0.1,0.4,0.1l0,0l0,0l0,0c0,0,0,0,0,0.1c0,0,0,0.2,0,0.2c0,0,0,0.1,0.1,0.1c0,0,0.2,0.1,0.3,0.2
				c0.2,0.1,0.4,0.1,0.4,0.1l0,0l0,0.1l0,0l0.1,0.1l0,0c0,0-0.1,0-0.1,0c0,0,0.1,0.1,0.1,0.1l0,0c0,0-0.1,0-0.1,0c0,0,0,0.1,0,0.1
				l0,0.1c0,0,0,0,0,0c0,0,0,0.1,0,0.1l0,0c0,0,0,0,0,0c0,0,0,0.1,0,0.1l0,0c0,0,0,0,0,0c0,0,0,0.1,0,0.1l0,0.1l0,0l0,0.1l0,0
				c0,0,0,0,0,0s0,0.1,0,0.1l0,0c0,0,0,0,0,0c0,0,0.1,0.1,0.1,0.1l0,0c0,0,0,0,0,0.1c0,0.1,0,0.1,0,0.1l0,0c0,0,0,0,0,0.1
				c0,0,0,0.1,0,0.1l0,0.1c0,0,0,0,0,0c0,0,0.1,0.1,0.1,0.1l0,0.1c0,0,0,0,0,0.1c0,0,0,0.1,0,0.1l0,0c0,0,0,0,0,0.1c0,0,0,0,0,0
				l0,0.1c0,0,0,0,0,0.1c0,0,0,0.1,0,0.1l0,0c0,0,0,0,0,0c0,0,0,0.1,0,0.1l0,0c0,0,0,0,0,0c0,0,0,0.1,0,0.1l0,0c0,0,0,0,0,0
				c0,0,0,0.1,0,0.1l0,0c0,0,0,0,0,0s0,0.1,0,0.1l0,0.1c0,0,0,0,0,0.1c0,0,0,0.1,0,0.1l0,0c0,0,0,0,0,0c0,0,0,0.1,0,0.1l0,0
				c0,0,0,0,0,0.1s0,0.1,0,0.1l0,0c0,0,0,0,0,0c0,0,0,0.1,0,0.1l0,0c0,0,0,0,0,0c0,0,0,0.1,0,0.1l0,0c0,0,0,0.1,0,0.1
				c0,0,0,0.1,0,0.1l0,0l0,0.1c0,0-0.2,0.1-0.2,0.3c0,0.2,0,0.6,0,0.6s-0.3,0.1-0.4,0.2c-0.1,0.1-0.3,0.2-0.3,0.4c0,0.1,0,0.4,0,0.4
				l0,0.1l-0.1,0.1c0,0,0,0,0.1,0.1c0.1,0,0.2,0.2,0.3,0.2c0.1,0.1,0.4,0.2,0.4,0.2s0.3,6.3,0.3,6.8c0,0.5,0.2,3.9,0.2,3.9
				c0,0,0,0.1,0.1,0.2c0.1,0.1,0.9,0.8,3.3,0.9c0.8,0,0.9,0,1,0c0.1,0,0.5,0,0.6,0c0.1,0,0.2-0.1,0.3-0.1c0.1,0,0.3,0,0.4,0
				c0,0,0.1,0,0.1,0c0.1,0,0.1,0,0.2,0c0.1,0,1.6-0.2,1.9-0.2c0.3,0,2.1-0.3,2.2-0.3c0,0,0.1,0,0.1-0.1c0,0,0-0.2,0-0.2s0,0,0.1-0.1
				c0,0,0.2-0.1,0.2-0.1c0,0,0,0,0.1,0c0,0,0.1,0,0.2,0c0.1,0,0.5-0.1,1.1-0.5c0.5-0.4,0.5-0.8,0.5-1c0-0.6-1.2-1-1.2-2.6
				c-0.1-1.7,0.9-1.8,0.9-2.7c0-0.7-0.9-1.1-0.9-1.1s0-0.4-0.5-0.7c-0.3-0.3-1.1-0.8-1.1-0.8s-0.5-0.6-0.5-0.6
				c0-0.1-0.2-0.1-0.3-0.1c-0.1,0-1.7-0.1-1.7-0.1l0-0.3c0,0,0.2-0.1,0.4-0.2c0.2-0.1,0.3-0.3,0.3-0.3l0-0.2c0-0.1-0.1-0.1-0.1-0.1
				s0-0.2,0-0.2c0-0.1,0-0.2-0.1-0.2c-0.1-0.1-0.1-0.1-0.2-0.1c-0.1,0-0.2,0-0.2,0s0,0,0-0.1c0-0.1,0-0.1-0.1-0.1
				c-0.1,0-0.1-0.1-0.1-0.1s0-0.3,0-0.5c0-0.4-0.3-0.4-0.3-0.4l0-0.1l0-0.1c0,0,0-0.1,0-0.1c0,0,0-0.1,0-0.1s0-0.1,0-0.1
				c0,0,0-0.1,0-0.1s0,0,0-0.1c0,0,0-0.1,0-0.1s0,0,0-0.1c0,0,0-0.1,0-0.1s0-0.1,0-0.1c0,0,0-0.1,0-0.1s0,0,0-0.1c0,0,0-0.1,0-0.1
				s0,0,0-0.1c0,0,0-0.1,0-0.1s0,0,0-0.1c0,0,0-0.1,0-0.1s0,0,0-0.1c0,0,0,0,0,0s0.1,0,0.1-0.1c0,0,0-0.1,0-0.1s0,0,0-0.1
				c0,0,0-0.1,0-0.1s0,0,0-0.1c0,0,0-0.1,0-0.1s0,0,0-0.1c0,0,0-0.1,0-0.1s0-0.1,0-0.1c0,0,0-0.1,0-0.1s0-0.1,0-0.1c0,0,0-0.1,0-0.1
				s0,0,0-0.1c0,0,0-0.1,0-0.1s0,0,0-0.1c0,0,0,0,0,0s0-0.1,0-0.1c0,0,0-0.1,0-0.1s0,0,0-0.1c0,0-0.1-0.1-0.1-0.1s0-0.1,0-0.1
				c0,0,0-0.1,0-0.1s0-0.1,0-0.1c0,0,0-0.1,0-0.1s0,0,0-0.1c0,0,0-0.1,0-0.1s0,0,0-0.1c0,0-0.1-0.1-0.1-0.1s0-0.1,0-0.1
				c0,0,0-0.1,0-0.1s0,0,0-0.1c0,0,0-0.1,0-0.1l0-0.1c0,0,0.3-0.1,0.5-0.2c0.2-0.1,0.3-0.2,0.3-0.2s0-0.3,0-0.3
				c0-0.1-0.1-0.1-0.1-0.1l0,0c0,0,0.1,0,0.3-0.1c0.2,0,0.3-0.1,0.3-0.1l0-0.1c0,0,0.2-0.1,0.4-0.2c0.1-0.1,0.2-0.2,0.2-0.2
				s0-0.1,0-0.1c0,0,0-0.1,0-0.1s0.1-0.1,0.1-0.3c0-0.4-0.5-0.7-0.9-0.8c-0.4-0.1-1-0.2-1-0.2l0-0.1l0-0.1c0,0,0.1,0,0.1-0.1
				c0,0,0,0,0,0l0-0.1c0,0,0.7,0,0.9-0.1c0.3,0,1-0.2,1-0.7c0-0.5-0.7-0.6-1.2-0.6c-0.5,0-0.8,0-0.8,0s0-0.7,0-0.8s-0.2-0.2-0.4-0.3
				c-0.2,0-0.3-0.1-0.3-0.1l0-0.3c0,0,1,0,1.3,0c0.4,0,1.3,0,1.3-0.6c0-0.5-0.9-0.6-1.1-0.6c-0.2,0-1.5,0-1.5,0l0-1.7
				c0,0,0.4,0,0.6,0c0.3,0,0.8,0,1.1,0c0.2,0,0.9-0.1,0.9-0.6c0-0.5-0.6-0.5-0.8-0.6c-0.2,0-0.8,0-1.1,0c-0.2,0-0.8-0.1-0.8-0.1
				l0-1.6c0,0,1.2,0,1.5-0.1c0.3,0,1.2,0,1.2-0.6c0-0.5-0.8-0.6-1-0.6c-0.2,0-1.7-0.1-1.7-0.1l0-0.1c0,0,0.7,0,1.3,0
				c0.6-0.1,1-0.1,1.2-0.4c0.1-0.1,0.1-0.3,0.1-0.4c0-0.1-0.1-0.2-0.1-0.2s0.1-0.2,0.1-0.3c0-0.1,0-0.2,0-0.2l0-0.1l0,0l0-0.1
				c0,0-0.7-0.2-1-0.3c-0.3-0.1-0.9-0.2-1.1-0.3c-0.2,0-0.5-0.1-0.5-0.1s-0.4-0.1-0.7-0.1s-0.8-0.2-0.8-0.2s0.9,0,1.2,0
				c0.3,0,1.6-0.1,1.6-0.1l0-0.5c0,0,1.1,0,1.7,0c0.5,0,1.7-0.1,1.9-0.1c0.1,0,0.2,0,0.2-0.1c0-0.1,0-0.3,0-0.3l0-0.1l0,0
				c0,0,0-0.3,0-0.4c0-0.1-0.1-0.1-0.3-0.2c-0.2,0-0.6,0-0.6,0l-0.1,0l-0.1,0l0-0.1l0,0l0,0l0-0.1l-0.1-0.1l0.1-0.1l-0.1-0.1
				l0.1-0.1l-0.1-0.1l0.1,0l-0.1,0l0.1-0.1l0-0.1l0,0l0-0.1l0.1,0l-0.1-0.1l0,0l0-0.1l0.1,0l-0.1-0.1l0.1,0l-0.1-0.1l0.1,0l-0.1-0.1
				l0.1-0.1l-0.1-0.1l0.1,0l-0.1-0.1l0.1-0.1l-0.1-0.1l0.1,0l-0.1-0.1l0,0c0,0-0.1-0.1-0.1-0.1c-0.1,0-0.2,0-0.2,0s-0.2-0.1-0.4-0.1
				s-0.3,0-0.3,0l-0.1,0.1l0,0.1l0,0l0.1,0.1l-0.1,0.1l0.1,0l-0.1,0.1l0.1,0.1l-0.1,0.1l0.1,0l-0.1,0l0.1,0.1l-0.1,0.1l0.1,0.1
				l-0.1,0l0.1,0.1l0,0.1l0,0l-0.1,0.1l0.1,0l-0.1,0l0.1,0.1l-0.1,0.1l0,0l-0.1,0.1l0.1,0.1l-0.1,0.1l0.1,0l-0.1,0.1l0.1,0.1
				l-0.1,0.1l0.1,0l0,0.1l0,0.1l0,0.1c0,0,0,0-0.2,0c-0.1,0-1.1,0-2,0c-0.8,0-1.5,0-1.5,0s0,0,0-0.1c0,0,0-0.1-0.2-0.1
				c-0.2,0-0.9,0-0.9,0l0-0.1l0.1-0.1l0-0.7c0,0-0.1-0.1-0.3-0.1c-0.2,0-0.4,0-0.4,0l0-0.9l-0.1,0l0,0c0,0,0-0.1,0-0.1
				c0,0,0-0.1-0.1-0.1c0,0-0.1-0.1-0.1-0.1L163.4,105.1z"/>
		</g>
	</g>
	<g id="Roll_cage">
		<line class="st11" x1="41.4" y1="68.2" x2="158.3" y2="68.2"/>
		<line class="st11" x1="158.9" y1="68.2" x2="54.1" y2="50.6"/>
		<path class="st11" d="M36.8,90.2l4.6-22c0,0,7.6-11.4,8.5-12.9c0.9-1.5,1.7-3.3,4.1-4.7s6.2-2.2,8.6-2.2c2.4,0,37.5,0,37.5,0"/>
		<path class="st11" d="M163.5,90.2l-4.6-22c0,0-7.6-11.4-8.5-12.9s-1.7-3.3-4.1-4.7c-2.5-1.5-6.2-2.2-8.6-2.2c-2.4,0-37.5,0-37.5,0
			"/>
		
			<rect x="161.7" y="88.3" transform="matrix(0.985 -0.1727 0.1727 0.985 -13.1188 29.6024)" class="st12" width="3.7" height="3.7"/>
		<rect x="34.9" y="88.8" transform="matrix(0.985 0.1727 -0.1727 0.985 16.2159 -4.9898)" class="st12" width="3.7" height="3.7"/>
	</g>
	<g id="cusco_logo_1_">
		<g id="logo_1_" class="st2">
			<path class="st3" d="M92,93c0,0,0,0.1,0,0.2h1.6c0,0,0-0.1,0-0.2H92z"/>
			<path class="st3" d="M93.6,93.2H92c0,0,0,0.1,0,0.1h1.7C93.7,93.4,93.6,93.3,93.6,93.2"/>
			<path class="st3" d="M95,94.1h-2.7c0,0,0.1,0.1,0.2,0.2h2.4L95,94.1z"/>
			<path class="st3" d="M96.2,91.7l0.1-0.2h-2.4c0,0-0.2,0-0.4,0.1c-0.1,0-0.2,0-0.3,0.1H96.2z"/>
			<path class="st3" d="M92.1,93.8c0,0.1,0.1,0.1,0.1,0.2h2.8l0.1-0.2H92.1z"/>
			<path class="st3" d="M92.1,93.6C92.1,93.6,92.1,93.6,92.1,93.6l3.2,0l0.1-0.2H92C92,93.5,92,93.6,92.1,93.6"/>
			<path class="st3" d="M92.8,94.3c0.1,0,0.3,0.1,0.4,0.1c0.2,0,0.2,0,0.4,0h1.2l0.1-0.2H92.8z"/>
			<path class="st3" d="M93,91.9C93,91.9,93,91.9,93,91.9c0,0-0.1,0.1-0.2,0.1h3.3l0.1-0.1H93z"/>
			<path class="st3" d="M92.5,92.1c-0.1,0-0.1,0.1-0.2,0.2h3.5l0.1-0.2H92.5z"/>
			<path class="st3" d="M92.3,92.4c0,0-0.1,0.1-0.1,0.2h3.6l0.1-0.2H92.3z"/>
			<path class="st3" d="M92.1,92.7c0,0-0.1,0.1-0.1,0.2h1.7c0,0,0.1-0.1,0.2-0.2H92.1z"/>
			<polygon class="st3" points="96.5,91 96.6,91 94.6,94.9 94.6,94.9 			"/>
		</g>
		<g id="cusco_1_" class="st2">
			<path d="M99,92.2l0.1-0.4h0.2c0.1,0,0.2,0.1,0.1,0.1c0,0.1-0.1,0.1-0.2,0.1h-0.1l0,0.1H99z M99.2,91.9
				C99.3,91.9,99.3,91.9,99.2,91.9C99.3,91.9,99.3,91.9,99.2,91.9L99.2,91.9L99.2,91.9L99.2,91.9z"/>
			<path d="M99.5,92l0,0.1h-0.1l0.1-0.4h0.2c0.1,0,0.2,0,0.1,0.1c0,0,0,0.1-0.1,0.1c0,0,0.1,0,0,0.1c0,0.1,0,0.1,0,0.1l0,0h-0.1
				C99.6,92.2,99.6,92.1,99.5,92C99.6,92,99.6,92,99.5,92L99.5,92z M99.6,91.9L99.6,91.9c0.1,0,0.1,0,0.1,0
				C99.7,91.9,99.7,91.9,99.6,91.9L99.6,91.9L99.6,91.9z"/>
			<path d="M100.2,92c0,0.1-0.1,0.2-0.2,0.2c-0.1,0-0.2-0.1-0.2-0.2c0-0.1,0.1-0.2,0.2-0.2C100.2,91.8,100.2,91.9,100.2,92 M99.9,92
				c0,0.1,0,0.1,0.1,0.1c0.1,0,0.1,0,0.1-0.1c0-0.1,0-0.1-0.1-0.1C100,91.9,100,91.9,99.9,92"/>
			<path d="M100.6,92.2L100.6,92.2L100.6,92.2c-0.1,0-0.1,0-0.2,0c-0.1,0-0.2-0.1-0.1-0.2c0-0.1,0.1-0.2,0.2-0.2
				c0.1,0,0.2,0.1,0.2,0.2h-0.1c0,0,0-0.1-0.1-0.1c0,0-0.1,0-0.1,0.1c0,0.1,0,0.1,0.1,0.1c0,0,0.1,0,0.1,0h-0.1l0-0.1h0.2
				L100.6,92.2z"/>
			<path d="M100.8,92l0,0.1h-0.1l0.1-0.4h0.2c0.1,0,0.2,0,0.1,0.1c0,0,0,0.1-0.1,0.1c0,0,0.1,0,0,0.1c0,0.1,0,0.1,0,0.1l0,0h-0.1
				C100.9,92.2,100.9,92.1,100.8,92C100.9,92,100.9,92,100.8,92L100.8,92z M100.8,91.9L100.8,91.9c0.1,0,0.1,0,0.1,0
				C101,91.9,100.9,91.9,100.8,91.9L100.8,91.9L100.8,91.9z"/>
			<polygon points="101.1,92.2 101.1,91.8 101.5,91.8 101.4,91.9 101.3,91.9 101.2,91.9 101.4,91.9 101.4,92 101.2,92 101.2,92.1 
				101.4,92.1 101.4,92.2 			"/>
			<path d="M101.7,91.9C101.7,91.9,101.7,91.9,101.7,91.9C101.7,91.8,101.7,91.8,101.7,91.9C101.6,91.8,101.6,91.8,101.7,91.9
				c-0.1,0,0.1,0,0.1,0.2c0,0.1-0.1,0.1-0.2,0.1c-0.1,0-0.2-0.1-0.1-0.1h0.1c0,0,0,0,0,0c0,0,0,0,0,0c0,0,0.1,0,0.1,0
				c0-0.1-0.2,0-0.2-0.2c0-0.1,0.1-0.1,0.2-0.1c0.1,0,0.1,0.1,0.1,0.1H101.7z"/>
			<path d="M102.1,91.9C102.1,91.9,102.1,91.9,102.1,91.9C102.1,91.8,102,91.8,102.1,91.9C102,91.8,102,91.9,102.1,91.9
				c-0.1,0,0.1,0,0.1,0.2c0,0.1-0.1,0.1-0.2,0.1c-0.1,0-0.2-0.1-0.1-0.1h0.1c0,0,0,0,0,0c0,0,0,0,0,0c0,0,0.1,0,0.1,0
				c0-0.1-0.2,0-0.2-0.2c0-0.1,0.1-0.1,0.2-0.1c0.1,0,0.1,0.1,0.1,0.1H102.1z"/>
			<polygon points="102.2,92.2 102.3,91.8 102.4,91.8 102.3,92.2 			"/>
			<polygon points="102.4,91.8 102.6,91.8 102.6,92 102.7,91.8 102.8,91.8 102.6,92.2 102.5,92.2 			"/>
			<polygon points="102.8,92.2 102.9,91.8 103.2,91.8 103.2,91.9 103,91.9 103,91.9 103.1,91.9 103.1,92 103,92 103,92.1 
				103.1,92.1 103.1,92.2 			"/>
			<polygon points="103.4,92.2 103.5,91.8 103.8,91.8 103.8,91.9 103.6,91.9 103.6,91.9 103.7,91.9 103.7,92 103.6,92 103.6,92.1 
				103.7,92.1 103.7,92.2 			"/>
			<path d="M104.1,92.2L104.1,92.2c-0.1,0-0.1,0-0.1,0c-0.1,0-0.2-0.1-0.2-0.2c0-0.1,0.1-0.2,0.2-0.2c0.1,0,0.2,0.1,0.2,0.2
				c0,0,0,0.1-0.1,0.1L104.1,92.2L104.1,92.2z M104,92L104,92C104.1,92,104.1,92,104,92c0.1-0.1,0-0.1,0-0.1c-0.1,0-0.1,0.1-0.1,0.1
				c0,0.1,0,0.1,0.1,0.1c0,0,0,0,0,0L104,92L104,92z"/>
			<path d="M104.3,91.8h0.1l0,0.2c0,0,0,0.1,0,0.1c0,0,0.1,0,0.1-0.1l0-0.2h0.1l0,0.2c0,0.1-0.1,0.2-0.2,0.2c-0.1,0-0.2,0-0.2-0.2
				L104.3,91.8z"/>
			<polygon points="104.7,92.2 104.7,91.8 104.9,91.8 104.8,92.2 			"/>
			<path d="M104.9,92.2l0.1-0.4h0.2c0.1,0,0.2,0.1,0.1,0.1c0,0.1-0.1,0.1-0.2,0.1H105l0,0.1H104.9z M105.1,91.9
				C105.1,91.9,105.1,91.9,105.1,91.9C105.1,91.9,105.1,91.9,105.1,91.9L105.1,91.9L105.1,91.9L105.1,91.9z"/>
			<polygon points="105.2,92.2 105.3,91.8 105.4,91.8 105.5,92 105.6,91.8 105.7,91.8 105.7,92.2 105.5,92.2 105.6,92 105.6,92 
				105.6,91.9 105.6,91.9 105.5,92.2 105.4,92.2 105.4,91.9 105.4,91.9 105.4,92 105.4,92 105.3,92.2 			"/>
			<polygon points="105.7,92.2 105.8,91.8 106.1,91.8 106.1,91.9 105.9,91.9 105.9,91.9 106.1,91.9 106,92 105.9,92 105.9,92.1 
				106.1,92.1 106,92.2 			"/>
			<polygon points="106.4,92 106.4,91.9 106.4,91.8 106.5,91.8 106.5,92.2 106.3,92.2 106.3,91.9 106.2,92 106.2,92.2 106.1,92.2 
				106.2,91.8 106.3,91.8 			"/>
			<polygon points="106.6,91.8 106.9,91.8 106.9,91.9 106.8,91.9 106.8,92.2 106.6,92.2 106.7,91.9 106.6,91.9 			"/>
			<path d="M107.3,91.6h0.2c0,0,0,0,0.1,0c0,0,0,0,0,0.1c0,0,0,0.1,0,0.1c0,0,0,0-0.1,0h-0.1V91.6z M107.3,92.1v-0.2h0.1
				c0,0,0,0,0.1,0c0,0,0,0,0,0.1l0,0.1c0,0,0,0,0,0c0,0,0,0,0,0h0.1v0c0,0,0,0,0,0c0,0,0,0,0,0l0-0.1c0,0,0,0,0-0.1c0,0,0,0,0,0
				c0,0,0,0,0,0c0,0,0,0,0-0.1c0-0.1,0-0.1-0.1-0.1c0,0-0.1,0-0.1,0h-0.2L107.3,92.1L107.3,92.1z"/>
			<path d="M107.4,91.5c-0.2,0-0.4,0.2-0.4,0.4c0,0.2,0.2,0.4,0.4,0.4c0.2,0,0.4-0.2,0.4-0.4C107.8,91.6,107.6,91.5,107.4,91.5
				 M107.4,92.2c-0.2,0-0.3-0.2-0.3-0.3c0-0.2,0.1-0.3,0.3-0.3c0.2,0,0.3,0.2,0.3,0.3C107.8,92,107.6,92.2,107.4,92.2"/>
			<path d="M104.6,92.8h-1.1c0,0-0.5,0-0.8,0.3c0,0-0.6,0.5-0.1,1.2c0,0,0.3,0.4,1.1,0.4h0.7l0.2-0.5h-0.8c0,0-0.3,0-0.5-0.2
				c0,0-0.3-0.3,0-0.6c0,0,0.2-0.2,0.5-0.2h0.8V92.8z"/>
			<path d="M98.1,92.8v1.4c0,0,0,0.5,0.5,0.5h3.5c0,0,0.2,0,0.3-0.1c0,0,0.1-0.1,0.1-0.3c0,0,0-0.2-0.1-0.2l-1.1-0.7
				c0,0-0.1-0.1,0-0.1h1.2l0.2-0.5h-1.8c0,0-0.3,0-0.4,0.2c0,0-0.2,0.3,0.1,0.5l1.1,0.6c0,0,0.2,0.1,0,0.1h-1.1l-0.3,0.5v-1.9h-0.5
				v1.4h-0.8c-0.2,0-0.2-0.2-0.2-0.2v-1.2H97c0,0-0.5,0-0.8,0.3c0,0-0.6,0.5-0.1,1.2c0,0,0.3,0.4,1.1,0.4h0.7l0.2-0.5h-0.8
				c0,0-0.3,0-0.5-0.2c0,0-0.3-0.3,0-0.6c0,0,0.2-0.2,0.5-0.2h0.9"/>
			<path d="M105.7,92.8c-0.7,0-1.2,0.4-1.2,1c0,0.5,0.5,1,1.2,1c0.7,0,1.2-0.4,1.2-1C106.9,93.2,106.3,92.8,105.7,92.8 M105.7,94.2
				c-0.3,0-0.6-0.2-0.6-0.5c0-0.3,0.3-0.5,0.6-0.5c0.3,0,0.6,0.2,0.6,0.5C106.2,94,106,94.2,105.7,94.2"/>
		</g>
	</g>
</g>
<g id="PROTO_III" class="st0">
	<g class="st2">
		
			<linearGradient id="SVGID_1_" gradientUnits="userSpaceOnUse" x1="8.308182e-02" y1="100" x2="199.7507" y2="100" gradientTransform="matrix(0 1 -1 0 200 0)">
			<stop  offset="0" style="stop-color:#CCCCCC"/>
			<stop  offset="0.4077" style="stop-color:#CACACA"/>
			<stop  offset="0.5938" style="stop-color:#C2C2C2"/>
			<stop  offset="0.735" style="stop-color:#B6B6B6"/>
			<stop  offset="0.8535" style="stop-color:#A4A4A4"/>
			<stop  offset="0.9566" style="stop-color:#8C8C8C"/>
			<stop  offset="1" style="stop-color:#808080"/>
		</linearGradient>
		<path class="st13" d="M0.2,188.7V11.1c0-6.1,4.9-11,11-11h177.6c6.1,0,11,4.9,11,11v177.6c0,6.1-4.9,11-11,11H11.2
			C5.1,199.8,0.2,194.8,0.2,188.7z"/>
		<linearGradient id="SVGID_2_" gradientUnits="userSpaceOnUse" x1="40.5394" y1="183.9563" x2="72.4605" y2="183.9563">
			<stop  offset="0" style="stop-color:#999999"/>
			<stop  offset="1" style="stop-color:#404040"/>
		</linearGradient>
		<circle class="st14" cx="56.5" cy="184" r="16"/>
		<g id="SUPRAS_6_" class="st0">
			<g class="st2">
				<path class="st15" d="M38.8,92.5c-2.2,0-4.3-0.1-6.4-0.1l-2.2-0.1c-3.1-0.1-4.5-1.5-4.8-4.6c-0.1-1.5-0.1-9.3-0.1-15.4
					c0-4.1,0.1-7.1,0.1-9c0-0.8,0-1.5,0-2c-0.1-2.7,0.8-5.1,2.6-7.1c1.4-1.6,2.8-3,4.5-4.1l-1.7-0.3c-0.3,0-0.6-0.1-0.8-0.1
					c-0.5-0.1-1.1-0.2-1.6-0.3c-1.1-0.2-1.6-0.8-1.9-1.3c-0.4-0.7-0.5-1.5-0.2-2.4c0.8-2.6,2.6-4.1,5.4-4.5c1.2-0.2,2.2-0.3,3.3-0.4
					c0.1,0,0.2,0,0.3,0c0.8,0,1.5,0.3,1.9,0.8c0.6,0.7,0.5,1.6,0.4,2.2c-0.1,0.4-0.1,0.8-0.2,1.3c0,0.2,0,0.3-0.1,0.5c0,0,0,0,0,0
					c1.4-2.7,2.8-5.5,4.2-8c0.4-0.7,0.8-1.3,1.2-2l0.4-0.7c1-1.7,2.7-2.8,4.9-3.3c4.4-0.9,8.3-1.4,12-1.4c1.2,0,2.3,0.2,3.4,0.4
					c0.6,0.1,1.2,0.2,1.7,0.2c2.1,0.2,4.2,0.3,6.2,0.3c2.6,0,5.1-0.2,7.5-0.6c1.2-0.2,2.5-0.3,3.9-0.3c2.5,0,4.9,0.3,7.2,0.6
					l1.1,0.2c1.1,0.1,2.3,0.4,3.7,0.8c1.9,0.5,3.3,1.6,4.2,3.2l2,3.7c1.2,2.3,2.5,4.6,3.7,6.9c0-0.1-0.2-1.3-0.3-1.9
					c-0.2-1.1,0.2-1.7,0.5-2.1c0.4-0.5,1-0.7,1.7-0.7c0.1,0,0.2,0,0.4,0l0.7,0.1c1.6,0.2,3.2,0.4,4.7,0.9c1.8,0.6,3,2.1,3.5,4.6
					c0.1,0.6,0,1.2-0.3,1.7c-0.4,0.6-1.1,1-2.1,1.2c-0.7,0.1-1.5,0.3-2.2,0.4c-0.5,0.1-1,0.2-1.6,0.3c-0.1,0-0.2,0-0.2,0
					c2.9,1.8,5.2,4.4,6.6,7.5c0.3,0.7,0.5,1.5,0.5,2.5c0.1,4.2,0.2,8.3,0.2,12.5c0.1,3.2,0.1,6.4,0.1,9.7c0,1.4-0.1,2.7-0.1,4
					c0,0.5,0,1-0.1,1.5c0,0.5-0.1,0.9-0.2,1.4c-0.6,2.2-1.9,3.2-4.1,3.2c-4.2,0.1-9.1,0.1-9.4,0.1c0,0-0.1,0-0.1,0
					c-0.3,0-1-0.1-1.7-0.5c-0.9-0.6-0.9-1.6-1-2.2c0-0.2,0-0.4-0.1-0.6c0-0.2-0.1-0.4-0.1-0.5c0-0.1,0-0.1,0-0.2c0,0,0,0-0.1,0
					c-1.1,0-3.1,0.1-5.1,0.2c-1.8,0.1-3.5,0.1-4.4,0.1c-0.5,0-0.8,0-1.1-0.2c-0.7-0.3-1.1-0.8-1.2-1.1c-0.2,0-0.7,0-0.9,0
					c-1.4,0-32.9,0-32.9,0c-0.1,0-0.2,0-0.3,0c-0.1,0.1-0.2,0.2-0.3,0.3c-0.2,0.2-0.5,0.4-0.8,0.7c-0.5,0.4-1.3,0.6-2.3,0.6
					c-0.3,0-0.5,0-0.5,0c0,0-6.4-0.4-8.8-0.4c0,0.1,0,0.2,0,0.2c0,0.3-0.1,0.6-0.2,0.9L41,90c-0.2,0.8-0.3,1.2-0.6,1.6
					C40,92.3,39.3,92.5,38.8,92.5C38.8,92.5,38.8,92.5,38.8,92.5z"/>
				<path d="M60.1,31.8c1.6,0,3.3,0.4,4.9,0.6c2.1,0.2,4.2,0.4,6.3,0.4c2.6,0,5.2-0.2,7.8-0.6c1.2-0.2,2.4-0.3,3.6-0.3
					c2.7,0,5.4,0.4,8.2,0.8c1.2,0.2,2.4,0.4,3.6,0.7c1.4,0.4,2.5,1.2,3.2,2.5c2,3.6,3.9,7.2,5.9,10.9c0.2,0.4,0.4,0.6,0.8,0.6
					c0,0,0.1,0,0.2,0c2.2-0.2,2,0,1.7-2c-0.1-0.6-0.2-1.1-0.3-1.7c-0.1-0.7,0.1-1.1,0.7-1.1c0.1,0,0.1,0,0.2,0
					c1.8,0.2,3.5,0.4,5.2,0.9c1.5,0.5,2.2,2,2.5,3.5c0.1,0.8-0.6,1.1-1.3,1.2c-1.2,0.2-2.5,0.4-3.7,0.6c-1.2,0.2-2.4,0.4-3.5,0.6
					c0,0.1-0.1,0.2-0.1,0.3c0.5,0.4,0.9,0.8,1.4,1.1c3.4,1.7,5.9,4.2,7.5,7.7c0.3,0.6,0.3,1.3,0.4,1.9c0.1,4.2,0.2,8.3,0.2,12.5
					c0.1,3.2,0.1,6.4,0.1,9.7c0,1.8-0.1,3.6-0.2,5.4c0,0.3-0.1,0.7-0.2,1c-0.4,1.5-1.1,2.1-2.7,2.1c-4.3,0.1-9.4,0.1-9.4,0.1
					s0,0-0.1,0c-0.1,0-0.5,0-0.8-0.3c-0.4-0.3-0.3-1-0.4-1.9c-0.2-0.9-0.1-1.7-0.8-1.9c-0.1,0-0.4,0-0.8,0c-2.1,0-7.6,0.3-9.4,0.3
					c-0.3,0-0.5,0-0.5,0c-0.6-0.3-0.5-0.7-0.9-1c-0.4-0.3-1.3-0.3-1.8-0.3c-1.4,0-32.9,0-32.9,0s0,0,0,0c-0.1,0-0.7,0-1.1,0.3
					c-0.4,0.3-0.6,0.6-1.1,0.9c-0.3,0.2-1,0.3-1.4,0.3c-0.2,0-0.4,0-0.4,0S43.5,87,41.1,87c-0.4,0-0.7,0-0.8,0
					c-0.5,0.2-0.5,1.2-0.7,2.3c-0.2,1-0.3,1.4-0.4,1.5C39.1,91,38.8,91,38.8,91c0,0,0,0,0,0c-3,0-5.6-0.1-8.5-0.2
					c-2.3-0.1-3.1-0.9-3.3-3.2c-0.1-1.5-0.1-9.2-0.1-15.3c0.1-5.9,0.1-9.4,0.2-11c0-2.4,0.6-4.4,2.2-6.1c1.7-1.9,3.4-3.8,5.9-4.7
					c0.5-0.2,0.8-0.7,1.2-1c0-0.1-0.1-0.2-0.1-0.2c-1.7-0.3-3.4-0.6-5.1-0.9c-0.8-0.1-1.6-0.3-2.4-0.4c-1-0.2-1.2-0.8-1-1.7
					c0.6-2.1,2-3.2,4.1-3.4c1.1-0.1,2.1-0.3,3.2-0.3c0.1,0,0.1,0,0.2,0c0.8,0,1,0.4,0.9,1.2c-0.2,0.9-0.3,1.8-0.4,2.7
					c-0.1,0.5,0.1,0.7,0.5,0.7c0.4,0,0.8,0,1.1,0.1c0.1,0,0.2,0,0.3,0c0.4,0,0.7-0.2,0.9-0.7c1.4-2.7,2.8-5.4,4.3-8.2
					c0.5-0.9,1-1.8,1.6-2.6c0.9-1.5,2.3-2.2,3.9-2.6C52.2,32.3,56.1,31.8,60.1,31.8C60.1,31.8,60.1,31.8,60.1,31.8 M60.1,28.8
					C60.1,28.8,60.1,28.8,60.1,28.8c-3.8,0-7.8,0.5-12.3,1.4c-2.7,0.5-4.7,1.9-5.9,4c-0.1,0.2-0.3,0.5-0.4,0.7
					c-0.4,0.7-0.8,1.3-1.2,2c-0.6,1.2-1.3,2.5-2,3.7c-0.5-0.6-1.4-1.2-3-1.2c-0.1,0-0.2,0-0.3,0c-1.2,0.1-2.2,0.2-3.4,0.4
					c-3.3,0.4-5.7,2.4-6.6,5.6c-0.5,1.7-0.1,2.8,0.4,3.6c0.4,0.7,1.3,1.6,2.9,1.9c0.3,0.1,0.6,0.1,0.9,0.2c-0.8,0.7-1.4,1.5-2.1,2.2
					c-2,2.3-3,5-2.9,8.1c0,0.5,0,1.1,0,1.9c0,1.9-0.1,4.9-0.1,9c0,5.4,0,13.8,0.1,15.5c0.3,3.9,2.4,5.9,6.2,6l2.2,0.1
					c2.1,0.1,4.2,0.1,6.4,0.1c1.2,0,2.3-0.5,2.9-1.5c0.5-0.6,0.6-1.3,0.8-2.2l0.1-0.4c2.8,0.1,7.3,0.4,7.5,0.4c0,0,0,0,0,0
					c0,0,0.3,0,0.6,0c1.4,0,2.4-0.3,3.2-0.8c0.4-0.3,0.6-0.5,0.8-0.7c3.3,0,31.3,0,32.6,0c0,0,0.1,0,0.1,0c0.3,0.3,0.7,0.7,1.4,1
					c0.6,0.3,1.1,0.3,1.8,0.3c0.9,0,2.6-0.1,4.4-0.1c1.3,0,2.6-0.1,3.7-0.1c0,0.8,0.2,2.3,1.6,3.3c1,0.7,2,0.8,2.5,0.8
					c0.1,0,0.1,0,0.2,0c0.6,0,5.4,0,9.4-0.1c2.9,0,4.8-1.5,5.6-4.3c0.1-0.5,0.2-1.1,0.3-1.7c0-0.5,0-0.9,0.1-1.4
					c0.1-1.3,0.1-2.7,0.1-4.1c0-3.2-0.1-6.5-0.1-9.7c-0.1-4.2-0.1-8.3-0.2-12.5c0-1.2-0.2-2.2-0.6-3.1c-1-2.3-2.5-4.4-4.3-6
					c0.2,0,0.4-0.1,0.6-0.1c1.4-0.3,2.4-0.9,3.1-1.8c0.6-0.8,0.8-1.9,0.6-2.9c-0.7-3.8-2.9-5.3-4.5-5.8c-1.7-0.5-3.4-0.7-5-0.9
					l-0.7-0.1c-0.2,0-0.4,0-0.6,0c-1.1,0-2.1,0.4-2.8,1.3c0,0,0,0,0,0c-0.5-0.9-0.9-1.7-1.4-2.6c-0.7-1.2-1.3-2.5-2-3.7
					c-1.1-2-2.9-3.4-5.1-3.9c-1.5-0.4-2.7-0.6-3.9-0.8l-1.1-0.2c-2.4-0.3-4.9-0.7-7.4-0.7c-1.5,0-2.8,0.1-4.1,0.3
					c-2.3,0.4-4.7,0.6-7.3,0.6c-1.9,0-3.9-0.1-6-0.3c-0.5-0.1-1.1-0.1-1.6-0.2C62.6,28.9,61.4,28.8,60.1,28.8L60.1,28.8z"/>
			</g>
			<g class="st2">
				<path class="st16" d="M50.4,125.5c-2.7,0-5.2-0.1-7.8-0.1l-2.7-0.1c-3.6-0.1-5.2-1.7-5.5-5.5c-0.1-1.9-0.2-11.9-0.1-19.7
					c0-5.3,0.1-9.1,0.2-11.5c0-1.1,0-1.9,0-2.5c-0.1-3.4,0.9-6.3,3-8.8c1.9-2.3,3.8-4.4,6.4-5.8l-3.2-0.6c-0.3-0.1-0.7-0.1-1-0.2
					c-0.7-0.1-1.3-0.2-2-0.4c-1.2-0.3-1.8-0.9-2.1-1.4c-0.4-0.7-0.5-1.6-0.2-2.7c0.9-3.1,3-5,6.3-5.5c1.4-0.2,2.7-0.4,4.1-0.4
					c0.1,0,0.2,0,0.3,0c0.9,0,1.6,0.3,2.1,0.8c0.7,0.8,0.6,1.8,0.5,2.5c-0.1,0.5-0.2,1.1-0.2,1.6c-0.1,0.4-0.1,0.7-0.2,1.1
					c0.2,0,0.4,0,0.6,0.1c0,0,0,0,0,0c1.7-3.6,3.5-7.2,5.2-10.5c0.4-0.9,0.9-1.7,1.4-2.5l0.5-0.9c1.2-2.1,3.2-3.5,5.8-4
					c5.4-1.2,10.2-1.7,14.7-1.7c1.4,0,2.8,0.2,4.1,0.5c0.7,0.1,1.4,0.2,2.1,0.3c2.6,0.3,5.2,0.4,7.6,0.4c3.2,0,6.3-0.3,9.2-0.8
					c1.5-0.3,3-0.4,4.7-0.4c3,0,5.9,0.4,8.8,0.8l1.4,0.2c1.3,0.2,2.8,0.5,4.5,1c2.2,0.6,3.9,1.9,4.9,3.9l2.4,4.7
					c1.6,3,3.1,6,4.7,9.1c0.2,0,0.6-0.1,0.6-0.1c0-0.2-0.1-0.5-0.1-0.8c-0.1-0.7-0.2-1.4-0.3-2.2c-0.1-1,0-1.8,0.5-2.4
					c0.4-0.5,1.1-0.8,1.8-0.8c0.1,0,0.3,0,0.4,0l0.9,0.1c1.9,0.2,3.8,0.5,5.7,1.1c2.1,0.7,3.5,2.5,4,5.6c0.2,1.3-0.4,2.8-2.7,3.3
					c-0.9,0.2-1.8,0.3-2.7,0.5c-0.6,0.1-1.3,0.2-1.9,0.3c-0.5,0.1-0.9,0.2-1.4,0.3c4,2.3,7,5.7,8.9,10.1c0.3,0.8,0.5,1.8,0.6,3
					c0.1,5.3,0.2,10.7,0.3,16c0.1,4.1,0.1,8.3,0.2,12.4c0,1.7-0.1,3.5-0.2,5.2c0,0.6-0.1,1.2-0.1,1.8c0,0.6-0.1,1.1-0.2,1.6
					c-0.7,2.6-2.2,3.8-4.8,3.9c-5.2,0.1-11.2,0.1-11.6,0.1c0,0-0.1,0-0.1,0c-0.4,0-1.2-0.1-1.9-0.6c-0.9-0.7-1-1.7-1-2.5
					c0-0.3,0-0.6-0.1-0.9c0-0.2-0.1-0.5-0.1-0.7c0-0.2-0.1-0.4-0.1-0.6c-0.1,0-0.2,0-0.3,0c-1.3,0-3.8,0.1-6.2,0.2
					c-2.2,0.1-4.3,0.2-5.3,0.2c-0.6,0-1,0-1.3-0.2c-0.9-0.4-1.2-1-1.4-1.3c0,0,0,0,0,0c-0.3-0.1-1.1-0.1-1.3-0.1
					c-1.8,0-40.4,0.1-40.4,0.1c-0.2,0-0.4,0-0.5,0.1c-0.1,0.1-0.3,0.2-0.4,0.4c-0.3,0.2-0.6,0.5-1,0.8c-0.6,0.4-1.5,0.7-2.7,0.7
					c-0.4,0-0.6,0-0.6,0c-0.1,0-8.3-0.6-11-0.6c0,0,0,0,0,0c0,0.2-0.1,0.4-0.1,0.6c-0.1,0.4-0.1,0.8-0.2,1.1l-0.1,0.6
					c-0.2,1-0.3,1.5-0.6,1.9C51.8,125.2,51,125.5,50.4,125.5C50.5,125.5,50.5,125.5,50.4,125.5z"/>
				<path d="M76.6,48c2,0,4,0.5,6.1,0.8c2.6,0.3,5.2,0.5,7.8,0.5c3.2,0,6.4-0.2,9.5-0.8c1.5-0.3,3-0.4,4.4-0.4c3.4,0,6.7,0.5,10,1
					c1.5,0.2,2.9,0.5,4.4,0.9c1.7,0.5,3.1,1.5,4,3.2c2.4,4.6,4.8,9.3,7.2,13.9c0.2,0.5,0.5,0.7,1,0.7c0.1,0,0.1,0,0.2,0
					c2.7-0.3,2.4,0,2-2.6c-0.1-0.7-0.2-1.4-0.3-2.1c-0.1-0.9,0.1-1.4,0.8-1.4c0.1,0,0.1,0,0.2,0c2.1,0.3,4.3,0.5,6.4,1.1
					c1.9,0.6,2.7,2.5,3,4.4c0.2,1-0.7,1.4-1.6,1.5c-1.5,0.3-3.1,0.5-4.6,0.8c-1.4,0.3-2.9,0.5-4.3,0.8c0,0.1-0.1,0.2-0.1,0.3
					c0.6,0.5,1.1,1,1.7,1.4c4.2,2.2,7.3,5.4,9.2,9.9c0.3,0.7,0.4,1.6,0.4,2.4c0.1,5.3,0.2,10.7,0.3,16c0.1,4.1,0.1,8.3,0.2,12.4
					c0,2.3-0.1,4.6-0.2,6.9c0,0.4-0.1,0.9-0.2,1.3c-0.5,1.9-1.4,2.7-3.3,2.7c-5.3,0.1-11.6,0.1-11.6,0.1s0,0-0.1,0
					c-0.2,0-0.6,0-1-0.3c-0.5-0.4-0.3-1.3-0.5-2.4c-0.2-1.2-0.1-2.2-1-2.5c-0.1,0-0.5,0-1,0c-2.6,0-9.4,0.4-11.5,0.4
					c-0.4,0-0.6,0-0.6,0c-0.8-0.4-0.6-0.8-1.1-1.2c-0.6-0.4-1.6-0.4-2.3-0.4c-1.8,0-40.4,0.1-40.4,0.1s0,0,0,0c-0.2,0-0.9,0-1.3,0.4
					c-0.5,0.4-0.8,0.7-1.4,1.2c-0.4,0.3-1.2,0.4-1.8,0.4c-0.3,0-0.5,0-0.5,0s-8.3-0.6-11.2-0.6c-0.5,0-0.8,0-0.9,0.1
					c-0.6,0.3-0.6,1.6-0.9,2.9c-0.3,1.3-0.4,1.8-0.5,2c-0.2,0.2-0.5,0.3-0.6,0.3c0,0,0,0,0,0c-3.6,0-6.8-0.1-10.5-0.2
					c-2.9-0.1-3.8-1.1-4-4.2c-0.1-1.9-0.1-11.8-0.1-19.6c0.1-7.6,0.2-12,0.2-14.1c-0.1-3,0.8-5.6,2.7-7.9c2.1-2.5,4.2-4.8,7.3-6.1
					c0.6-0.2,1-0.9,1.4-1.3c0-0.1-0.1-0.2-0.1-0.3c-2.1-0.4-4.1-0.8-6.2-1.2c-1-0.2-2-0.3-2.9-0.5c-1.2-0.3-1.5-1-1.2-2.2
					c0.7-2.7,2.5-4.1,5-4.4c1.3-0.2,2.6-0.4,3.9-0.4c0.1,0,0.1,0,0.2,0c1,0,1.2,0.5,1.1,1.6c-0.2,1.2-0.3,2.3-0.5,3.5
					c-0.1,0.6,0.1,0.8,0.7,0.9c0.5,0,0.9,0,1.4,0.1c0.1,0,0.3,0,0.4,0c0.5,0,0.8-0.3,1.1-0.9c1.7-3.5,3.5-7,5.2-10.5
					c0.6-1.2,1.3-2.3,1.9-3.4c1.1-1.9,2.8-2.9,4.8-3.3C67,48.7,71.7,48,76.6,48C76.6,48,76.6,48,76.6,48 M76.6,45
					C76.6,45,76.6,45,76.6,45c-4.6,0-9.5,0.6-15,1.8c-3.1,0.7-5.4,2.3-6.8,4.8c-0.2,0.3-0.4,0.6-0.5,0.9c-0.5,0.8-1,1.7-1.4,2.6
					c-0.9,1.9-1.9,3.8-2.9,5.8c-0.1-0.3-0.3-0.5-0.5-0.8c-0.5-0.6-1.5-1.4-3.2-1.4c-0.1,0-0.2,0-0.4,0c-1.4,0.1-2.7,0.3-4.2,0.5
					c-3.8,0.5-6.5,2.9-7.5,6.6c-0.5,1.8-0.1,3.1,0.4,3.9c0.4,0.7,1.3,1.7,3.1,2.1c0.7,0.2,1.4,0.3,2,0.4c0.2,0,0.5,0.1,0.7,0.1
					c-1.4,1.2-2.6,2.6-3.8,4c-2.3,2.8-3.5,6.1-3.4,9.8c0,0.6,0,1.4,0,2.5c0,2.5-0.1,6.2-0.2,11.5c-0.1,6.9-0.1,17.6,0.1,19.8
					c0.2,2.9,1.1,6.8,7,6.9c0.9,0,1.8,0,2.7,0.1c2.6,0.1,5.1,0.1,7.8,0.1c1,0,2.3-0.4,3.1-1.6c0.5-0.7,0.6-1.3,0.8-2.5l0.1-0.6
					c0-0.2,0.1-0.4,0.1-0.6c3.4,0.1,9.5,0.5,9.7,0.5c0,0,0,0,0,0c0,0,0.3,0,0.7,0c1.5,0,2.7-0.3,3.6-1c0.5-0.4,0.8-0.7,1.1-0.9
					c0,0,0,0,0,0c2.8,0,38.5-0.1,40.2-0.1c0.1,0,0.3,0,0.5,0c0.3,0.4,0.8,0.9,1.6,1.3c0.6,0.3,1.2,0.3,1.9,0.3
					c1.1,0,3.2-0.1,5.4-0.2c1.9-0.1,3.8-0.2,5.2-0.2c0,0.2,0,0.5,0.1,0.7c0,0.9,0.1,2.5,1.6,3.6c1.1,0.8,2.2,0.9,2.8,0.9
					c0.1,0,0.1,0,0.2,0c0.7,0,6.6,0,11.5-0.1c3.3,0,5.3-1.7,6.2-5c0.2-0.6,0.3-1.3,0.3-2c0-0.6,0.1-1.2,0.1-1.8
					c0.1-1.7,0.2-3.5,0.2-5.3c0-4.1-0.1-8.3-0.2-12.4c-0.1-5.3-0.2-10.7-0.3-16c0-1.4-0.3-2.5-0.7-3.5c-1.5-3.5-3.6-6.4-6.4-8.7
					c0.8-0.1,1.6-0.3,2.4-0.4c3.3-0.6,4.3-3,3.9-5c-0.7-3.6-2.4-5.9-5-6.7c-2-0.6-4-0.9-6-1.1l-0.9-0.1c-0.2,0-0.4,0-0.6,0
					c-1.2,0-2.2,0.5-2.9,1.3c-0.2,0.2-0.4,0.6-0.6,0.9c-0.7-1.4-1.5-2.9-2.2-4.3c-0.8-1.6-1.7-3.2-2.5-4.8c-1.2-2.4-3.3-4-5.9-4.7
					c-1.8-0.5-3.3-0.8-4.7-1c-0.5-0.1-0.9-0.1-1.4-0.2c-2.9-0.4-5.9-0.8-9-0.8c-1.8,0-3.4,0.1-5,0.4c-2.9,0.5-5.9,0.8-9,0.8
					c-2.4,0-4.9-0.1-7.4-0.4c-0.7-0.1-1.3-0.2-2.1-0.3C79.6,45.2,78.1,45,76.6,45L76.6,45z"/>
			</g>
			<g class="st2">
				<path class="st10" d="M62.3,158.5c-3.2,0-6.1-0.1-9.2-0.2l-3.1-0.1c-4.1-0.1-5.9-1.9-6.2-6.1c-0.2-2.2-0.2-13.5-0.1-22.2
					c0.1-6,0.1-10.2,0.2-13c0-1.2,0-2.2,0-2.8c-0.1-3.8,1.1-7.1,3.5-9.9c2.3-2.7,4.7-5.2,8-6.8L51,96.7c-0.4-0.1-0.8-0.1-1.2-0.2
					c-0.8-0.1-1.5-0.3-2.3-0.4c-1.1-0.2-1.9-0.7-2.3-1.5c-0.5-0.8-0.5-1.8-0.2-2.9c1-3.5,3.5-5.5,7.2-6c1.7-0.2,3.2-0.4,4.8-0.5
					c0.1,0,0.2,0,0.3,0c0.4,0,1.5,0,2.2,0.9c0.7,0.8,0.6,1.9,0.5,2.7c-0.1,0.6-0.2,1.2-0.3,1.8c-0.1,0.5-0.1,0.9-0.2,1.4
					c0.4,0,0.7,0.1,1.1,0.1c0,0,0,0,0,0c0,0,0.1-0.1,0.1-0.2c2.1-4,4.2-8.1,6.2-11.8c0.5-1,1.1-1.9,1.6-2.8c0.2-0.4,0.4-0.7,0.6-1.1
					c1.4-2.3,3.6-3.8,6.7-4.4c6.4-1.3,12-1.9,17.2-1.9c1.7,0,3.3,0.3,4.8,0.5c0.9,0.1,1.7,0.3,2.5,0.4c3.1,0.3,6.1,0.5,9,0.5
					c3.8,0,7.5-0.3,11-0.9c1.7-0.3,3.5-0.4,5.5-0.4c3.5,0,7,0.5,10.4,0.9l1.7,0.2c1.6,0.2,3.3,0.5,5.3,1.1c2.5,0.7,4.4,2.1,5.6,4.3
					l2.8,5.2c1.9,3.5,3.8,7,5.7,10.5c0.3,0,1.1-0.1,1.2-0.1c0-0.1,0-0.1,0-0.2c0-0.3-0.1-0.5-0.2-0.9c-0.1-0.8-0.3-1.6-0.4-2.4
					c-0.2-1,0-1.9,0.5-2.5c0.5-0.5,1.1-0.8,1.9-0.8c0.1,0,0.3,0,0.4,0l1.1,0.1c2.2,0.3,4.5,0.5,6.7,1.2c2.4,0.7,3.9,2.8,4.6,6.1
					c0.1,0.7,0,1.4-0.4,2c-0.5,0.7-1.4,1.2-2.6,1.5c-1,0.2-2.1,0.4-3.2,0.5c-0.8,0.1-1.5,0.3-2.3,0.4c-0.7,0.1-1.4,0.3-2.2,0.4
					c4.9,2.6,8.6,6.5,10.8,11.5c0.4,0.9,0.6,2,0.6,3.3c0.1,6,0.2,12,0.3,18c0.1,4.7,0.1,9.3,0.2,14c0,2-0.1,3.9-0.2,5.8
					c0,0.7-0.1,1.4-0.1,2.1c0,0.6-0.1,1.3-0.3,1.8c-0.8,2.9-2.4,4.1-5.4,4.2c-6.1,0.1-13.3,0.1-13.6,0.1c0,0-0.1,0-0.1,0
					c-0.4,0-1.3-0.1-2-0.6c-1-0.7-1.1-1.8-1.1-2.7c0-0.3,0-0.6-0.1-1c0-0.3-0.1-0.5-0.1-0.7c0-0.3-0.1-0.6-0.1-0.8
					c-0.1,0-0.3,0-0.6,0c-1.6,0-4.5,0.1-7.3,0.2c-2.6,0.1-5,0.2-6.3,0.2c-0.7,0-1.1,0-1.4-0.2c-1-0.4-1.3-1-1.5-1.4
					c0,0,0-0.1-0.1-0.1c-0.3-0.2-1.4-0.2-1.8-0.2c-2.1,0-47.7,0.1-47.7,0.1c-0.3,0-0.6,0.1-0.7,0.1c-0.2,0.1-0.4,0.3-0.5,0.5
					c-0.3,0.3-0.6,0.6-1.1,0.9c-0.6,0.5-1.6,0.7-3,0.7c-0.4,0-0.7,0-0.7,0c-0.1,0-9.8-0.6-13.1-0.6c-0.1,0-0.2,0-0.3,0
					c-0.1,0.3-0.1,0.6-0.2,0.9c-0.1,0.4-0.1,0.8-0.2,1.3l-0.1,0.6c-0.3,1.2-0.4,1.7-0.7,2.1C63.6,158.5,62.5,158.5,62.3,158.5
					C62.3,158.5,62.3,158.5,62.3,158.5z"/>
				<path d="M93.1,71.2c2.4,0,4.8,0.6,7.2,0.9c3.1,0.3,6.1,0.5,9.2,0.5c3.8,0,7.5-0.3,11.2-0.9c1.8-0.3,3.5-0.4,5.2-0.4
					c4,0,7.9,0.6,11.8,1.1c1.7,0.2,3.5,0.6,5.1,1c2,0.5,3.7,1.7,4.7,3.6c2.8,5.2,5.7,10.5,8.5,15.7c0.3,0.5,0.6,0.8,1.2,0.8
					c0.1,0,0.1,0,0.2,0c3.2-0.4,2.9,0.1,2.4-2.9c-0.1-0.8-0.3-1.6-0.4-2.4c-0.2-1,0.1-1.6,1-1.6c0.1,0,0.2,0,0.3,0
					c2.5,0.3,5.1,0.6,7.6,1.3c2.2,0.7,3.1,2.9,3.5,5c0.2,1.1-0.9,1.5-1.8,1.7c-1.8,0.3-3.6,0.6-5.4,0.9c-1.7,0.3-3.4,0.6-5.1,0.9
					c-0.1,0.1-0.1,0.3-0.2,0.4c0.7,0.5,1.3,1.2,2,1.5c4.9,2.4,8.6,6.1,10.8,11.1c0.4,0.8,0.5,1.8,0.5,2.7c0.1,6,0.2,12,0.3,18
					c0.1,4.7,0.1,9.3,0.2,14c0,2.6-0.2,5.2-0.3,7.8c0,0.5-0.1,1-0.2,1.5c-0.6,2.2-1.7,3-3.9,3.1c-6.3,0.1-13.7,0.1-13.7,0.1
					s0,0-0.1,0c-0.2,0-0.7,0-1.2-0.4c-0.6-0.4-0.4-1.4-0.6-2.7c-0.2-1.3-0.2-2.5-1.2-2.8c-0.1,0-0.6-0.1-1.2-0.1
					c-3.1,0-11.1,0.4-13.6,0.4c-0.4,0-0.7,0-0.8,0c-0.9-0.4-0.7-0.9-1.3-1.4c-0.6-0.4-1.8-0.4-2.7-0.4c-2.1,0-47.7,0.1-47.7,0.1
					s0,0,0,0c-0.2,0-1,0-1.5,0.4c-0.6,0.4-0.9,0.8-1.7,1.4c-0.5,0.3-1.5,0.4-2.1,0.4c-0.4,0-0.6,0-0.6,0s-9.8-0.6-13.2-0.6
					c-0.6,0-1,0-1.1,0.1c-0.7,0.3-0.7,1.8-1,3.3c-0.3,1.4-0.4,2-0.6,2.2c-0.2,0.3-0.6,0.3-0.7,0.3c0,0,0,0,0,0
					c-4.3,0-8.1-0.1-12.4-0.2c-3.4-0.1-4.5-1.3-4.8-4.7C45,150,45,138.8,45.1,130c0.1-8.6,0.2-13.6,0.2-15.9
					c-0.1-3.4,0.9-6.3,3.2-8.9c2.5-2.8,5-5.5,8.6-6.9c0.7-0.3,1.1-1,1.7-1.5c-0.1-0.1-0.1-0.2-0.2-0.4c-2.4-0.4-4.9-0.9-7.3-1.3
					c-1.2-0.2-2.3-0.4-3.5-0.6c-1.4-0.3-1.8-1.2-1.4-2.5c0.9-3,2.9-4.6,6-5c1.5-0.2,3.1-0.4,4.6-0.5c0.1,0,0.2,0,0.3,0
					c1.2,0,1.5,0.5,1.2,1.8c-0.2,1.3-0.4,2.6-0.6,3.9c-0.1,0.7,0.1,1,0.8,1c0.5,0,1.1,0.1,1.6,0.2c0.2,0,0.3,0.1,0.5,0.1
					c0.6,0,1-0.4,1.3-1c2-4,4.1-7.9,6.2-11.8c0.7-1.3,1.5-2.6,2.3-3.8c1.3-2.2,3.3-3.2,5.7-3.7C81.8,72,87.4,71.2,93.1,71.2
					C93.1,71.2,93.1,71.2,93.1,71.2 M93.1,68.2C93.1,68.2,93.1,68.2,93.1,68.2c-5.4,0-11.1,0.7-17.6,2c-3.5,0.7-6.1,2.4-7.7,5.1
					c-0.2,0.4-0.4,0.7-0.6,1.1c-0.6,0.9-1.2,1.9-1.7,2.9c-1.3,2.5-2.7,5.1-4.1,7.7c-0.1-0.6-0.3-1.4-0.9-2c-0.8-0.9-1.9-1.4-3.4-1.4
					c-0.1,0-0.3,0-0.4,0c-1.6,0.1-3.2,0.3-4.9,0.5c-4.3,0.6-7.2,3-8.4,7.1c-0.6,1.9-0.1,3.3,0.4,4.1c0.5,0.8,1.4,1.8,3.3,2.2
					c0.8,0.2,1.6,0.3,2.4,0.4c0.4,0.1,0.8,0.1,1.2,0.2c0.2,0,0.3,0.1,0.5,0.1c-1.9,1.5-3.5,3.2-5,5c-2.7,3-4,6.7-3.9,10.9
					c0,0.7,0,1.6,0,2.8c-0.1,2.8-0.1,7-0.2,13c-0.1,8.8-0.1,20.1,0.1,22.3c0.4,5,2.8,7.4,7.7,7.5c1.1,0,2.2,0,3.2,0.1
					c3.1,0.1,6,0.1,9.2,0.2c1,0,2.3-0.4,3.1-1.6c0.5-0.7,0.7-1.4,0.9-2.7l0.1-0.7c0.1-0.3,0.1-0.7,0.2-1c3.8,0.1,11.8,0.6,12,0.6
					c0,0,0,0,0,0c0,0,0.3,0,0.8,0c1.7,0,2.9-0.3,3.8-1c0.6-0.4,0.9-0.7,1.2-1c0.1-0.1,0.1-0.1,0.2-0.2c0,0,0,0,0,0c0,0,0,0,0,0
					c0.5,0,45.6-0.1,47.7-0.1c0.2,0,0.6,0,0.9,0c0.3,0.5,0.9,1.1,1.9,1.5c0.6,0.3,1.2,0.3,2,0.3c1.3,0,3.7-0.1,6.3-0.2
					c2.5-0.1,5-0.2,6.6-0.2c0,0.1,0,0.2,0.1,0.3c0,0.3,0.1,0.5,0.1,0.8c0.1,0.9,0.2,2.7,1.8,3.8c1.1,0.8,2.3,0.9,2.9,0.9
					c0.1,0,0.1,0,0.2,0c0.8,0,7.7-0.1,13.6-0.1c3.6-0.1,5.8-1.8,6.8-5.3c0.2-0.7,0.3-1.4,0.3-2.2c0-0.7,0.1-1.4,0.1-2.1
					c0.1-1.9,0.2-3.9,0.2-5.9c-0.1-4.7-0.1-9.3-0.2-14c-0.1-6-0.2-12-0.3-18c0-1.5-0.3-2.8-0.8-3.9c-1.8-4.1-4.5-7.5-8.1-10.1
					c0.2,0,0.4-0.1,0.6-0.1c1.1-0.2,2.1-0.4,3.2-0.6c1.7-0.3,2.9-1,3.6-2.1c0.6-0.9,0.8-2,0.6-3.1c-0.8-3.9-2.7-6.4-5.6-7.3
					c-2.3-0.7-4.7-1-7-1.3c-0.4,0-0.7-0.1-1.1-0.1c-0.2,0-0.4,0-0.6,0c-1.2,0-2.3,0.5-3.1,1.4c-0.4,0.5-0.8,1.2-0.9,2.2
					c-1.1-2-2.2-4.1-3.3-6.1c-1-1.8-2-3.6-2.9-5.4c-1.4-2.6-3.7-4.3-6.6-5.1c-2.1-0.5-3.9-0.9-5.5-1.1c-0.6-0.1-1.1-0.1-1.7-0.2
					c-3.4-0.5-6.9-0.9-10.6-0.9c-2,0-3.9,0.1-5.7,0.5c-3.4,0.6-7,0.9-10.7,0.9c-2.8,0-5.8-0.2-8.8-0.5c-0.8-0.1-1.6-0.2-2.5-0.4
					C96.5,68.5,94.9,68.2,93.1,68.2L93.1,68.2z"/>
			</g>
		</g>
	</g>
</g>
<path class="st17" d="M0.2,188.7V11.1c0-6.1,4.9-11,11-11h177.6c6.1,0,11,4.9,11,11v177.6c0,6.1-4.9,11-11,11H11.2
	C5.1,199.8,0.2,194.8,0.2,188.7z"/>
<path class="st18" d="M0.2,180.8V19c0-10.5,8.5-19,19-19h161.8c10.5,0,19,8.5,19,19v161.8c0,10.5-8.5,19-19,19H19.1
	C8.7,199.8,0.2,191.3,0.2,180.8z"/>
<g id="supra_1_">
	<g>
		<path class="st19" d="M199.5,125.3c-0.2-9.4-0.3-18.7-0.5-28.1c0-1.4-0.2-3-0.8-4.3c-3.5-7.8-9.2-13.6-16.8-17.4
			c-1.2-0.6-2.1-1.6-3.1-2.4c0-0.1,0.1-0.2,0.1-0.3l0,0c0-0.1,0.1-0.2,0.1-0.3c2.7-0.5,5.3-1,8-1.5c2.8-0.5,5.6-0.9,8.4-1.4
			c1.5-0.3,3.2-1,2.9-2.7c-0.7-3.3-2-6.7-5.5-7.8c-3.8-1.1-7.8-1.5-11.8-2c-1.6-0.2-2.2,0.8-2,2.5c0.2,1.3,0.4,2.5,0.6,3.8
			c0.8,4.6,1.3,4-3.7,4.5c-1.1,0.1-1.6-0.3-2.1-1.2c-4.4-8.2-8.8-16.3-13.3-24.5c-1.6-3-4.1-4.8-7.3-5.6c-2.6-0.7-5.3-1.3-8-1.6
			c-8.8-1.2-17.6-2.6-26.6-1.1c-10.5,1.8-21.2,1.8-31.8,0.6c-3.7-0.4-7.5-1.4-11.2-1.3c-8.9,0-17.7,1.2-26.4,3
			c-3.7,0.8-6.9,2.4-8.9,5.8c-1.2,2-2.4,3.9-3.5,6c-3.3,6.1-6.5,12.2-9.6,18.4c-0.7,1.3-1.4,1.8-2.8,1.5c-0.8-0.2-1.7-0.2-2.5-0.3
			c-1-0.1-1.4-0.5-1.2-1.6c0.4-2,0.6-4.1,1-6.1c0.4-2.1-0.2-2.9-2.3-2.8c-2.4,0.1-4.8,0.4-7.2,0.8c-4.7,0.6-7.9,3.1-9.3,7.8
			c-0.6,2.1,0,3.4,2.2,3.9c1.8,0.4,3.6,0.6,5.4,0.9c3.7,0.6,7.3,1.3,10.9,1.9l0,0c0.2,0,0.3,0.1,0.5,0.1c0.1,0.2,0.2,0.4,0.2,0.6
			c-0.9,0.8-1.6,1.9-2.7,2.3c-5.6,2.2-9.5,6.4-13.4,10.7c-3.5,4-5.1,8.5-4.9,13.9c0,3.6-0.2,11.3-0.4,24.7
			c-0.1,13.7-0.1,31.2,0.2,34.4c0.4,5.3,2.1,7.2,7.4,7.3c6.7,0.1,12.6,0.3,19.3,0.4c0.1,0,0.7,0,1-0.5c0.3-0.4,0.4-1.3,0.9-3.5
			c0.5-2.3,0.5-4.6,1.6-5.1c1.1-0.5,22.2,0.9,22.2,0.9s3,0.2,4.2-0.6c1.2-0.8,1.7-1.5,2.6-2.1c0.9-0.7,2.5-0.6,2.5-0.6
			s71.1-0.1,74.3-0.1c1.3,0,3.1,0,4.1,0.7c1,0.7,0.7,1.5,2.1,2.2c0.8,0.4,22.6-0.9,24.2-0.5c1.6,0.4,1.5,2.2,1.9,4.3
			c0.3,2,0,3.6,0.9,4.2s2,0.6,2,0.6s11.5-0.1,21.3-0.2c3.5-0.1,5.2-1.4,6.1-4.8c0.2-0.8,0.3-1.6,0.4-2.3c0.2-4.1,0.5-8.1,0.4-12.2
			C199.7,139.8,199.6,132.6,199.5,125.3z M191.1,101c0.2,4-1.3,5.4-4.6,6.4c-3.3,1-27.2,4.9-42.9,6.8c-7.4,0.9-12.4,1.4-14.3,1
			c-2.1-0.4-0.7-1.7,0.4-2.3c2.1-1.2,6-1.3,9.3-2.2c3.3-0.9,5.4-1.9,6.4-3.3c1-1.4,4.2-4.3,7.8-7.6c3.6-3.3,4.7-3.7,11.9-4.8
			c7.2-1.2,11.7-2.2,18.4-1.5C190.4,94.3,190.9,97,191.1,101z M14.4,93.6c6.7-0.7,11.2,0.3,18.4,1.5c7.2,1.2,8.3,1.5,11.9,4.8
			c3.6,3.3,6.8,6.2,7.8,7.6c1,1.4,3.2,2.4,6.4,3.3c3.3,0.9,7.3,1,9.3,2.2c1.1,0.6,2.5,1.9,0.4,2.3c-1.9,0.3-6.8-0.1-14.3-1
			c-15.7-1.9-39.6-5.8-42.9-6.8c-3.3-1-4.8-2.5-4.6-6.4S7.7,94.3,14.4,93.6z"/>
	</g>
	<g>
		<path d="M4.6,69.6c1.8,0.4,3.6,0.6,5.4,0.9c3.7,0.6,7.3,1.3,10.9,1.9c2.3-0.9,4.8-1.8,7.4-2.5c8.5-2.2,17.8-3.6,71.8-3.6
			c53.8,0,65.7,2.1,72.1,4.1c1.4,0.5,3.6,1.3,6.3,2.4c0-0.1,0.1-0.2,0.1-0.3c2.7-0.5,5.3-1,8-1.5c2.8-0.5,5.6-0.9,8.4-1.4
			c1.5-0.3,3.2-1,2.9-2.7c-0.7-3.3-2-6.7-5.5-7.8c-3.8-1.1-7.8-1.5-11.8-2c-1.6-0.2-2.2,0.8-2,2.5c0.2,1.3,0.4,2.5,0.6,3.8
			c0.8,4.6,1.3,4-3.7,4.5c-1.1,0.1-1.6-0.3-2.1-1.2c-4.4-8.2-8.8-16.3-13.3-24.5c-0.1-0.2-0.2-0.3-0.3-0.5
			c-20.9-1.5-44.2-2.8-59.7-2.8c-18.1-0.6-41.4,0.6-59.4,1.9c-0.3,0.4-0.5,0.7-0.8,1.2c-1.2,2-2.4,3.9-3.5,6
			c-3.3,6.1-6.5,12.2-9.6,18.4c-0.7,1.3-1.4,1.8-2.8,1.5c-0.8-0.2-1.7-0.2-2.5-0.3c-1-0.1-1.4-0.5-1.2-1.6c0.4-2,0.6-4.1,1-6.1
			c0.4-2.1-0.2-2.9-2.3-2.8c-2.4,0.1-4.8,0.4-7.2,0.8c-4.7,0.6-7.9,3.1-9.3,7.8C1.7,67.8,2.4,69.1,4.6,69.6z"/>
	</g>
	<g>
		<path class="st19" d="M100,38.9c15.5,0,38.7,1.4,59.7,2.8c0.1,0.2,0.2,0.3,0.3,0.5c-1.6-3-4.1-4.8-7.3-5.6c-2.6-0.7-5.3-1.3-8-1.6
			c-8.8-1.2-17.6-2.6-26.6-1.1c-10.5,1.8-21.2,1.8-31.8,0.6c-3.7-0.4-7.5-1.4-11.2-1.3c-8.9,0-17.7,1.2-26.4,3
			c-3.2,0.7-6.1,2-8.1,4.7C58.6,39.5,81.9,38.3,100,38.9z"/>
	</g>
	<path class="st20" d="M172.7,134.4C172.7,134.4,172.7,134.4,172.7,134.4L172.7,134.4C172.7,134.4,172.7,134.3,172.7,134.4
		C172.7,134.3,172.7,134.3,172.7,134.4c0-0.1,0-0.2,0-0.2c-0.1-0.5-0.2-1-0.4-1.5c-0.1-0.5-1.2-2.1-1.7-4.2c-0.2-1-0.1-3.1-0.1-3.4
		c0-0.3-0.4-0.7-1.3-0.7c-0.9,0-1.2,0.2-1.2,0.6c0,0.9,0-0.5,0,0.5c0,0.3-2,0.3-3,0.3c-1,0-3,0-3-0.3c0-0.9,0,0.4,0-0.5
		c0-0.4-0.3-0.6-1.2-0.6c-0.9,0-1.3,0.4-1.3,0.7c0,0.3,0.1,2.4-0.1,3.4c-0.5,2.1-1.6,3.7-1.7,4.2c-0.2,0.5-0.3,1-0.4,1.5
		c0,0,0,0.1,0,0.1c0,0,0,0,0,0c0,0,0,0,0,0l0,0c0,0,0,0,0,0c-0.1,0.4-0.1,0.8-0.1,1.2c0,4.4,3.5,7.9,7.9,7.9c4.4,0,7.9-3.5,7.9-7.9
		C172.8,135.1,172.7,134.8,172.7,134.4z M164.9,140.5c-2.6,0-4.8-2.1-4.8-4.8s2.1-4.8,4.8-4.8s4.8,2.1,4.8,4.8
		S167.5,140.5,164.9,140.5z"/>
</g>
<g id="susension" class="st21">
	<g class="st2">
		<path class="st22" d="M69.7,97.4c0-0.1-0.1-0.1-0.1-0.2c-0.4-0.1-0.9-0.3-1.3-0.4c-0.4-0.1-0.9-0.2-1.3-0.3
			c-0.6-0.1-1.1-0.2-1.7-0.3c-0.3-0.1-0.7-0.2-1-0.2C63.8,96,63.4,96,63,95.9c-0.5-0.1-0.9-0.1-1.4-0.1c-1,0.1-1.9,0.4-2.7,1
			c-0.3,0.2-0.6,0.5-0.8,0.7c-0.2,0.2-0.5,0.4-0.7,0.6c-0.2,0.2-0.5,0.4-0.7,0.6c-0.1,0.1-0.2,0.3-0.2,0.6c0,0.2,0.1,0.3,0.3,0.2
			c0.3-0.1,0.6-0.1,0.9,0c0.1,0,0.2,0,0.2,0c0.1,0,0.7-0.4,0.7-0.4c0.3-0.2,0.5-0.4,0.8-0.5c0.3-0.2,0.8-0.3,1.3-0.4
			c0,0.2-0.1,0.4-0.1,0.6C60,98.8,59.5,99,59,99.3c-0.3,0.2-0.6,0.4-0.8,0.8c-0.3,0.5-0.3,1-0.2,1.6c0,0.1,0.1,0.2,0.2,0.1
			c0.2-0.1,0.3-0.2,0.5-0.2c0.2-0.1,0.3-0.2,0.3-0.4c0.2-0.7,0.7-1.1,1.4-1.4c-0.1,0.5-0.1,1-0.2,1.5c-0.4,0.1-0.7,0.1-1,0.3
			c-0.6,0.3-1.1,0.6-1.5,1.1c-0.4,0.5-0.4,1.1-0.2,1.7c0,0.1,0.1,0.1,0.2,0.1c0.2-0.1,0.4-0.2,0.6-0.3c0.1,0,0.1-0.1,0.1-0.2
			c-0.1-0.4,0-0.6,0.3-0.9c0.2-0.3,0.5-0.5,0.9-0.5c0.2,0,0.3-0.1,0.5-0.1c-0.1,0.6-0.2,1.1-0.2,1.7c-0.2,0-0.4,0.1-0.6,0.1
			c-0.4,0.1-0.8,0.3-1.2,0.5c-0.3,0.2-0.6,0.4-0.9,0.6c-0.2,0.2-0.3,0.4-0.4,0.6c-0.1,0.4,0,0.8,0.2,1.2c0,0.1,0.1,0.1,0.2,0.1
			c0.2-0.1,0.4-0.2,0.7-0.2c0.1,0,0.1-0.1,0.1-0.2c-0.1-0.3,0-0.6,0.2-0.8c0.2-0.2,0.5-0.4,0.8-0.5c0.3-0.1,0.5-0.2,0.8-0.2
			c-0.1,0.6-0.2,1.2-0.2,1.7c-0.7,0.1-1.3,0.2-1.9,0.6c-0.3,0.2-0.6,0.3-0.9,0.6c-0.3,0.4-0.5,0.9-0.5,1.4c0,0.1,0.1,0.2,0.2,0.1
			c0.2-0.1,0.5-0.1,0.7-0.2c0.1,0,0.1-0.1,0.1-0.1c0.3-0.6,0.7-0.9,1.3-1c0.2-0.1,0.4-0.1,0.7-0.1c-0.1,0.8-0.2,1.4-0.2,1.4
			c-0.2,0-0.5,0-0.7,0c-0.4,0.1-0.9,0.2-1.3,0.3c-0.1,0-0.3,0.1-0.4,0.1c0,0-0.1,0.1-0.1,0.1c0,0,0,0.1,0.1,0.1
			c0.2,0.1,0.4,0.2,0.5,0.3c0.2,0.2,0.5,0.5,0.7,0.8c0.1,0.1,0.1,0.1,0.3,0.1c0.2,0,0.3,0,0.5,0c0,0,0.1,0,0.2,0
			c-0.1,0.8-0.3,1.9-0.3,1.9c0,0.1-0.3,2-0.6,3.8c-0.1-0.1-0.1-0.2-0.2-0.3c-0.1-0.1-0.2-0.2-0.3-0.2c0.4-2,0.9-4.1,0.9-4.2
			c0-0.1-0.1-0.2-0.1-0.2c-0.2-0.2-0.5-0.4-0.8-0.5c-0.5-0.1-0.9-0.2-1.4-0.3c-0.3-0.1-0.5-0.1-0.8-0.1c-0.5,0-0.9,0-1.4,0.1
			c-0.3,0-0.5,0.1-0.6,0.4c0,0.1-0.4,2-0.8,3.8c-0.2,0.1-0.5,0.3-0.5,0.6c0,0.1-0.1,0.3-0.1,0.4c0,0.1-0.1,0.3-0.1,0.4
			c0,0,0,0.1,0.1,0.1c0,0,0.1,0,0.1-0.1c0.1-0.1,0.1-0.1,0.2-0.2c-0.2,1.2-0.4,2.1-0.4,2.3c-0.1,0-0.2,0.2-0.3,0.3
			c0,0.1,0,0.2,0,0.2c0.1,0,0.2,0.1,0.3,0.1c-0.6,0.3-0.5,0.5-0.7,0.5c0,0-0.1-0.1-0.1-0.1c-0.1,0-0.2,0-0.3,0.1
			c-0.4,0.2-0.5,0.6-0.5,1.1c0,0.2,0.1,0.2,0.2,0.3c0,0,0,0,0,0c0,0,0.5,0.5,1.6,0.9c0.3,0.1,0.5,0.2,0.8,0.3
			c0.7,0.3,1.4,0.6,2.1,0.9c0.2,0.1,0.4,0.2,0.7,0.1c0.3,0,0.5,0,0.8-0.1c0.3,0,0.3,0,0.4-0.4c0.1-0.4,0.1-0.8,0.2-1.2
			c0-0.2,0-0.3-0.1-0.4c-0.1-0.2-0.2-0.3-0.1-0.5c0.1-0.3,0.1-0.6,0.2-0.9c0-0.1,0-0.2,0-0.2c-0.1-0.1-0.1-0.1-0.2-0.2c0,0,0,0,0,0
			c0.1-0.4,0.3-1.3,0.5-2.4c0.2,0.2,0.4,0.3,0.5,0.6c-0.2,1.1-0.3,1.9-0.3,2c-0.1,0.4-0.2,0.7-0.3,1.1c0,0,0,0.1,0,0.1
			c0.1,0.2,0.2,0.3,0.2,0.6c-0.1,0.6-0.2,1.1-0.3,1.7c-0.1,0.3-0.2,0.6-0.3,0.9c0,0.1,0,0.1-0.1,0.2c0.1,0,0.1,0,0.2,0
			c0.3,0,0.5-0.1,0.8-0.1c0.6-0.1,1.3-0.2,1.9-0.3c0,0,0,0,0,0c0.3,0,0.5-0.1,0.8-0.1c0.1,0,0.2,0,0.3,0c0.1-0.1,0-0.2,0.1-0.3
			c0,0,0,0,0,0c0.1-0.4,0.2-0.8,0.2-1.2c0.1-0.7,0.3-1.3,0.4-2c0,0,0,0,0,0c0,0,0,0,0,0c0,0,0-0.3,0.1-0.7c0,0,0.1,0.1,0.1,0.1
			c0,0,0.1,0.1,0.1,0.1c0,0,0.1,0,0.1-0.1c0.1-0.3,0.1-0.5,0.2-0.8c0,0,0-0.1,0-0.1c0-0.2-0.2-0.4-0.4-0.5c0.3-1.8,0.6-4.2,0.6-4.3
			c0-0.1,0.1-1.1,0.3-2.1c0,0.1,0.1,0.1,0.2,0.1c0.1,0,0.1,0,0.2,0c0.4,0.3,0.7,0.6,0.8,1c0,0.1,0.1,0.2,0.2,0.2
			c0.2,0,0.5-0.2,0.6-0.4c0-0.2,0.1-0.5,0.1-0.7c0-0.2,0-0.4,0.1-0.6c0.1-0.5,0-0.9-0.4-1.2c-0.4-0.3-0.9-0.5-1.4-0.7
			c0,0,0.1-0.8,0.3-1.9c0.1,0,0.1,0,0.2,0c0.4,0.1,0.7,0.3,0.9,0.7c0,0.1,0.1,0.2,0,0.3c0,0.1-0.1,0.2-0.2,0.3c0,0,0,0.1-0.1,0.1
			c0.1,0,0.1,0,0.2,0c0.4-0.1,0.7-0.2,1-0.4c0.3-0.2,0.4-0.5,0.2-0.8c-0.2-0.5-0.5-0.8-1-1c-0.4-0.2-0.7-0.3-1.1-0.4
			c0.1-0.6,0.2-1.2,0.3-1.8c0.1,0,0.1,0,0.2,0c0.4,0.1,0.8,0.2,1.1,0.5c0,0,0.1,0.1,0.1,0.1c0.1,0.2,0,0.4-0.2,0.5
			c-0.1,0.1-0.3,0.1-0.3,0.4c0,0.1,0,0.2,0.2,0.2c0.4-0.1,0.7-0.2,1-0.4c0.4-0.3,0.6-0.9,0.3-1.3c-0.2-0.3-0.5-0.6-0.9-0.8
			c-0.4-0.2-0.8-0.3-1.3-0.5c0.1-0.6,0.2-1.2,0.3-1.8c0.1,0,0.2,0,0.3,0.1c0.4,0.1,0.8,0.2,1.1,0.5c0.2,0.1,0.2,0.3,0.1,0.4
			c0,0.1-0.1,0.3-0.3,0.3c-0.2,0-0.3,0.1-0.3,0.3c0,0,0.1,0.1,0.1,0.1c0.4-0.1,0.8-0.2,1.1-0.4c0.4-0.2,0.6-0.9,0.3-1.3
			c-0.2-0.3-0.4-0.5-0.7-0.6c-0.5-0.2-0.9-0.4-1.5-0.5c0,0-0.1,0-0.1,0c0.1-0.5,0.1-1,0.2-1.5c0.2,0,0.4,0.1,0.5,0.1
			c0.3,0.1,0.6,0.2,0.9,0.5c0.1,0.1,0.2,0.2,0.2,0.3c0.1,0.3-0.1,0.5-0.4,0.6c-0.1,0-0.1,0.1-0.1,0.1c0,0,0.1,0.1,0.1,0.1
			c0.1,0.1,0.2,0.1,0.3,0.2c0.1,0.1,0.2,0.1,0.3,0c0.4-0.2,0.7-0.6,0.8-1c0.1-0.2,0-0.4-0.1-0.6c-0.2-0.5-0.6-0.7-1.1-1
			c-0.4-0.2-0.9-0.4-1.4-0.5c0-0.2,0-0.3,0-0.3c0,0,0,0,0-0.1c1.2,0.3,2.5,0.9,2.8,1.4c0,0,0,0,0,0c0,0.1,0.1,0.2,0.2,0.4
			c0,0,0,0,0.1,0c0.4-0.2,0.8-0.5,1.2-0.7c0,0,0.1-0.1,0.1-0.1c0,0-0.1-0.1-0.1-0.1c-0.2-0.1-0.4-0.1-0.5-0.2
			c-0.3-0.1-0.4-0.4-0.4-0.7c0-0.3,0.3-0.4,0.5-0.5c0.4-0.1,0.7-0.1,1,0.1c0.1,0.1,0.2,0.2,0.3,0.3c0,0,0.1,0.1,0.1,0.1
			c0,0,0.1-0.1,0.1-0.1C69.7,97.8,69.7,97.6,69.7,97.4z"/>
		<path class="st22" d="M55.9,111.3c0.5,0.1,0.9,0.2,1.3,0.4c0,0,0.1,0,0.1,0c0,0,0-0.1,0-0.2c0-0.1-0.1-0.1-0.1-0.2
			c-0.4-0.4-0.8-0.8-1.5-0.7c-0.4,0-0.7,0.2-1,0.3c-0.1,0-0.1,0.1-0.1,0.2c0.1,0,0.1,0.1,0.2,0.1C55.1,111.3,55.5,111.3,55.9,111.3z
			"/>
	</g>
	<g class="st2">
		<path class="st22" d="M134.4,97.4c0-0.1,0.1-0.1,0.1-0.2c0.4-0.1,0.9-0.3,1.3-0.4c0.4-0.1,0.9-0.2,1.3-0.3
			c0.6-0.1,1.1-0.2,1.7-0.3c0.3-0.1,0.7-0.2,1-0.2c0.4-0.1,0.9-0.1,1.3-0.2c0.5-0.1,0.9-0.1,1.4-0.1c1,0.1,1.9,0.4,2.7,1
			c0.3,0.2,0.6,0.5,0.8,0.7c0.2,0.2,0.5,0.4,0.7,0.6c0.2,0.2,0.5,0.4,0.7,0.6c0.1,0.1,0.2,0.3,0.2,0.6c0,0.2-0.1,0.3-0.3,0.2
			c-0.3-0.1-0.6-0.1-0.9,0c-0.1,0-0.2,0-0.2,0c-0.1,0-0.7-0.4-0.7-0.4c-0.3-0.2-0.5-0.4-0.8-0.5c-0.3-0.2-0.8-0.3-1.3-0.4
			c0,0.2,0.1,0.4,0.1,0.6c0.5,0.1,1.1,0.3,1.5,0.6c0.3,0.2,0.6,0.4,0.8,0.8c0.3,0.5,0.3,1,0.2,1.6c0,0.1-0.1,0.2-0.2,0.1
			c-0.2-0.1-0.3-0.2-0.5-0.2c-0.2-0.1-0.3-0.2-0.3-0.4c-0.2-0.7-0.7-1.1-1.4-1.4c0.1,0.5,0.1,1,0.2,1.5c0.4,0.1,0.7,0.1,1,0.3
			c0.6,0.3,1.1,0.6,1.5,1.1c0.4,0.5,0.4,1.1,0.2,1.7c0,0.1-0.1,0.1-0.2,0.1c-0.2-0.1-0.4-0.2-0.6-0.3c-0.1,0-0.1-0.1-0.1-0.2
			c0.1-0.4,0-0.6-0.3-0.9c-0.2-0.3-0.5-0.5-0.9-0.5c-0.2,0-0.3-0.1-0.5-0.1c0.1,0.6,0.2,1.1,0.2,1.7c0.2,0,0.4,0.1,0.6,0.1
			c0.4,0.1,0.8,0.3,1.2,0.5c0.3,0.2,0.6,0.4,0.9,0.6c0.2,0.2,0.3,0.4,0.4,0.6c0.1,0.4,0,0.8-0.2,1.2c0,0.1-0.1,0.1-0.2,0.1
			c-0.2-0.1-0.4-0.2-0.7-0.2c-0.1,0-0.1-0.1-0.1-0.2c0.1-0.3,0-0.6-0.2-0.8c-0.2-0.2-0.5-0.4-0.8-0.5c-0.3-0.1-0.5-0.2-0.8-0.2
			c0.1,0.6,0.2,1.2,0.2,1.7c0.7,0.1,1.3,0.2,1.9,0.6c0.3,0.2,0.6,0.3,0.9,0.6c0.3,0.4,0.5,0.9,0.5,1.4c0,0.1-0.1,0.2-0.2,0.1
			c-0.2-0.1-0.5-0.1-0.7-0.2c-0.1,0-0.1-0.1-0.1-0.1c-0.3-0.6-0.7-0.9-1.3-1c-0.2-0.1-0.4-0.1-0.7-0.1c0.1,0.8,0.2,1.4,0.2,1.4
			c0.2,0,0.5,0,0.7,0c0.4,0.1,0.9,0.2,1.3,0.3c0.1,0,0.3,0.1,0.4,0.1c0,0,0.1,0.1,0.1,0.1c0,0,0,0.1-0.1,0.1
			c-0.2,0.1-0.4,0.2-0.5,0.3c-0.2,0.2-0.5,0.5-0.7,0.8c-0.1,0.1-0.1,0.1-0.3,0.1c-0.2,0-0.3,0-0.5,0c0,0-0.1,0-0.2,0
			c0.1,0.8,0.3,1.9,0.3,1.9c0,0.1,0.3,2,0.6,3.8c0.1-0.1,0.1-0.2,0.2-0.3c0.1-0.1,0.2-0.2,0.3-0.2c-0.4-2-0.9-4.1-0.9-4.2
			c0-0.1,0.1-0.2,0.1-0.2c0.2-0.2,0.5-0.4,0.8-0.5c0.5-0.1,0.9-0.2,1.4-0.3c0.3-0.1,0.5-0.1,0.8-0.1c0.5,0,0.9,0,1.4,0.1
			c0.3,0,0.5,0.1,0.6,0.4c0,0.1,0.4,2,0.8,3.8c0.2,0.1,0.5,0.3,0.5,0.6c0,0.1,0.1,0.3,0.1,0.4c0,0.1,0.1,0.3,0.1,0.4
			c0,0,0,0.1-0.1,0.1c0,0-0.1,0-0.1-0.1c-0.1-0.1-0.1-0.1-0.2-0.2c0.2,1.2,0.4,2.1,0.4,2.3c0.1,0,0.2,0.2,0.3,0.3c0,0.1,0,0.2,0,0.2
			c-0.1,0-0.2,0.1-0.3,0.1c0.6,0.3,0.5,0.5,0.7,0.5c0,0,0.1-0.1,0.1-0.1c0.1,0,0.2,0,0.3,0.1c0.4,0.2,0.5,0.6,0.5,1.1
			c0,0.2-0.1,0.2-0.2,0.3c0,0,0,0,0,0c0,0-0.5,0.5-1.6,0.9c-0.3,0.1-0.5,0.2-0.8,0.3c-0.7,0.3-1.4,0.6-2.1,0.9
			c-0.2,0.1-0.4,0.2-0.7,0.1c-0.3,0-0.5,0-0.8-0.1c-0.3,0-0.3,0-0.4-0.4c-0.1-0.4-0.1-0.8-0.2-1.2c0-0.2,0-0.3,0.1-0.4
			c0.1-0.2,0.2-0.3,0.1-0.5c-0.1-0.3-0.1-0.6-0.2-0.9c0-0.1,0-0.2,0-0.2c0.1-0.1,0.1-0.1,0.2-0.2c0,0,0,0,0,0
			c-0.1-0.4-0.3-1.3-0.5-2.4c-0.2,0.2-0.4,0.3-0.5,0.6c0.2,1.1,0.3,1.9,0.3,2c0.1,0.4,0.2,0.7,0.3,1.1c0,0,0,0.1,0,0.1
			c-0.1,0.2-0.2,0.3-0.2,0.6c0.1,0.6,0.2,1.1,0.3,1.7c0.1,0.3,0.2,0.6,0.3,0.9c0,0.1,0,0.1,0.1,0.2c-0.1,0-0.1,0-0.2,0
			c-0.3,0-0.5-0.1-0.8-0.1c-0.6-0.1-1.3-0.2-1.9-0.3c0,0,0,0,0,0c-0.3,0-0.5-0.1-0.8-0.1c-0.1,0-0.2,0-0.3,0c-0.1-0.1,0-0.2-0.1-0.3
			c0,0,0,0,0,0c-0.1-0.4-0.2-0.8-0.2-1.2c-0.1-0.7-0.3-1.3-0.4-2c0,0,0,0,0,0c0,0,0,0,0,0c0,0,0-0.3-0.1-0.7c0,0-0.1,0.1-0.1,0.1
			c0,0-0.1,0.1-0.1,0.1c0,0-0.1,0-0.1-0.1c-0.1-0.3-0.1-0.5-0.2-0.8c0,0,0-0.1,0-0.1c0-0.2,0.2-0.4,0.4-0.5
			c-0.3-1.8-0.6-4.2-0.6-4.3c0-0.1-0.1-1.1-0.3-2.1c0,0.1-0.1,0.1-0.2,0.1c-0.1,0-0.1,0-0.2,0c-0.4,0.3-0.7,0.6-0.8,1
			c0,0.1-0.1,0.2-0.2,0.2c-0.2,0-0.5-0.2-0.6-0.4c0-0.2-0.1-0.5-0.1-0.7c0-0.2,0-0.4-0.1-0.6c-0.1-0.5,0-0.9,0.4-1.2
			c0.4-0.3,0.9-0.5,1.4-0.7c0,0-0.1-0.8-0.3-1.9c-0.1,0-0.1,0-0.2,0c-0.4,0.1-0.7,0.3-0.9,0.7c0,0.1-0.1,0.2,0,0.3
			c0,0.1,0.1,0.2,0.2,0.3c0,0,0,0.1,0.1,0.1c-0.1,0-0.1,0-0.2,0c-0.4-0.1-0.7-0.2-1-0.4c-0.3-0.2-0.4-0.5-0.2-0.8
			c0.2-0.5,0.5-0.8,1-1c0.4-0.2,0.7-0.3,1.1-0.4c-0.1-0.6-0.2-1.2-0.3-1.8c-0.1,0-0.1,0-0.2,0c-0.4,0.1-0.8,0.2-1.1,0.5
			c0,0-0.1,0.1-0.1,0.1c-0.1,0.2,0,0.4,0.2,0.5c0.1,0.1,0.3,0.1,0.3,0.4c0,0.1,0,0.2-0.2,0.2c-0.4-0.1-0.7-0.2-1-0.4
			c-0.4-0.3-0.6-0.9-0.3-1.3c0.2-0.3,0.5-0.6,0.9-0.8c0.4-0.2,0.8-0.3,1.3-0.5c-0.1-0.6-0.2-1.2-0.3-1.8c-0.1,0-0.2,0-0.3,0.1
			c-0.4,0.1-0.8,0.2-1.1,0.5c-0.2,0.1-0.2,0.3-0.1,0.4c0,0.1,0.1,0.3,0.3,0.3c0.2,0,0.3,0.1,0.3,0.3c0,0-0.1,0.1-0.1,0.1
			c-0.4-0.1-0.8-0.2-1.1-0.4c-0.4-0.2-0.6-0.9-0.3-1.3c0.2-0.3,0.4-0.5,0.7-0.6c0.5-0.2,0.9-0.4,1.5-0.5c0,0,0.1,0,0.1,0
			c-0.1-0.5-0.1-1-0.2-1.5c-0.2,0-0.4,0.1-0.5,0.1c-0.3,0.1-0.6,0.2-0.9,0.5c-0.1,0.1-0.2,0.2-0.2,0.3c-0.1,0.3,0.1,0.5,0.4,0.6
			c0.1,0,0.1,0.1,0.1,0.1c0,0-0.1,0.1-0.1,0.1c-0.1,0.1-0.2,0.1-0.3,0.2c-0.1,0.1-0.2,0.1-0.3,0c-0.4-0.2-0.7-0.6-0.8-1
			c-0.1-0.2,0-0.4,0.1-0.6c0.2-0.5,0.6-0.7,1.1-1c0.4-0.2,0.9-0.4,1.4-0.5c0-0.2,0-0.3,0-0.3c0,0,0,0,0-0.1
			c-1.2,0.3-2.5,0.9-2.8,1.4c0,0,0,0,0,0c0,0.1-0.1,0.2-0.2,0.4c0,0,0,0-0.1,0c-0.4-0.2-0.8-0.5-1.2-0.7c0,0-0.1-0.1-0.1-0.1
			c0,0,0.1-0.1,0.1-0.1c0.2-0.1,0.4-0.1,0.5-0.2c0.3-0.1,0.4-0.4,0.4-0.7c0-0.3-0.3-0.4-0.5-0.5c-0.4-0.1-0.7-0.1-1,0.1
			c-0.1,0.1-0.2,0.2-0.3,0.3c0,0-0.1,0.1-0.1,0.1c0,0-0.1-0.1-0.1-0.1C134.4,97.8,134.4,97.6,134.4,97.4z"/>
		<path class="st22" d="M148.2,111.3c-0.5,0.1-0.9,0.2-1.3,0.4c0,0-0.1,0-0.1,0c0,0,0-0.1,0-0.2c0-0.1,0.1-0.1,0.1-0.2
			c0.4-0.4,0.8-0.8,1.5-0.7c0.4,0,0.7,0.2,1,0.3c0.1,0,0.1,0.1,0.1,0.2c-0.1,0-0.1,0.1-0.2,0.1C149,111.3,148.6,111.3,148.2,111.3z"
			/>
	</g>
</g>
</svg>
